<mxfile host="app.diagrams.net" agent="Mozilla/5.0 (Windows NT 10.0; Win64; x64) AppleWebKit/537.36 (KHTML, like Gecko) Chrome/141.0.0.0 Safari/537.36" version="28.2.7" pages="3">
  <diagram id="8dfWNRv9GClJDuoj8XkV" name="Halaman 1">
    <mxGraphModel grid="1" page="1" gridSize="10" guides="1" tooltips="1" connect="1" arrows="1" fold="1" pageScale="1" pageWidth="827" pageHeight="1169" background="light-dark(#FFFFFF,#020202)" math="1" shadow="0">
      <root>
        <object label="" id="0">
          <mxCell />
        </object>
        <mxCell id="1" parent="0" />
        <mxCell id="PVNuIIhLE3hvlTbGoiD--79" style="edgeStyle=none;curved=1;rounded=0;orthogonalLoop=1;jettySize=auto;html=1;fontSize=12;startSize=8;endSize=8;strokeWidth=2;entryX=0;entryY=0.5;entryDx=0;entryDy=0;" edge="1" parent="1" target="PVNuIIhLE3hvlTbGoiD--108">
          <mxGeometry relative="1" as="geometry">
            <mxPoint x="1393" y="528.72" as="targetPoint" />
            <mxPoint x="1313" y="528.72" as="sourcePoint" />
          </mxGeometry>
        </mxCell>
        <mxCell id="PVNuIIhLE3hvlTbGoiD--78" value="&lt;div&gt;&lt;br&gt;&lt;/div&gt;if opsiadmin&lt;div&gt;&lt;span style=&quot;background-color: transparent; color: light-dark(rgb(0, 0, 0), rgb(255, 255, 255));&quot;&gt;== 2&lt;/span&gt;&lt;/div&gt;" style="rhombus;whiteSpace=wrap;html=1;fillColor=none;strokeWidth=2;" vertex="1" parent="1">
          <mxGeometry x="1231" y="489" width="82" height="80" as="geometry" />
        </mxCell>
        <mxCell id="PVNuIIhLE3hvlTbGoiD--107" style="edgeStyle=none;curved=1;rounded=0;orthogonalLoop=1;jettySize=auto;html=1;fontSize=12;startSize=8;endSize=8;strokeWidth=2;exitX=0.5;exitY=0;exitDx=0;exitDy=0;" edge="1" parent="1">
          <mxGeometry relative="1" as="geometry">
            <mxPoint x="1580.6" y="-32" as="targetPoint" />
            <mxPoint x="1580.75" y="25" as="sourcePoint" />
          </mxGeometry>
        </mxCell>
        <mxCell id="H7Glbrvd2P4JiKMKXMEy-12" style="edgeStyle=none;curved=1;rounded=0;orthogonalLoop=1;jettySize=auto;html=1;entryX=0.5;entryY=0;entryDx=0;entryDy=0;fontSize=12;startSize=8;endSize=8;strokeWidth=2;" edge="1" parent="1" source="H7Glbrvd2P4JiKMKXMEy-4" target="H7Glbrvd2P4JiKMKXMEy-8">
          <mxGeometry relative="1" as="geometry" />
        </mxCell>
        <mxCell id="H7Glbrvd2P4JiKMKXMEy-4" value="&lt;font style=&quot;color: light-dark(rgb(0, 0, 0), rgb(255, 255, 255));&quot;&gt;Start&lt;/font&gt;" style="ellipse;whiteSpace=wrap;html=1;labelBackgroundColor=none;fillColor=none;fontColor=#ffffff;strokeColor=light-dark(#000000,#FFFFFF);strokeWidth=2;" vertex="1" parent="1">
          <mxGeometry x="258" y="-1120" width="82" height="60" as="geometry" />
        </mxCell>
        <mxCell id="H7Glbrvd2P4JiKMKXMEy-23" style="edgeStyle=none;curved=1;rounded=0;orthogonalLoop=1;jettySize=auto;html=1;fontSize=12;startSize=8;endSize=8;entryX=0.5;entryY=0;entryDx=0;entryDy=0;strokeWidth=2;" edge="1" parent="1" source="H7Glbrvd2P4JiKMKXMEy-5" target="H7Glbrvd2P4JiKMKXMEy-15">
          <mxGeometry relative="1" as="geometry">
            <mxPoint x="299" y="-620" as="targetPoint" />
          </mxGeometry>
        </mxCell>
        <mxCell id="H7Glbrvd2P4JiKMKXMEy-5" value="&lt;font style=&quot;font-size: 13px; color: light-dark(rgb(0, 0, 0), rgb(249, 249, 249));&quot;&gt;Menu&amp;nbsp; Awal&lt;/font&gt;" style="rounded=1;whiteSpace=wrap;html=1;fillColor=none;strokeColor=light-dark(#000000,#FFFFFF);strokeWidth=2;" vertex="1" parent="1">
          <mxGeometry x="239" y="-775" width="120" height="60" as="geometry" />
        </mxCell>
        <mxCell id="H7Glbrvd2P4JiKMKXMEy-13" style="edgeStyle=none;curved=1;rounded=0;orthogonalLoop=1;jettySize=auto;html=1;entryX=0.5;entryY=0;entryDx=0;entryDy=0;fontSize=12;startSize=8;endSize=8;strokeWidth=2;" edge="1" parent="1" source="H7Glbrvd2P4JiKMKXMEy-8" target="H7Glbrvd2P4JiKMKXMEy-5">
          <mxGeometry relative="1" as="geometry" />
        </mxCell>
        <mxCell id="H7Glbrvd2P4JiKMKXMEy-8" value="&#39;Selamat datang Di Toko Parfum&lt;div&gt;Silahkan pilih&amp;nbsp; menu di bawah ini&#39;&lt;/div&gt;" style="shape=parallelogram;perimeter=parallelogramPerimeter;whiteSpace=wrap;html=1;fixedSize=1;fillColor=none;strokeWidth=2;strokeColor=light-dark(#000000,#FFFFFF);" vertex="1" parent="1">
          <mxGeometry x="189" y="-928" width="220" height="60" as="geometry" />
        </mxCell>
        <mxCell id="H7Glbrvd2P4JiKMKXMEy-9" value="" style="endArrow=classic;html=1;rounded=0;fontSize=12;startSize=8;endSize=8;curved=1;strokeColor=light-dark(#000000,#FFFFFF);strokeWidth=2;" edge="1" parent="1">
          <mxGeometry width="50" height="50" relative="1" as="geometry">
            <mxPoint x="392" y="-880" as="sourcePoint" />
            <mxPoint x="429" y="-880" as="targetPoint" />
          </mxGeometry>
        </mxCell>
        <mxCell id="H7Glbrvd2P4JiKMKXMEy-25" style="edgeStyle=none;curved=1;rounded=0;orthogonalLoop=1;jettySize=auto;html=1;fontSize=12;startSize=8;endSize=8;strokeWidth=2;" edge="1" parent="1" source="H7Glbrvd2P4JiKMKXMEy-15">
          <mxGeometry relative="1" as="geometry">
            <mxPoint x="299.00000000000006" y="-510" as="targetPoint" />
          </mxGeometry>
        </mxCell>
        <mxCell id="H7Glbrvd2P4JiKMKXMEy-15" value="opsilogin" style="shape=parallelogram;perimeter=parallelogramPerimeter;whiteSpace=wrap;html=1;fixedSize=1;fillColor=none;strokeWidth=2;strokeColor=light-dark(#000000,#FFFFFF);" vertex="1" parent="1">
          <mxGeometry x="248" y="-640" width="102" height="50" as="geometry" />
        </mxCell>
        <mxCell id="H7Glbrvd2P4JiKMKXMEy-16" value="" style="endArrow=classic;html=1;rounded=0;fontSize=12;startSize=8;endSize=8;curved=1;strokeColor=light-dark(#000000,#FFFFFF);strokeWidth=2;" edge="1" parent="1">
          <mxGeometry width="50" height="50" relative="1" as="geometry">
            <mxPoint x="227" y="-630" as="sourcePoint" />
            <mxPoint x="264" y="-630" as="targetPoint" />
          </mxGeometry>
        </mxCell>
        <mxCell id="H7Glbrvd2P4JiKMKXMEy-21" style="edgeStyle=none;curved=1;rounded=0;orthogonalLoop=1;jettySize=auto;html=1;fontSize=12;startSize=8;endSize=8;strokeWidth=2;entryX=0.5;entryY=0;entryDx=0;entryDy=0;exitX=0.5;exitY=1;exitDx=0;exitDy=0;" edge="1" parent="1" source="H7Glbrvd2P4JiKMKXMEy-18" target="PVNuIIhLE3hvlTbGoiD--50">
          <mxGeometry relative="1" as="geometry">
            <mxPoint x="299.04993909866016" y="-413.0487210718634" as="sourcePoint" />
            <mxPoint x="300" y="317" as="targetPoint" />
          </mxGeometry>
        </mxCell>
        <mxCell id="zJTUNc1aB9DpV5R-l1gZ-3" value="&lt;span style=&quot;color: rgba(0, 0, 0, 0); font-family: monospace; font-size: 0px; text-align: start; background-color: rgb(27, 29, 30);&quot;&gt;FF%3CmxGraphModel%3E%3Croot%3E%3CmxCell%20id%3D%220%22%2F%3E%3CmxCell%20id%3D%221%22%20parent%3D%220%22%2F%3E%3CmxCell%20id%3D%222%22%20value%3D%22False%22%20style%3D%22edgeLabel%3Bhtml%3D1%3Balign%3Dcenter%3BverticalAlign%3Dmiddle%3Bresizable%3D0%3Bpoints%3D%5B%5D%3BfontSize%3D11%3BlabelBackgroundColor%3Dlight-dark(%23FFFFFF%2C%23000000)%3B%22%20connectable%3D%220%22%20vertex%3D%221%22%20parent%3D%221%22%3E%3CmxGeometry%20x%3D%2269.60000000000002%22%20y%3D%22530%22%20as%3D%22geometry%22%2F%3E%3C%2FmxCell%3E%3C%2Froot%3E%3C%2FmxGraphModel%3EFas&lt;/span&gt;" style="edgeLabel;html=1;align=center;verticalAlign=middle;resizable=0;points=[];fontSize=12;" connectable="0" vertex="1" parent="H7Glbrvd2P4JiKMKXMEy-21">
          <mxGeometry x="-0.1416" y="-1" relative="1" as="geometry">
            <mxPoint as="offset" />
          </mxGeometry>
        </mxCell>
        <mxCell id="zJTUNc1aB9DpV5R-l1gZ-4" value="&lt;span&gt;False&lt;/span&gt;" style="edgeLabel;html=1;align=center;verticalAlign=middle;resizable=0;points=[];fontSize=13;labelBackgroundColor=light-dark(#FFFFFF,#000000);" connectable="0" vertex="1" parent="H7Glbrvd2P4JiKMKXMEy-21">
          <mxGeometry x="-0.1644" y="-1" relative="1" as="geometry">
            <mxPoint y="-287" as="offset" />
          </mxGeometry>
        </mxCell>
        <mxCell id="H7Glbrvd2P4JiKMKXMEy-27" style="edgeStyle=none;curved=1;rounded=0;orthogonalLoop=1;jettySize=auto;html=1;fontSize=12;startSize=8;endSize=8;strokeWidth=2;" edge="1" parent="1" source="H7Glbrvd2P4JiKMKXMEy-18">
          <mxGeometry relative="1" as="geometry">
            <mxPoint x="420" y="-470" as="targetPoint" />
          </mxGeometry>
        </mxCell>
        <mxCell id="H7Glbrvd2P4JiKMKXMEy-30" value="True" style="edgeLabel;html=1;align=center;verticalAlign=middle;resizable=0;points=[];fontSize=13;labelBackgroundColor=light-dark(#FFFFFF,#000000);" connectable="0" vertex="1" parent="H7Glbrvd2P4JiKMKXMEy-27">
          <mxGeometry x="-0.2147" relative="1" as="geometry">
            <mxPoint x="-1" as="offset" />
          </mxGeometry>
        </mxCell>
        <mxCell id="H7Glbrvd2P4JiKMKXMEy-18" value="&lt;div style=&quot;line-height: 100%;&quot;&gt;&lt;br&gt;&lt;/div&gt;&lt;div style=&quot;line-height: 100%;&quot;&gt;if opsilogin&lt;div&gt;&amp;nbsp;== 1&lt;/div&gt;&lt;/div&gt;" style="rhombus;whiteSpace=wrap;html=1;fillColor=none;strokeWidth=2;" vertex="1" parent="1">
          <mxGeometry x="258" y="-511" width="82" height="80" as="geometry" />
        </mxCell>
        <mxCell id="zJTUNc1aB9DpV5R-l1gZ-5" value="&lt;div&gt;&lt;br&gt;&lt;/div&gt;if opsicust&lt;div&gt;&amp;nbsp;== 1&lt;/div&gt;" style="rhombus;whiteSpace=wrap;html=1;fillColor=none;strokeWidth=2;" vertex="1" parent="1">
          <mxGeometry x="785" y="-510" width="82" height="80" as="geometry" />
        </mxCell>
        <mxCell id="zJTUNc1aB9DpV5R-l1gZ-6" value="opsicust" style="shape=parallelogram;perimeter=parallelogramPerimeter;whiteSpace=wrap;html=1;fixedSize=1;fillColor=none;strokeWidth=2;strokeColor=light-dark(#000000,#FFFFFF);" vertex="1" parent="1">
          <mxGeometry x="612" y="-495" width="102" height="50" as="geometry" />
        </mxCell>
        <mxCell id="zJTUNc1aB9DpV5R-l1gZ-7" value="" style="endArrow=classic;html=1;rounded=0;fontSize=12;startSize=8;endSize=8;curved=1;strokeColor=light-dark(#000000,#FFFFFF);strokeWidth=2;" edge="1" parent="1">
          <mxGeometry width="50" height="50" relative="1" as="geometry">
            <mxPoint x="590" y="-485" as="sourcePoint" />
            <mxPoint x="627" y="-485" as="targetPoint" />
          </mxGeometry>
        </mxCell>
        <mxCell id="zJTUNc1aB9DpV5R-l1gZ-10" style="edgeStyle=none;curved=1;rounded=0;orthogonalLoop=1;jettySize=auto;html=1;fontSize=12;startSize=8;endSize=8;strokeWidth=2;" edge="1" parent="1">
          <mxGeometry relative="1" as="geometry">
            <mxPoint x="785" y="-470.26" as="targetPoint" />
            <mxPoint x="705" y="-470.26" as="sourcePoint" />
          </mxGeometry>
        </mxCell>
        <mxCell id="zJTUNc1aB9DpV5R-l1gZ-12" style="edgeStyle=none;curved=1;rounded=0;orthogonalLoop=1;jettySize=auto;html=1;fontSize=12;startSize=8;endSize=8;strokeWidth=2;entryX=0;entryY=0.5;entryDx=0;entryDy=0;" edge="1" parent="1" target="zJTUNc1aB9DpV5R-l1gZ-45">
          <mxGeometry relative="1" as="geometry">
            <mxPoint x="947" y="-470.28" as="targetPoint" />
            <mxPoint x="867" y="-470.28" as="sourcePoint" />
          </mxGeometry>
        </mxCell>
        <mxCell id="zJTUNc1aB9DpV5R-l1gZ-62" value="False" style="edgeLabel;html=1;align=center;verticalAlign=middle;resizable=0;points=[];fontSize=13;" connectable="0" vertex="1" parent="zJTUNc1aB9DpV5R-l1gZ-12">
          <mxGeometry x="-0.7817" y="-1" relative="1" as="geometry">
            <mxPoint x="3" y="-1" as="offset" />
          </mxGeometry>
        </mxCell>
        <mxCell id="zJTUNc1aB9DpV5R-l1gZ-13" style="edgeStyle=none;curved=1;rounded=0;orthogonalLoop=1;jettySize=auto;html=1;fontSize=12;startSize=8;endSize=8;strokeWidth=2;" edge="1" parent="1">
          <mxGeometry relative="1" as="geometry">
            <mxPoint x="825.76" y="-590" as="targetPoint" />
            <mxPoint x="825.76" y="-510" as="sourcePoint" />
          </mxGeometry>
        </mxCell>
        <mxCell id="zJTUNc1aB9DpV5R-l1gZ-14" value="True" style="edgeLabel;html=1;align=center;verticalAlign=middle;resizable=0;points=[];fontSize=13;" connectable="0" vertex="1" parent="zJTUNc1aB9DpV5R-l1gZ-13">
          <mxGeometry x="-0.1139" relative="1" as="geometry">
            <mxPoint as="offset" />
          </mxGeometry>
        </mxCell>
        <mxCell id="zJTUNc1aB9DpV5R-l1gZ-16" value="username" style="shape=parallelogram;perimeter=parallelogramPerimeter;whiteSpace=wrap;html=1;fixedSize=1;fillColor=none;strokeWidth=2;strokeColor=light-dark(#000000,#FFFFFF);" vertex="1" parent="1">
          <mxGeometry x="772" y="-640" width="108" height="50" as="geometry" />
        </mxCell>
        <mxCell id="zJTUNc1aB9DpV5R-l1gZ-17" value="" style="endArrow=classic;html=1;rounded=0;fontSize=12;startSize=8;endSize=8;curved=1;strokeColor=light-dark(#000000,#FFFFFF);strokeWidth=2;" edge="1" parent="1">
          <mxGeometry width="50" height="50" relative="1" as="geometry">
            <mxPoint x="750" y="-630" as="sourcePoint" />
            <mxPoint x="787" y="-630" as="targetPoint" />
          </mxGeometry>
        </mxCell>
        <mxCell id="zJTUNc1aB9DpV5R-l1gZ-18" value="&lt;font style=&quot;font-size: 13px; color: light-dark(rgb(0, 0, 0), rgb(249, 249, 249));&quot;&gt;Menu&amp;nbsp; Customer&lt;/font&gt;" style="rounded=1;whiteSpace=wrap;html=1;fillColor=none;strokeColor=light-dark(#000000,#FFFFFF);strokeWidth=2;" vertex="1" parent="1">
          <mxGeometry x="420" y="-500" width="120" height="60" as="geometry" />
        </mxCell>
        <mxCell id="zJTUNc1aB9DpV5R-l1gZ-19" style="edgeStyle=none;curved=1;rounded=0;orthogonalLoop=1;jettySize=auto;html=1;fontSize=12;startSize=8;endSize=8;strokeWidth=2;" edge="1" parent="1">
          <mxGeometry relative="1" as="geometry">
            <mxPoint x="620" y="-470" as="targetPoint" />
            <mxPoint x="540" y="-470" as="sourcePoint" />
          </mxGeometry>
        </mxCell>
        <mxCell id="zJTUNc1aB9DpV5R-l1gZ-20" style="edgeStyle=none;curved=1;rounded=0;orthogonalLoop=1;jettySize=auto;html=1;fontSize=12;startSize=8;endSize=8;strokeWidth=2;" edge="1" parent="1">
          <mxGeometry relative="1" as="geometry">
            <mxPoint x="825.76" y="-720" as="targetPoint" />
            <mxPoint x="825.76" y="-640" as="sourcePoint" />
          </mxGeometry>
        </mxCell>
        <mxCell id="zJTUNc1aB9DpV5R-l1gZ-22" value="password" style="shape=parallelogram;perimeter=parallelogramPerimeter;whiteSpace=wrap;html=1;fixedSize=1;fillColor=none;strokeWidth=2;strokeColor=light-dark(#000000,#FFFFFF);" vertex="1" parent="1">
          <mxGeometry x="772" y="-770" width="108" height="50" as="geometry" />
        </mxCell>
        <mxCell id="zJTUNc1aB9DpV5R-l1gZ-23" value="" style="endArrow=classic;html=1;rounded=0;fontSize=12;startSize=8;endSize=8;curved=1;strokeColor=light-dark(#000000,#FFFFFF);strokeWidth=2;" edge="1" parent="1">
          <mxGeometry width="50" height="50" relative="1" as="geometry">
            <mxPoint x="751" y="-760" as="sourcePoint" />
            <mxPoint x="788" y="-760" as="targetPoint" />
          </mxGeometry>
        </mxCell>
        <mxCell id="zJTUNc1aB9DpV5R-l1gZ-26" value="if username&lt;div&gt;in akuns&lt;/div&gt;" style="rhombus;whiteSpace=wrap;html=1;fillColor=none;strokeWidth=2;" vertex="1" parent="1">
          <mxGeometry x="775" y="-945" width="102" height="94" as="geometry" />
        </mxCell>
        <mxCell id="zJTUNc1aB9DpV5R-l1gZ-27" style="edgeStyle=none;curved=1;rounded=0;orthogonalLoop=1;jettySize=auto;html=1;fontSize=12;startSize=8;endSize=8;strokeWidth=2;" edge="1" parent="1">
          <mxGeometry relative="1" as="geometry">
            <mxPoint x="825.58" y="-850" as="targetPoint" />
            <mxPoint x="825.58" y="-770" as="sourcePoint" />
          </mxGeometry>
        </mxCell>
        <mxCell id="zJTUNc1aB9DpV5R-l1gZ-31" style="edgeStyle=none;curved=1;rounded=0;orthogonalLoop=1;jettySize=auto;html=1;fontSize=12;startSize=8;endSize=8;strokeWidth=2;" edge="1" parent="1">
          <mxGeometry relative="1" as="geometry">
            <mxPoint x="957" y="-898.25" as="targetPoint" />
            <mxPoint x="877" y="-898.25" as="sourcePoint" />
          </mxGeometry>
        </mxCell>
        <mxCell id="zJTUNc1aB9DpV5R-l1gZ-32" value="False" style="edgeLabel;html=1;align=center;verticalAlign=middle;resizable=0;points=[];fontSize=13;labelBackgroundColor=light-dark(#FFFFFF,#000000);" connectable="0" vertex="1" parent="zJTUNc1aB9DpV5R-l1gZ-31">
          <mxGeometry x="-0.2147" relative="1" as="geometry">
            <mxPoint x="-1" as="offset" />
          </mxGeometry>
        </mxCell>
        <mxCell id="zJTUNc1aB9DpV5R-l1gZ-33" value="&#39;Username Sudah Digunakan&lt;div&gt;Silahkan Gunakan Username Lain&#39;&lt;/div&gt;" style="shape=parallelogram;perimeter=parallelogramPerimeter;whiteSpace=wrap;html=1;fixedSize=1;fillColor=none;strokeWidth=2;strokeColor=light-dark(#000000,#FFFFFF);" vertex="1" parent="1">
          <mxGeometry x="714" y="-1086" width="226" height="60" as="geometry" />
        </mxCell>
        <mxCell id="zJTUNc1aB9DpV5R-l1gZ-34" value="" style="endArrow=classic;html=1;rounded=0;fontSize=12;startSize=8;endSize=8;curved=1;strokeColor=light-dark(#000000,#FFFFFF);strokeWidth=2;" edge="1" parent="1">
          <mxGeometry width="50" height="50" relative="1" as="geometry">
            <mxPoint x="923" y="-1036" as="sourcePoint" />
            <mxPoint x="960" y="-1036" as="targetPoint" />
          </mxGeometry>
        </mxCell>
        <mxCell id="zJTUNc1aB9DpV5R-l1gZ-38" style="edgeStyle=none;curved=1;rounded=0;orthogonalLoop=1;jettySize=auto;html=1;fontSize=12;startSize=8;endSize=8;strokeWidth=2;" edge="1" parent="1">
          <mxGeometry relative="1" as="geometry">
            <mxPoint x="825.63" y="-1025" as="targetPoint" />
            <mxPoint x="825.63" y="-945" as="sourcePoint" />
          </mxGeometry>
        </mxCell>
        <mxCell id="zJTUNc1aB9DpV5R-l1gZ-39" value="True" style="edgeLabel;html=1;align=center;verticalAlign=middle;resizable=0;points=[];fontSize=13;" connectable="0" vertex="1" parent="zJTUNc1aB9DpV5R-l1gZ-38">
          <mxGeometry x="-0.1139" relative="1" as="geometry">
            <mxPoint as="offset" />
          </mxGeometry>
        </mxCell>
        <mxCell id="zJTUNc1aB9DpV5R-l1gZ-40" style="edgeStyle=none;curved=0;rounded=0;orthogonalLoop=1;jettySize=auto;html=1;fontSize=12;startSize=8;endSize=8;strokeWidth=2;exitX=0;exitY=0.5;exitDx=0;exitDy=0;entryX=0.5;entryY=0;entryDx=0;entryDy=0;" edge="1" parent="1" source="zJTUNc1aB9DpV5R-l1gZ-33" target="zJTUNc1aB9DpV5R-l1gZ-18">
          <mxGeometry relative="1" as="geometry">
            <mxPoint x="570" y="-860" as="targetPoint" />
            <mxPoint x="680" y="-1050" as="sourcePoint" />
            <Array as="points">
              <mxPoint x="480" y="-1056" />
            </Array>
          </mxGeometry>
        </mxCell>
        <mxCell id="zJTUNc1aB9DpV5R-l1gZ-41" value="&#39;Akun Berhasil Dibuat.&lt;div&gt;Silahkan Login&lt;span style=&quot;background-color: transparent; color: light-dark(rgb(0, 0, 0), rgb(255, 255, 255));&quot;&gt;&#39;&lt;/span&gt;&lt;/div&gt;" style="shape=parallelogram;perimeter=parallelogramPerimeter;whiteSpace=wrap;html=1;fixedSize=1;fillColor=none;strokeWidth=2;strokeColor=light-dark(#000000,#FFFFFF);" vertex="1" parent="1">
          <mxGeometry x="950" y="-928" width="226" height="60" as="geometry" />
        </mxCell>
        <mxCell id="zJTUNc1aB9DpV5R-l1gZ-42" value="" style="endArrow=classic;html=1;rounded=0;fontSize=12;startSize=8;endSize=8;curved=1;strokeColor=light-dark(#000000,#FFFFFF);strokeWidth=2;" edge="1" parent="1">
          <mxGeometry width="50" height="50" relative="1" as="geometry">
            <mxPoint x="1159" y="-878" as="sourcePoint" />
            <mxPoint x="1196" y="-878" as="targetPoint" />
          </mxGeometry>
        </mxCell>
        <mxCell id="zJTUNc1aB9DpV5R-l1gZ-43" value="" style="endArrow=none;html=1;rounded=0;fontSize=12;startSize=8;endSize=8;curved=0;strokeWidth=2;" edge="1" parent="1">
          <mxGeometry width="50" height="50" relative="1" as="geometry">
            <mxPoint x="1064" y="-928" as="sourcePoint" />
            <mxPoint x="480" y="-1050" as="targetPoint" />
            <Array as="points">
              <mxPoint x="1064" y="-1120" />
              <mxPoint x="480" y="-1120" />
            </Array>
          </mxGeometry>
        </mxCell>
        <mxCell id="zJTUNc1aB9DpV5R-l1gZ-45" value="&lt;div&gt;&lt;br&gt;&lt;/div&gt;if opsicust&amp;nbsp;&lt;div&gt;== 2&lt;/div&gt;" style="rhombus;whiteSpace=wrap;html=1;fillColor=none;strokeWidth=2;" vertex="1" parent="1">
          <mxGeometry x="1231" y="-510" width="82" height="80" as="geometry" />
        </mxCell>
        <mxCell id="zJTUNc1aB9DpV5R-l1gZ-46" style="edgeStyle=none;curved=1;rounded=0;orthogonalLoop=1;jettySize=auto;html=1;fontSize=12;startSize=8;endSize=8;strokeWidth=2;entryX=0;entryY=0.5;entryDx=0;entryDy=0;" edge="1" parent="1" target="PVNuIIhLE3hvlTbGoiD--20">
          <mxGeometry relative="1" as="geometry">
            <mxPoint x="1393" y="-470.28" as="targetPoint" />
            <mxPoint x="1313" y="-470.28" as="sourcePoint" />
          </mxGeometry>
        </mxCell>
        <mxCell id="zJTUNc1aB9DpV5R-l1gZ-48" style="edgeStyle=none;curved=1;rounded=0;orthogonalLoop=1;jettySize=auto;html=1;fontSize=12;startSize=8;endSize=8;strokeWidth=2;" edge="1" parent="1">
          <mxGeometry relative="1" as="geometry">
            <mxPoint x="1271.76" y="-590" as="targetPoint" />
            <mxPoint x="1271.76" y="-510" as="sourcePoint" />
          </mxGeometry>
        </mxCell>
        <mxCell id="zJTUNc1aB9DpV5R-l1gZ-49" value="True" style="edgeLabel;html=1;align=center;verticalAlign=middle;resizable=0;points=[];fontSize=12;" connectable="0" vertex="1" parent="zJTUNc1aB9DpV5R-l1gZ-48">
          <mxGeometry x="-0.1139" relative="1" as="geometry">
            <mxPoint as="offset" />
          </mxGeometry>
        </mxCell>
        <mxCell id="zJTUNc1aB9DpV5R-l1gZ-50" value="usernamecust" style="shape=parallelogram;perimeter=parallelogramPerimeter;whiteSpace=wrap;html=1;fixedSize=1;fillColor=none;strokeWidth=2;strokeColor=light-dark(#000000,#FFFFFF);" vertex="1" parent="1">
          <mxGeometry x="1214" y="-640" width="116" height="50" as="geometry" />
        </mxCell>
        <mxCell id="zJTUNc1aB9DpV5R-l1gZ-51" value="" style="endArrow=classic;html=1;rounded=0;fontSize=12;startSize=8;endSize=8;curved=1;strokeColor=light-dark(#000000,#FFFFFF);strokeWidth=2;" edge="1" parent="1">
          <mxGeometry width="50" height="50" relative="1" as="geometry">
            <mxPoint x="1192" y="-630" as="sourcePoint" />
            <mxPoint x="1229" y="-630" as="targetPoint" />
          </mxGeometry>
        </mxCell>
        <mxCell id="zJTUNc1aB9DpV5R-l1gZ-52" style="edgeStyle=none;curved=1;rounded=0;orthogonalLoop=1;jettySize=auto;html=1;fontSize=12;startSize=8;endSize=8;strokeWidth=2;" edge="1" parent="1">
          <mxGeometry relative="1" as="geometry">
            <mxPoint x="1271.76" y="-720" as="targetPoint" />
            <mxPoint x="1271.76" y="-640" as="sourcePoint" />
          </mxGeometry>
        </mxCell>
        <mxCell id="zJTUNc1aB9DpV5R-l1gZ-53" value="True" style="edgeLabel;html=1;align=center;verticalAlign=middle;resizable=0;points=[];fontSize=12;" connectable="0" vertex="1" parent="zJTUNc1aB9DpV5R-l1gZ-52">
          <mxGeometry x="-0.1139" relative="1" as="geometry">
            <mxPoint as="offset" />
          </mxGeometry>
        </mxCell>
        <mxCell id="zJTUNc1aB9DpV5R-l1gZ-54" value="passwordcust" style="shape=parallelogram;perimeter=parallelogramPerimeter;whiteSpace=wrap;html=1;fixedSize=1;fillColor=none;strokeWidth=2;strokeColor=light-dark(#000000,#FFFFFF);" vertex="1" parent="1">
          <mxGeometry x="1214" y="-770" width="116" height="50" as="geometry" />
        </mxCell>
        <mxCell id="zJTUNc1aB9DpV5R-l1gZ-55" value="" style="endArrow=classic;html=1;rounded=0;fontSize=12;startSize=8;endSize=8;curved=1;strokeColor=light-dark(#000000,#FFFFFF);strokeWidth=2;" edge="1" parent="1">
          <mxGeometry width="50" height="50" relative="1" as="geometry">
            <mxPoint x="1192" y="-760" as="sourcePoint" />
            <mxPoint x="1229" y="-760" as="targetPoint" />
          </mxGeometry>
        </mxCell>
        <mxCell id="zJTUNc1aB9DpV5R-l1gZ-56" value="&lt;div&gt;&lt;font style=&quot;font-size: 11px;&quot;&gt;&lt;br&gt;&lt;/font&gt;&lt;/div&gt;&lt;font&gt;if len(akuns)&amp;nbsp;&lt;/font&gt;&lt;div&gt;&lt;font&gt;== 0&lt;/font&gt;&lt;/div&gt;" style="rhombus;whiteSpace=wrap;html=1;fillColor=none;strokeWidth=2;" vertex="1" parent="1">
          <mxGeometry x="1221" y="-945" width="102" height="94" as="geometry" />
        </mxCell>
        <mxCell id="zJTUNc1aB9DpV5R-l1gZ-57" style="edgeStyle=none;curved=1;rounded=0;orthogonalLoop=1;jettySize=auto;html=1;fontSize=12;startSize=8;endSize=8;strokeWidth=2;" edge="1" parent="1">
          <mxGeometry relative="1" as="geometry">
            <mxPoint x="1271.58" y="-850" as="targetPoint" />
            <mxPoint x="1271.58" y="-770" as="sourcePoint" />
          </mxGeometry>
        </mxCell>
        <mxCell id="zJTUNc1aB9DpV5R-l1gZ-58" style="edgeStyle=none;curved=1;rounded=0;orthogonalLoop=1;jettySize=auto;html=1;fontSize=12;startSize=8;endSize=8;strokeWidth=2;entryX=0;entryY=0.5;entryDx=0;entryDy=0;" edge="1" parent="1" target="PVNuIIhLE3hvlTbGoiD--3">
          <mxGeometry relative="1" as="geometry">
            <mxPoint x="1403" y="-898.25" as="targetPoint" />
            <mxPoint x="1323" y="-898.25" as="sourcePoint" />
          </mxGeometry>
        </mxCell>
        <mxCell id="PVNuIIhLE3hvlTbGoiD--9" value="False" style="edgeLabel;html=1;align=center;verticalAlign=middle;resizable=0;points=[];fontSize=12;labelBackgroundColor=light-dark(#FFFFFF,#000000);" connectable="0" vertex="1" parent="zJTUNc1aB9DpV5R-l1gZ-58">
          <mxGeometry x="-0.6598" relative="1" as="geometry">
            <mxPoint as="offset" />
          </mxGeometry>
        </mxCell>
        <mxCell id="zJTUNc1aB9DpV5R-l1gZ-60" value="&#39;Akun Berhasil Dibuat.&lt;div&gt;Silahkan Login&lt;span style=&quot;background-color: transparent; color: light-dark(rgb(0, 0, 0), rgb(255, 255, 255));&quot;&gt;&#39;&lt;/span&gt;&lt;/div&gt;" style="shape=parallelogram;perimeter=parallelogramPerimeter;whiteSpace=wrap;html=1;fixedSize=1;fillColor=none;strokeWidth=2;strokeColor=light-dark(#000000,#FFFFFF);" vertex="1" parent="1">
          <mxGeometry x="1468" y="-680" width="226" height="60" as="geometry" />
        </mxCell>
        <mxCell id="zJTUNc1aB9DpV5R-l1gZ-61" value="" style="endArrow=classic;html=1;rounded=0;fontSize=12;startSize=8;endSize=8;curved=1;strokeColor=light-dark(#000000,#FFFFFF);strokeWidth=2;" edge="1" parent="1">
          <mxGeometry width="50" height="50" relative="1" as="geometry">
            <mxPoint x="1677" y="-630" as="sourcePoint" />
            <mxPoint x="1714" y="-630" as="targetPoint" />
          </mxGeometry>
        </mxCell>
        <mxCell id="zJTUNc1aB9DpV5R-l1gZ-63" style="edgeStyle=none;curved=1;rounded=0;orthogonalLoop=1;jettySize=auto;html=1;fontSize=12;startSize=8;endSize=8;strokeWidth=2;" edge="1" parent="1">
          <mxGeometry relative="1" as="geometry">
            <mxPoint x="1272" y="-1030" as="targetPoint" />
            <mxPoint x="1271.52" y="-945" as="sourcePoint" />
          </mxGeometry>
        </mxCell>
        <mxCell id="zJTUNc1aB9DpV5R-l1gZ-64" value="True" style="edgeLabel;html=1;align=center;verticalAlign=middle;resizable=0;points=[];fontSize=13;" connectable="0" vertex="1" parent="zJTUNc1aB9DpV5R-l1gZ-63">
          <mxGeometry x="-0.1139" relative="1" as="geometry">
            <mxPoint as="offset" />
          </mxGeometry>
        </mxCell>
        <mxCell id="zJTUNc1aB9DpV5R-l1gZ-67" value="&#39;Anda Belum Memiliki Akun&lt;div&gt;Silahkan Buat Akun Untuk Login&#39;&lt;/div&gt;" style="shape=parallelogram;perimeter=parallelogramPerimeter;whiteSpace=wrap;html=1;fixedSize=1;fillColor=none;strokeWidth=2;strokeColor=light-dark(#000000,#FFFFFF);" vertex="1" parent="1">
          <mxGeometry x="1160" y="-1091" width="226" height="60" as="geometry" />
        </mxCell>
        <mxCell id="zJTUNc1aB9DpV5R-l1gZ-68" value="" style="endArrow=classic;html=1;rounded=0;fontSize=12;startSize=8;endSize=8;curved=1;strokeColor=light-dark(#000000,#FFFFFF);strokeWidth=2;" edge="1" parent="1">
          <mxGeometry width="50" height="50" relative="1" as="geometry">
            <mxPoint x="1369" y="-1036" as="sourcePoint" />
            <mxPoint x="1406" y="-1036" as="targetPoint" />
          </mxGeometry>
        </mxCell>
        <mxCell id="zJTUNc1aB9DpV5R-l1gZ-70" value="" style="endArrow=none;html=1;rounded=0;fontSize=12;startSize=8;endSize=8;curved=0;strokeWidth=2;entryX=0.5;entryY=0;entryDx=0;entryDy=0;" edge="1" parent="1" target="zJTUNc1aB9DpV5R-l1gZ-67">
          <mxGeometry width="50" height="50" relative="1" as="geometry">
            <mxPoint x="1060" y="-1120" as="sourcePoint" />
            <mxPoint x="1250" y="-1120" as="targetPoint" />
            <Array as="points">
              <mxPoint x="1273" y="-1120" />
            </Array>
          </mxGeometry>
        </mxCell>
        <mxCell id="PVNuIIhLE3hvlTbGoiD--1" value="&lt;b&gt;&lt;font style=&quot;color: light-dark(rgb(0, 0, 0), rgb(230, 208, 222));&quot;&gt;A&lt;/font&gt;&lt;/b&gt;" style="shape=offPageConnector;whiteSpace=wrap;html=1;fillColor=light-dark(#E51400,#FF0000);size=0.2000000000000023;strokeWidth=2;strokeColor=#B20000;fontColor=#ffffff;" vertex="1" parent="1">
          <mxGeometry x="1783" y="-675" width="50" height="50" as="geometry" />
        </mxCell>
        <mxCell id="PVNuIIhLE3hvlTbGoiD--2" style="edgeStyle=none;curved=1;rounded=0;orthogonalLoop=1;jettySize=auto;html=1;fontSize=12;startSize=8;endSize=8;strokeWidth=2;entryX=0;entryY=0.5;entryDx=0;entryDy=0;" edge="1" parent="1" target="PVNuIIhLE3hvlTbGoiD--1">
          <mxGeometry relative="1" as="geometry">
            <mxPoint x="1764" y="-650.25" as="targetPoint" />
            <mxPoint x="1684" y="-650.25" as="sourcePoint" />
          </mxGeometry>
        </mxCell>
        <mxCell id="PVNuIIhLE3hvlTbGoiD--3" value="&lt;div&gt;&lt;span style=&quot;background-color: transparent; color: light-dark(rgb(0, 0, 0), rgb(255, 255, 255));&quot;&gt;&lt;font style=&quot;font-size: 11px;&quot;&gt;if usernamecust in akuns&amp;nbsp;&lt;/font&gt;&lt;/span&gt;&lt;/div&gt;&lt;div&gt;&lt;font style=&quot;font-size: 11px;&quot;&gt;&lt;span style=&quot;background-color: transparent; color: light-dark(rgb(0, 0, 0), rgb(255, 255, 255));&quot;&gt;and&amp;nbsp;&lt;/span&gt;&lt;span style=&quot;background-color: transparent; color: light-dark(rgb(0, 0, 0), rgb(255, 255, 255));&quot;&gt;[akuns]usernamecust == passwordcust&lt;/span&gt;&lt;/font&gt;&lt;/div&gt;" style="rhombus;whiteSpace=wrap;html=1;fillColor=none;strokeWidth=2;" vertex="1" parent="1">
          <mxGeometry x="1490" y="-973" width="180" height="150" as="geometry" />
        </mxCell>
        <mxCell id="PVNuIIhLE3hvlTbGoiD--7" value="&#39;Username Atau Password Salah&lt;div&gt;&lt;span style=&quot;background-color: transparent; color: light-dark(rgb(0, 0, 0), rgb(255, 255, 255));&quot;&gt;Silahkan Coba Lagi&#39;&lt;/span&gt;&lt;/div&gt;" style="shape=parallelogram;perimeter=parallelogramPerimeter;whiteSpace=wrap;html=1;fixedSize=1;fillColor=none;strokeWidth=2;strokeColor=light-dark(#000000,#FFFFFF);" vertex="1" parent="1">
          <mxGeometry x="1468" y="-1091" width="226" height="60" as="geometry" />
        </mxCell>
        <mxCell id="PVNuIIhLE3hvlTbGoiD--8" value="" style="endArrow=classic;html=1;rounded=0;fontSize=12;startSize=8;endSize=8;curved=1;strokeColor=light-dark(#000000,#FFFFFF);strokeWidth=2;" edge="1" parent="1">
          <mxGeometry width="50" height="50" relative="1" as="geometry">
            <mxPoint x="1677" y="-1041" as="sourcePoint" />
            <mxPoint x="1714" y="-1041" as="targetPoint" />
          </mxGeometry>
        </mxCell>
        <mxCell id="PVNuIIhLE3hvlTbGoiD--11" style="edgeStyle=none;curved=1;rounded=0;orthogonalLoop=1;jettySize=auto;html=1;fontSize=12;startSize=8;endSize=8;strokeWidth=2;exitX=0.5;exitY=1;exitDx=0;exitDy=0;" edge="1" parent="1" source="PVNuIIhLE3hvlTbGoiD--3">
          <mxGeometry relative="1" as="geometry">
            <mxPoint x="1580" y="-680" as="targetPoint" />
            <mxPoint x="1580" y="-810" as="sourcePoint" />
          </mxGeometry>
        </mxCell>
        <mxCell id="PVNuIIhLE3hvlTbGoiD--12" value="True" style="edgeLabel;html=1;align=center;verticalAlign=middle;resizable=0;points=[];fontSize=13;labelBackgroundColor=light-dark(#FFFFFF,#000000);" connectable="0" vertex="1" parent="PVNuIIhLE3hvlTbGoiD--11">
          <mxGeometry x="-0.2147" relative="1" as="geometry">
            <mxPoint y="-16" as="offset" />
          </mxGeometry>
        </mxCell>
        <mxCell id="PVNuIIhLE3hvlTbGoiD--15" value="" style="endArrow=none;html=1;rounded=0;fontSize=12;startSize=8;endSize=8;curved=0;strokeWidth=2;entryX=0.5;entryY=0;entryDx=0;entryDy=0;" edge="1" parent="1" target="PVNuIIhLE3hvlTbGoiD--7">
          <mxGeometry width="50" height="50" relative="1" as="geometry">
            <mxPoint x="1270" y="-1120" as="sourcePoint" />
            <mxPoint x="1580" y="-1090" as="targetPoint" />
            <Array as="points">
              <mxPoint x="1581" y="-1120" />
            </Array>
          </mxGeometry>
        </mxCell>
        <mxCell id="PVNuIIhLE3hvlTbGoiD--17" style="edgeStyle=none;curved=1;rounded=0;orthogonalLoop=1;jettySize=auto;html=1;fontSize=12;startSize=8;endSize=8;strokeWidth=2;exitX=0.5;exitY=0;exitDx=0;exitDy=0;" edge="1" parent="1">
          <mxGeometry relative="1" as="geometry">
            <mxPoint x="1580.6" y="-1031" as="targetPoint" />
            <mxPoint x="1580.75" y="-974" as="sourcePoint" />
          </mxGeometry>
        </mxCell>
        <mxCell id="PVNuIIhLE3hvlTbGoiD--19" value="False" style="edgeLabel;html=1;align=center;verticalAlign=middle;resizable=0;points=[];fontSize=13;" connectable="0" vertex="1" parent="1">
          <mxGeometry x="1581" y="1" as="geometry" />
        </mxCell>
        <mxCell id="PVNuIIhLE3hvlTbGoiD--20" value="&lt;div&gt;&lt;br&gt;&lt;/div&gt;if opsicust&lt;div&gt;&amp;nbsp;== 3&lt;/div&gt;" style="rhombus;whiteSpace=wrap;html=1;fillColor=none;strokeWidth=2;" vertex="1" parent="1">
          <mxGeometry x="1539" y="-510" width="82" height="80" as="geometry" />
        </mxCell>
        <mxCell id="PVNuIIhLE3hvlTbGoiD--24" value="&lt;font style=&quot;font-size: 10px;&quot;&gt;&lt;b&gt;&#39;Pilihan Tidak Valid! Silahkan&amp;nbsp;&lt;/b&gt;&lt;/font&gt;&lt;div&gt;&lt;font style=&quot;font-size: 10px;&quot;&gt;&lt;b&gt;Masukkan Pilihan Yang tersedia Di Menu&#39;&lt;/b&gt;&lt;/font&gt;&lt;/div&gt;" style="shape=parallelogram;perimeter=parallelogramPerimeter;whiteSpace=wrap;html=1;fixedSize=1;fillColor=none;strokeWidth=2;strokeColor=light-dark(#000000,#FFFFFF);" vertex="1" parent="1">
          <mxGeometry x="1787" y="-501" width="226" height="60" as="geometry" />
        </mxCell>
        <mxCell id="PVNuIIhLE3hvlTbGoiD--25" value="" style="endArrow=classic;html=1;rounded=0;fontSize=12;startSize=8;endSize=8;curved=1;strokeColor=light-dark(#000000,#FFFFFF);strokeWidth=2;" edge="1" parent="1">
          <mxGeometry width="50" height="50" relative="1" as="geometry">
            <mxPoint x="1996" y="-451" as="sourcePoint" />
            <mxPoint x="2033" y="-451" as="targetPoint" />
          </mxGeometry>
        </mxCell>
        <mxCell id="PVNuIIhLE3hvlTbGoiD--26" style="edgeStyle=none;curved=1;rounded=0;orthogonalLoop=1;jettySize=auto;html=1;fontSize=12;startSize=8;endSize=8;strokeWidth=2;" edge="1" parent="1" target="PVNuIIhLE3hvlTbGoiD--24">
          <mxGeometry relative="1" as="geometry">
            <mxPoint x="1729" y="-470.06" as="targetPoint" />
            <mxPoint x="1621" y="-470.34" as="sourcePoint" />
          </mxGeometry>
        </mxCell>
        <mxCell id="PVNuIIhLE3hvlTbGoiD--27" style="edgeStyle=none;curved=1;rounded=0;orthogonalLoop=1;jettySize=auto;html=1;fontSize=12;startSize=8;endSize=8;strokeWidth=2;entryX=0.5;entryY=0;entryDx=0;entryDy=0;" edge="1" parent="1" target="PVNuIIhLE3hvlTbGoiD--32">
          <mxGeometry relative="1" as="geometry">
            <mxPoint x="1581" y="-340" as="targetPoint" />
            <mxPoint x="1581" y="-430" as="sourcePoint" />
          </mxGeometry>
        </mxCell>
        <mxCell id="PVNuIIhLE3hvlTbGoiD--29" value="False" style="edgeLabel;html=1;align=center;verticalAlign=middle;resizable=0;points=[];fontSize=12;" connectable="0" vertex="1" parent="1">
          <mxGeometry x="1360" y="533" as="geometry">
            <mxPoint x="-6" y="-6" as="offset" />
          </mxGeometry>
        </mxCell>
        <mxCell id="PVNuIIhLE3hvlTbGoiD--32" value="&#39;Akun Berhasil Dibuat.&lt;div&gt;Silahkan Login&lt;span style=&quot;background-color: transparent; color: light-dark(rgb(0, 0, 0), rgb(255, 255, 255));&quot;&gt;&#39;&lt;/span&gt;&lt;/div&gt;" style="shape=parallelogram;perimeter=parallelogramPerimeter;whiteSpace=wrap;html=1;fixedSize=1;fillColor=none;strokeWidth=2;strokeColor=light-dark(#000000,#FFFFFF);" vertex="1" parent="1">
          <mxGeometry x="1468" y="-360" width="226" height="60" as="geometry" />
        </mxCell>
        <mxCell id="PVNuIIhLE3hvlTbGoiD--33" value="" style="endArrow=classic;html=1;rounded=0;fontSize=12;startSize=8;endSize=8;curved=1;strokeColor=light-dark(#000000,#FFFFFF);strokeWidth=2;" edge="1" parent="1">
          <mxGeometry width="50" height="50" relative="1" as="geometry">
            <mxPoint x="1677" y="-310" as="sourcePoint" />
            <mxPoint x="1714" y="-310" as="targetPoint" />
          </mxGeometry>
        </mxCell>
        <mxCell id="PVNuIIhLE3hvlTbGoiD--34" value="" style="endArrow=none;html=1;rounded=0;fontSize=12;startSize=8;endSize=8;curved=0;strokeWidth=2;entryX=0.5;entryY=0;entryDx=0;entryDy=0;" edge="1" parent="1">
          <mxGeometry width="50" height="50" relative="1" as="geometry">
            <mxPoint x="1570" y="-1120" as="sourcePoint" />
            <mxPoint x="1900" y="-501" as="targetPoint" />
            <Array as="points">
              <mxPoint x="1900" y="-1120" />
            </Array>
          </mxGeometry>
        </mxCell>
        <mxCell id="PVNuIIhLE3hvlTbGoiD--35" value="" style="endArrow=classic;html=1;rounded=0;fontSize=12;startSize=8;endSize=8;curved=0;strokeColor=light-dark(#000000,#FFFFFF);strokeWidth=2;entryX=0.5;entryY=1;entryDx=0;entryDy=0;exitX=0;exitY=0.5;exitDx=0;exitDy=0;" edge="1" parent="1" source="PVNuIIhLE3hvlTbGoiD--32" target="zJTUNc1aB9DpV5R-l1gZ-18">
          <mxGeometry width="50" height="50" relative="1" as="geometry">
            <mxPoint x="520" y="-390" as="sourcePoint" />
            <mxPoint x="557" y="-390" as="targetPoint" />
            <Array as="points">
              <mxPoint x="480" y="-330" />
            </Array>
          </mxGeometry>
        </mxCell>
        <mxCell id="PVNuIIhLE3hvlTbGoiD--45" style="edgeStyle=none;curved=1;rounded=0;orthogonalLoop=1;jettySize=auto;html=1;fontSize=12;startSize=8;endSize=8;strokeWidth=2;entryX=0.5;entryY=0;entryDx=0;entryDy=0;" edge="1" parent="1" target="PVNuIIhLE3hvlTbGoiD--118">
          <mxGeometry relative="1" as="geometry">
            <mxPoint x="300" y="497" as="targetPoint" />
            <mxPoint x="299" y="580" as="sourcePoint" />
          </mxGeometry>
        </mxCell>
        <mxCell id="PVNuIIhLE3hvlTbGoiD--46" value="&lt;span style=&quot;color: rgba(0, 0, 0, 0); font-family: monospace; font-size: 0px; text-align: start; background-color: rgb(27, 29, 30);&quot;&gt;FF%3CmxGraphModel%3E%3Croot%3E%3CmxCell%20id%3D%220%22%2F%3E%3CmxCell%20id%3D%221%22%20parent%3D%220%22%2F%3E%3CmxCell%20id%3D%222%22%20value%3D%22False%22%20style%3D%22edgeLabel%3Bhtml%3D1%3Balign%3Dcenter%3BverticalAlign%3Dmiddle%3Bresizable%3D0%3Bpoints%3D%5B%5D%3BfontSize%3D11%3BlabelBackgroundColor%3Dlight-dark(%23FFFFFF%2C%23000000)%3B%22%20connectable%3D%220%22%20vertex%3D%221%22%20parent%3D%221%22%3E%3CmxGeometry%20x%3D%2269.60000000000002%22%20y%3D%22530%22%20as%3D%22geometry%22%2F%3E%3C%2FmxCell%3E%3C%2Froot%3E%3C%2FmxGraphModel%3EFas&lt;/span&gt;" style="edgeLabel;html=1;align=center;verticalAlign=middle;resizable=0;points=[];fontSize=12;" connectable="0" vertex="1" parent="PVNuIIhLE3hvlTbGoiD--45">
          <mxGeometry x="-0.1416" y="-1" relative="1" as="geometry">
            <mxPoint as="offset" />
          </mxGeometry>
        </mxCell>
        <mxCell id="PVNuIIhLE3hvlTbGoiD--48" style="edgeStyle=none;curved=1;rounded=0;orthogonalLoop=1;jettySize=auto;html=1;fontSize=12;startSize=8;endSize=8;strokeWidth=2;" edge="1" parent="1">
          <mxGeometry relative="1" as="geometry">
            <mxPoint x="420" y="531" as="targetPoint" />
            <mxPoint x="340" y="531" as="sourcePoint" />
          </mxGeometry>
        </mxCell>
        <mxCell id="PVNuIIhLE3hvlTbGoiD--49" value="True" style="edgeLabel;html=1;align=center;verticalAlign=middle;resizable=0;points=[];fontSize=13;labelBackgroundColor=light-dark(#FFFFFF,#000000);" connectable="0" vertex="1" parent="PVNuIIhLE3hvlTbGoiD--48">
          <mxGeometry x="-0.2147" relative="1" as="geometry">
            <mxPoint x="-1" y="-2" as="offset" />
          </mxGeometry>
        </mxCell>
        <mxCell id="PVNuIIhLE3hvlTbGoiD--50" value="&lt;div&gt;&lt;br&gt;&lt;/div&gt;if opsilogin&lt;div&gt;&amp;nbsp;== 2&lt;/div&gt;" style="rhombus;whiteSpace=wrap;html=1;fillColor=none;strokeWidth=2;" vertex="1" parent="1">
          <mxGeometry x="258" y="490" width="82" height="80" as="geometry" />
        </mxCell>
        <mxCell id="PVNuIIhLE3hvlTbGoiD--51" value="&lt;div style=&quot;line-height: 100%;&quot;&gt;&lt;div&gt;&lt;font style=&quot;font-size: 11px;&quot;&gt;&lt;br&gt;&lt;/font&gt;&lt;/div&gt;&lt;font style=&quot;font-size: 11px; line-height: 100%;&quot;&gt;if opsiadmin&amp;nbsp;&lt;/font&gt;&lt;div&gt;&lt;font style=&quot;font-size: 11px; line-height: 100%;&quot;&gt;== 1&lt;/font&gt;&lt;/div&gt;&lt;/div&gt;" style="rhombus;whiteSpace=wrap;html=1;fillColor=none;strokeWidth=2;" vertex="1" parent="1">
          <mxGeometry x="785" y="489" width="82" height="80" as="geometry" />
        </mxCell>
        <mxCell id="PVNuIIhLE3hvlTbGoiD--52" value="opsiadmin" style="shape=parallelogram;perimeter=parallelogramPerimeter;whiteSpace=wrap;html=1;fixedSize=1;fillColor=none;strokeWidth=2;strokeColor=light-dark(#000000,#FFFFFF);" vertex="1" parent="1">
          <mxGeometry x="612" y="504" width="102" height="50" as="geometry" />
        </mxCell>
        <mxCell id="PVNuIIhLE3hvlTbGoiD--53" value="" style="endArrow=classic;html=1;rounded=0;fontSize=12;startSize=8;endSize=8;curved=1;strokeColor=light-dark(#000000,#FFFFFF);strokeWidth=2;" edge="1" parent="1">
          <mxGeometry width="50" height="50" relative="1" as="geometry">
            <mxPoint x="590" y="514" as="sourcePoint" />
            <mxPoint x="627" y="514" as="targetPoint" />
          </mxGeometry>
        </mxCell>
        <mxCell id="PVNuIIhLE3hvlTbGoiD--54" style="edgeStyle=none;curved=1;rounded=0;orthogonalLoop=1;jettySize=auto;html=1;fontSize=12;startSize=8;endSize=8;strokeWidth=2;" edge="1" parent="1">
          <mxGeometry relative="1" as="geometry">
            <mxPoint x="785" y="528.74" as="targetPoint" />
            <mxPoint x="705" y="528.74" as="sourcePoint" />
          </mxGeometry>
        </mxCell>
        <mxCell id="PVNuIIhLE3hvlTbGoiD--55" style="edgeStyle=none;curved=1;rounded=0;orthogonalLoop=1;jettySize=auto;html=1;fontSize=12;startSize=8;endSize=8;strokeWidth=2;entryX=0;entryY=0.5;entryDx=0;entryDy=0;" edge="1" parent="1" target="PVNuIIhLE3hvlTbGoiD--78">
          <mxGeometry relative="1" as="geometry">
            <mxPoint x="947" y="528.72" as="targetPoint" />
            <mxPoint x="867" y="528.72" as="sourcePoint" />
          </mxGeometry>
        </mxCell>
        <mxCell id="PVNuIIhLE3hvlTbGoiD--56" value="False" style="edgeLabel;html=1;align=center;verticalAlign=middle;resizable=0;points=[];fontSize=13;" connectable="0" vertex="1" parent="PVNuIIhLE3hvlTbGoiD--55">
          <mxGeometry x="-0.7817" y="-1" relative="1" as="geometry">
            <mxPoint x="3" y="-1" as="offset" />
          </mxGeometry>
        </mxCell>
        <mxCell id="PVNuIIhLE3hvlTbGoiD--57" style="edgeStyle=none;curved=1;rounded=0;orthogonalLoop=1;jettySize=auto;html=1;fontSize=12;startSize=8;endSize=8;strokeWidth=2;" edge="1" parent="1">
          <mxGeometry relative="1" as="geometry">
            <mxPoint x="825.76" y="409" as="targetPoint" />
            <mxPoint x="825.76" y="489" as="sourcePoint" />
          </mxGeometry>
        </mxCell>
        <mxCell id="PVNuIIhLE3hvlTbGoiD--58" value="True" style="edgeLabel;html=1;align=center;verticalAlign=middle;resizable=0;points=[];fontSize=13;" connectable="0" vertex="1" parent="PVNuIIhLE3hvlTbGoiD--57">
          <mxGeometry x="-0.1139" relative="1" as="geometry">
            <mxPoint as="offset" />
          </mxGeometry>
        </mxCell>
        <mxCell id="PVNuIIhLE3hvlTbGoiD--59" value="username" style="shape=parallelogram;perimeter=parallelogramPerimeter;whiteSpace=wrap;html=1;fixedSize=1;fillColor=none;strokeWidth=2;strokeColor=light-dark(#000000,#FFFFFF);" vertex="1" parent="1">
          <mxGeometry x="772" y="359" width="108" height="50" as="geometry" />
        </mxCell>
        <mxCell id="PVNuIIhLE3hvlTbGoiD--60" value="" style="endArrow=classic;html=1;rounded=0;fontSize=12;startSize=8;endSize=8;curved=1;strokeColor=light-dark(#000000,#FFFFFF);strokeWidth=2;" edge="1" parent="1">
          <mxGeometry width="50" height="50" relative="1" as="geometry">
            <mxPoint x="750" y="369" as="sourcePoint" />
            <mxPoint x="787" y="369" as="targetPoint" />
          </mxGeometry>
        </mxCell>
        <mxCell id="PVNuIIhLE3hvlTbGoiD--61" value="&lt;font style=&quot;font-size: 13px; color: light-dark(rgb(0, 0, 0), rgb(249, 249, 249));&quot;&gt;Menu&amp;nbsp; Admin&lt;/font&gt;" style="rounded=1;whiteSpace=wrap;html=1;fillColor=none;strokeColor=light-dark(#000000,#FFFFFF);strokeWidth=2;" vertex="1" parent="1">
          <mxGeometry x="420" y="499" width="120" height="60" as="geometry" />
        </mxCell>
        <mxCell id="PVNuIIhLE3hvlTbGoiD--62" style="edgeStyle=none;curved=1;rounded=0;orthogonalLoop=1;jettySize=auto;html=1;fontSize=12;startSize=8;endSize=8;strokeWidth=2;" edge="1" parent="1">
          <mxGeometry relative="1" as="geometry">
            <mxPoint x="620" y="528.8199999999999" as="targetPoint" />
            <mxPoint x="540" y="528.8199999999999" as="sourcePoint" />
          </mxGeometry>
        </mxCell>
        <mxCell id="PVNuIIhLE3hvlTbGoiD--63" style="edgeStyle=none;curved=1;rounded=0;orthogonalLoop=1;jettySize=auto;html=1;fontSize=12;startSize=8;endSize=8;strokeWidth=2;" edge="1" parent="1">
          <mxGeometry relative="1" as="geometry">
            <mxPoint x="825.76" y="279" as="targetPoint" />
            <mxPoint x="825.76" y="359" as="sourcePoint" />
          </mxGeometry>
        </mxCell>
        <mxCell id="PVNuIIhLE3hvlTbGoiD--65" value="" style="endArrow=classic;html=1;rounded=0;fontSize=12;startSize=8;endSize=8;curved=1;strokeColor=light-dark(#000000,#FFFFFF);strokeWidth=2;" edge="1" parent="1">
          <mxGeometry width="50" height="50" relative="1" as="geometry">
            <mxPoint x="751" y="239" as="sourcePoint" />
            <mxPoint x="788" y="239" as="targetPoint" />
          </mxGeometry>
        </mxCell>
        <mxCell id="PVNuIIhLE3hvlTbGoiD--66" value="&lt;font style=&quot;font-size: 11px;&quot;&gt;if username&lt;/font&gt;&lt;div&gt;&lt;font style=&quot;font-size: 11px;&quot;&gt;in akunadmin&lt;/font&gt;&lt;/div&gt;" style="rhombus;whiteSpace=wrap;html=1;fillColor=none;strokeWidth=2;" vertex="1" parent="1">
          <mxGeometry x="775" y="54" width="102" height="94" as="geometry" />
        </mxCell>
        <mxCell id="PVNuIIhLE3hvlTbGoiD--67" style="edgeStyle=none;curved=1;rounded=0;orthogonalLoop=1;jettySize=auto;html=1;fontSize=12;startSize=8;endSize=8;strokeWidth=2;" edge="1" parent="1" source="PVNuIIhLE3hvlTbGoiD--64">
          <mxGeometry relative="1" as="geometry">
            <mxPoint x="825.58" y="149" as="targetPoint" />
            <mxPoint x="825.58" y="229" as="sourcePoint" />
          </mxGeometry>
        </mxCell>
        <mxCell id="PVNuIIhLE3hvlTbGoiD--68" style="edgeStyle=none;curved=1;rounded=0;orthogonalLoop=1;jettySize=auto;html=1;fontSize=12;startSize=8;endSize=8;strokeWidth=2;" edge="1" parent="1">
          <mxGeometry relative="1" as="geometry">
            <mxPoint x="957" y="100.75" as="targetPoint" />
            <mxPoint x="877" y="100.75" as="sourcePoint" />
          </mxGeometry>
        </mxCell>
        <mxCell id="PVNuIIhLE3hvlTbGoiD--69" value="False" style="edgeLabel;html=1;align=center;verticalAlign=middle;resizable=0;points=[];fontSize=13;labelBackgroundColor=light-dark(#FFFFFF,#000000);" connectable="0" vertex="1" parent="PVNuIIhLE3hvlTbGoiD--68">
          <mxGeometry x="-0.2147" relative="1" as="geometry">
            <mxPoint x="-1" as="offset" />
          </mxGeometry>
        </mxCell>
        <mxCell id="PVNuIIhLE3hvlTbGoiD--70" value="&#39;Username Sudah Digunakan&lt;div&gt;Silahkan Gunakan Username Lain&#39;&lt;/div&gt;" style="shape=parallelogram;perimeter=parallelogramPerimeter;whiteSpace=wrap;html=1;fixedSize=1;fillColor=none;strokeWidth=2;strokeColor=light-dark(#000000,#FFFFFF);" vertex="1" parent="1">
          <mxGeometry x="714" y="-87" width="226" height="60" as="geometry" />
        </mxCell>
        <mxCell id="PVNuIIhLE3hvlTbGoiD--71" value="" style="endArrow=classic;html=1;rounded=0;fontSize=12;startSize=8;endSize=8;curved=1;strokeColor=light-dark(#000000,#FFFFFF);strokeWidth=2;" edge="1" parent="1">
          <mxGeometry width="50" height="50" relative="1" as="geometry">
            <mxPoint x="923" y="-37" as="sourcePoint" />
            <mxPoint x="960" y="-37" as="targetPoint" />
          </mxGeometry>
        </mxCell>
        <mxCell id="PVNuIIhLE3hvlTbGoiD--72" style="edgeStyle=none;curved=1;rounded=0;orthogonalLoop=1;jettySize=auto;html=1;fontSize=12;startSize=8;endSize=8;strokeWidth=2;" edge="1" parent="1">
          <mxGeometry relative="1" as="geometry">
            <mxPoint x="825.63" y="-26" as="targetPoint" />
            <mxPoint x="825.63" y="54" as="sourcePoint" />
          </mxGeometry>
        </mxCell>
        <mxCell id="PVNuIIhLE3hvlTbGoiD--73" value="True" style="edgeLabel;html=1;align=center;verticalAlign=middle;resizable=0;points=[];fontSize=13;" connectable="0" vertex="1" parent="PVNuIIhLE3hvlTbGoiD--72">
          <mxGeometry x="-0.1139" relative="1" as="geometry">
            <mxPoint as="offset" />
          </mxGeometry>
        </mxCell>
        <mxCell id="PVNuIIhLE3hvlTbGoiD--74" style="edgeStyle=none;curved=0;rounded=0;orthogonalLoop=1;jettySize=auto;html=1;fontSize=12;startSize=8;endSize=8;strokeWidth=2;exitX=0;exitY=0.5;exitDx=0;exitDy=0;entryX=0.5;entryY=0;entryDx=0;entryDy=0;" edge="1" parent="1" source="PVNuIIhLE3hvlTbGoiD--70" target="PVNuIIhLE3hvlTbGoiD--61">
          <mxGeometry relative="1" as="geometry">
            <mxPoint x="570" y="139" as="targetPoint" />
            <mxPoint x="680" y="-51" as="sourcePoint" />
            <Array as="points">
              <mxPoint x="480" y="-57" />
            </Array>
          </mxGeometry>
        </mxCell>
        <mxCell id="PVNuIIhLE3hvlTbGoiD--75" value="&#39;Akun Berhasil Dibuat.&lt;div&gt;Silahkan Login&lt;span style=&quot;background-color: transparent; color: light-dark(rgb(0, 0, 0), rgb(255, 255, 255));&quot;&gt;&#39;&lt;/span&gt;&lt;/div&gt;" style="shape=parallelogram;perimeter=parallelogramPerimeter;whiteSpace=wrap;html=1;fixedSize=1;fillColor=none;strokeWidth=2;strokeColor=light-dark(#000000,#FFFFFF);" vertex="1" parent="1">
          <mxGeometry x="950" y="71" width="226" height="60" as="geometry" />
        </mxCell>
        <mxCell id="PVNuIIhLE3hvlTbGoiD--76" value="" style="endArrow=classic;html=1;rounded=0;fontSize=12;startSize=8;endSize=8;curved=1;strokeColor=light-dark(#000000,#FFFFFF);strokeWidth=2;" edge="1" parent="1">
          <mxGeometry width="50" height="50" relative="1" as="geometry">
            <mxPoint x="1159" y="121" as="sourcePoint" />
            <mxPoint x="1196" y="121" as="targetPoint" />
          </mxGeometry>
        </mxCell>
        <mxCell id="PVNuIIhLE3hvlTbGoiD--77" value="" style="endArrow=none;html=1;rounded=0;fontSize=12;startSize=8;endSize=8;curved=0;strokeWidth=2;" edge="1" parent="1">
          <mxGeometry width="50" height="50" relative="1" as="geometry">
            <mxPoint x="1064" y="71" as="sourcePoint" />
            <mxPoint x="480" y="-51" as="targetPoint" />
            <Array as="points">
              <mxPoint x="1064" y="-121" />
              <mxPoint x="480" y="-121" />
            </Array>
          </mxGeometry>
        </mxCell>
        <mxCell id="PVNuIIhLE3hvlTbGoiD--80" style="edgeStyle=none;curved=1;rounded=0;orthogonalLoop=1;jettySize=auto;html=1;fontSize=12;startSize=8;endSize=8;strokeWidth=2;" edge="1" parent="1">
          <mxGeometry relative="1" as="geometry">
            <mxPoint x="1271.76" y="409" as="targetPoint" />
            <mxPoint x="1271.76" y="489" as="sourcePoint" />
          </mxGeometry>
        </mxCell>
        <mxCell id="PVNuIIhLE3hvlTbGoiD--81" value="True" style="edgeLabel;html=1;align=center;verticalAlign=middle;resizable=0;points=[];fontSize=12;" connectable="0" vertex="1" parent="PVNuIIhLE3hvlTbGoiD--80">
          <mxGeometry x="-0.1139" relative="1" as="geometry">
            <mxPoint as="offset" />
          </mxGeometry>
        </mxCell>
        <mxCell id="PVNuIIhLE3hvlTbGoiD--82" value="usernameadmin" style="shape=parallelogram;perimeter=parallelogramPerimeter;whiteSpace=wrap;html=1;fixedSize=1;fillColor=none;strokeWidth=2;strokeColor=light-dark(#000000,#FFFFFF);" vertex="1" parent="1">
          <mxGeometry x="1204" y="359" width="136" height="50" as="geometry" />
        </mxCell>
        <mxCell id="PVNuIIhLE3hvlTbGoiD--83" value="" style="endArrow=classic;html=1;rounded=0;fontSize=12;startSize=8;endSize=8;curved=1;strokeColor=light-dark(#000000,#FFFFFF);strokeWidth=2;" edge="1" parent="1">
          <mxGeometry width="50" height="50" relative="1" as="geometry">
            <mxPoint x="1183" y="369" as="sourcePoint" />
            <mxPoint x="1220" y="369" as="targetPoint" />
          </mxGeometry>
        </mxCell>
        <mxCell id="PVNuIIhLE3hvlTbGoiD--84" style="edgeStyle=none;curved=1;rounded=0;orthogonalLoop=1;jettySize=auto;html=1;fontSize=12;startSize=8;endSize=8;strokeWidth=2;" edge="1" parent="1">
          <mxGeometry relative="1" as="geometry">
            <mxPoint x="1271.76" y="279" as="targetPoint" />
            <mxPoint x="1271.76" y="359" as="sourcePoint" />
          </mxGeometry>
        </mxCell>
        <mxCell id="PVNuIIhLE3hvlTbGoiD--86" value="passwordadmin" style="shape=parallelogram;perimeter=parallelogramPerimeter;whiteSpace=wrap;html=1;fixedSize=1;fillColor=none;strokeWidth=2;strokeColor=light-dark(#000000,#FFFFFF);" vertex="1" parent="1">
          <mxGeometry x="1204" y="229" width="136" height="50" as="geometry" />
        </mxCell>
        <mxCell id="PVNuIIhLE3hvlTbGoiD--87" value="" style="endArrow=classic;html=1;rounded=0;fontSize=12;startSize=8;endSize=8;curved=1;strokeColor=light-dark(#000000,#FFFFFF);strokeWidth=2;" edge="1" parent="1">
          <mxGeometry width="50" height="50" relative="1" as="geometry">
            <mxPoint x="1183" y="239" as="sourcePoint" />
            <mxPoint x="1220" y="239" as="targetPoint" />
          </mxGeometry>
        </mxCell>
        <mxCell id="PVNuIIhLE3hvlTbGoiD--88" value="&lt;div&gt;&lt;font style=&quot;font-size: 11px;&quot;&gt;&lt;br&gt;&lt;/font&gt;&lt;/div&gt;&lt;font style=&quot;font-size: 11px;&quot;&gt;if len(akunadmin)&amp;nbsp;&lt;/font&gt;&lt;div&gt;&lt;font style=&quot;font-size: 11px;&quot;&gt;== 0&lt;/font&gt;&lt;/div&gt;" style="rhombus;whiteSpace=wrap;html=1;fillColor=none;strokeWidth=2;" vertex="1" parent="1">
          <mxGeometry x="1221" y="54" width="102" height="94" as="geometry" />
        </mxCell>
        <mxCell id="PVNuIIhLE3hvlTbGoiD--89" style="edgeStyle=none;curved=1;rounded=0;orthogonalLoop=1;jettySize=auto;html=1;fontSize=12;startSize=8;endSize=8;strokeWidth=2;" edge="1" parent="1">
          <mxGeometry relative="1" as="geometry">
            <mxPoint x="1271.58" y="149" as="targetPoint" />
            <mxPoint x="1271.58" y="229" as="sourcePoint" />
          </mxGeometry>
        </mxCell>
        <mxCell id="PVNuIIhLE3hvlTbGoiD--90" style="edgeStyle=none;curved=1;rounded=0;orthogonalLoop=1;jettySize=auto;html=1;fontSize=12;startSize=8;endSize=8;strokeWidth=2;entryX=0;entryY=0.5;entryDx=0;entryDy=0;" edge="1" parent="1" target="PVNuIIhLE3hvlTbGoiD--101">
          <mxGeometry relative="1" as="geometry">
            <mxPoint x="1403" y="100.75" as="targetPoint" />
            <mxPoint x="1323" y="100.75" as="sourcePoint" />
          </mxGeometry>
        </mxCell>
        <mxCell id="PVNuIIhLE3hvlTbGoiD--91" value="False" style="edgeLabel;html=1;align=center;verticalAlign=middle;resizable=0;points=[];fontSize=12;labelBackgroundColor=light-dark(#FFFFFF,#000000);" connectable="0" vertex="1" parent="PVNuIIhLE3hvlTbGoiD--90">
          <mxGeometry x="-0.6598" relative="1" as="geometry">
            <mxPoint as="offset" />
          </mxGeometry>
        </mxCell>
        <mxCell id="PVNuIIhLE3hvlTbGoiD--92" value="&#39;Akun Berhasil Dibuat.&lt;div&gt;Silahkan Login&lt;span style=&quot;background-color: transparent; color: light-dark(rgb(0, 0, 0), rgb(255, 255, 255));&quot;&gt;&#39;&lt;/span&gt;&lt;/div&gt;" style="shape=parallelogram;perimeter=parallelogramPerimeter;whiteSpace=wrap;html=1;fixedSize=1;fillColor=none;strokeWidth=2;strokeColor=light-dark(#000000,#FFFFFF);" vertex="1" parent="1">
          <mxGeometry x="1468" y="319" width="226" height="60" as="geometry" />
        </mxCell>
        <mxCell id="PVNuIIhLE3hvlTbGoiD--93" value="" style="endArrow=classic;html=1;rounded=0;fontSize=12;startSize=8;endSize=8;curved=1;strokeColor=light-dark(#000000,#FFFFFF);strokeWidth=2;" edge="1" parent="1">
          <mxGeometry width="50" height="50" relative="1" as="geometry">
            <mxPoint x="1677" y="369" as="sourcePoint" />
            <mxPoint x="1714" y="369" as="targetPoint" />
          </mxGeometry>
        </mxCell>
        <mxCell id="PVNuIIhLE3hvlTbGoiD--94" style="edgeStyle=none;curved=1;rounded=0;orthogonalLoop=1;jettySize=auto;html=1;fontSize=12;startSize=8;endSize=8;strokeWidth=2;" edge="1" parent="1">
          <mxGeometry relative="1" as="geometry">
            <mxPoint x="1272" y="-31" as="targetPoint" />
            <mxPoint x="1271.52" y="54" as="sourcePoint" />
          </mxGeometry>
        </mxCell>
        <mxCell id="PVNuIIhLE3hvlTbGoiD--95" value="True" style="edgeLabel;html=1;align=center;verticalAlign=middle;resizable=0;points=[];fontSize=13;" connectable="0" vertex="1" parent="PVNuIIhLE3hvlTbGoiD--94">
          <mxGeometry x="-0.1139" relative="1" as="geometry">
            <mxPoint as="offset" />
          </mxGeometry>
        </mxCell>
        <mxCell id="PVNuIIhLE3hvlTbGoiD--96" value="&#39;Anda Belum Memiliki Akun&lt;div&gt;Silahkan Buat Akun Untuk Login&#39;&lt;/div&gt;" style="shape=parallelogram;perimeter=parallelogramPerimeter;whiteSpace=wrap;html=1;fixedSize=1;fillColor=none;strokeWidth=2;strokeColor=light-dark(#000000,#FFFFFF);" vertex="1" parent="1">
          <mxGeometry x="1160" y="-92" width="226" height="60" as="geometry" />
        </mxCell>
        <mxCell id="PVNuIIhLE3hvlTbGoiD--97" value="" style="endArrow=classic;html=1;rounded=0;fontSize=12;startSize=8;endSize=8;curved=1;strokeColor=light-dark(#000000,#FFFFFF);strokeWidth=2;" edge="1" parent="1">
          <mxGeometry width="50" height="50" relative="1" as="geometry">
            <mxPoint x="1369" y="-37" as="sourcePoint" />
            <mxPoint x="1406" y="-37" as="targetPoint" />
          </mxGeometry>
        </mxCell>
        <mxCell id="PVNuIIhLE3hvlTbGoiD--98" value="" style="endArrow=none;html=1;rounded=0;fontSize=12;startSize=8;endSize=8;curved=0;strokeWidth=2;entryX=0.5;entryY=0;entryDx=0;entryDy=0;" edge="1" parent="1" target="PVNuIIhLE3hvlTbGoiD--96">
          <mxGeometry width="50" height="50" relative="1" as="geometry">
            <mxPoint x="1060" y="-121" as="sourcePoint" />
            <mxPoint x="1250" y="-121" as="targetPoint" />
            <Array as="points">
              <mxPoint x="1273" y="-121" />
            </Array>
          </mxGeometry>
        </mxCell>
        <mxCell id="PVNuIIhLE3hvlTbGoiD--99" value="&lt;b&gt;&lt;font style=&quot;color: light-dark(rgb(0, 0, 0), rgb(0, 0, 0));&quot;&gt;B&lt;/font&gt;&lt;/b&gt;" style="shape=offPageConnector;whiteSpace=wrap;html=1;fillColor=#fa6800;size=0.2000000000000023;strokeWidth=2;fontColor=#000000;strokeColor=#C73500;" vertex="1" parent="1">
          <mxGeometry x="1783" y="324" width="50" height="50" as="geometry" />
        </mxCell>
        <mxCell id="PVNuIIhLE3hvlTbGoiD--100" style="edgeStyle=none;curved=1;rounded=0;orthogonalLoop=1;jettySize=auto;html=1;fontSize=12;startSize=8;endSize=8;strokeWidth=2;entryX=0;entryY=0.5;entryDx=0;entryDy=0;" edge="1" parent="1" target="PVNuIIhLE3hvlTbGoiD--99">
          <mxGeometry relative="1" as="geometry">
            <mxPoint x="1764" y="348.75" as="targetPoint" />
            <mxPoint x="1684" y="348.75" as="sourcePoint" />
          </mxGeometry>
        </mxCell>
        <mxCell id="PVNuIIhLE3hvlTbGoiD--101" value="&lt;div&gt;&lt;span style=&quot;background-color: transparent; color: light-dark(rgb(0, 0, 0), rgb(255, 255, 255));&quot;&gt;&lt;font style=&quot;font-size: 11px;&quot;&gt;if usernameadmin in&amp;nbsp;&lt;/font&gt;&lt;/span&gt;&lt;span style=&quot;font-size: 11px; background-color: transparent; color: light-dark(rgb(0, 0, 0), rgb(255, 255, 255));&quot;&gt;akunadmin&amp;nbsp;&lt;/span&gt;&lt;/div&gt;&lt;div&gt;&lt;span style=&quot;font-size: 11px; background-color: transparent; color: light-dark(rgb(0, 0, 0), rgb(255, 255, 255));&quot;&gt;and&amp;nbsp;&lt;/span&gt;&lt;span style=&quot;font-size: 11px; background-color: transparent; color: light-dark(rgb(0, 0, 0), rgb(255, 255, 255));&quot;&gt;[akunadmin]usernameadmin == passwordadmin&lt;/span&gt;&lt;/div&gt;" style="rhombus;whiteSpace=wrap;html=1;fillColor=none;strokeWidth=2;" vertex="1" parent="1">
          <mxGeometry x="1460" y="26" width="240" height="150" as="geometry" />
        </mxCell>
        <mxCell id="PVNuIIhLE3hvlTbGoiD--102" value="&#39;Username Atau Password Salah&lt;div&gt;&lt;span style=&quot;background-color: transparent; color: light-dark(rgb(0, 0, 0), rgb(255, 255, 255));&quot;&gt;Silahkan Coba Lagi&#39;&lt;/span&gt;&lt;/div&gt;" style="shape=parallelogram;perimeter=parallelogramPerimeter;whiteSpace=wrap;html=1;fixedSize=1;fillColor=none;strokeWidth=2;strokeColor=light-dark(#000000,#FFFFFF);" vertex="1" parent="1">
          <mxGeometry x="1468" y="-92" width="226" height="60" as="geometry" />
        </mxCell>
        <mxCell id="PVNuIIhLE3hvlTbGoiD--103" value="" style="endArrow=classic;html=1;rounded=0;fontSize=12;startSize=8;endSize=8;curved=1;strokeColor=light-dark(#000000,#FFFFFF);strokeWidth=2;" edge="1" parent="1">
          <mxGeometry width="50" height="50" relative="1" as="geometry">
            <mxPoint x="1677" y="-42" as="sourcePoint" />
            <mxPoint x="1714" y="-42" as="targetPoint" />
          </mxGeometry>
        </mxCell>
        <mxCell id="PVNuIIhLE3hvlTbGoiD--104" style="edgeStyle=none;curved=1;rounded=0;orthogonalLoop=1;jettySize=auto;html=1;fontSize=12;startSize=8;endSize=8;strokeWidth=2;exitX=0.5;exitY=1;exitDx=0;exitDy=0;" edge="1" parent="1" source="PVNuIIhLE3hvlTbGoiD--101">
          <mxGeometry relative="1" as="geometry">
            <mxPoint x="1580" y="319" as="targetPoint" />
            <mxPoint x="1580" y="189" as="sourcePoint" />
          </mxGeometry>
        </mxCell>
        <mxCell id="PVNuIIhLE3hvlTbGoiD--105" value="True" style="edgeLabel;html=1;align=center;verticalAlign=middle;resizable=0;points=[];fontSize=13;labelBackgroundColor=light-dark(#FFFFFF,#000000);" connectable="0" vertex="1" parent="PVNuIIhLE3hvlTbGoiD--104">
          <mxGeometry x="-0.2147" relative="1" as="geometry">
            <mxPoint y="-16" as="offset" />
          </mxGeometry>
        </mxCell>
        <mxCell id="PVNuIIhLE3hvlTbGoiD--106" value="" style="endArrow=none;html=1;rounded=0;fontSize=12;startSize=8;endSize=8;curved=0;strokeWidth=2;entryX=0.5;entryY=0;entryDx=0;entryDy=0;" edge="1" parent="1" target="PVNuIIhLE3hvlTbGoiD--102">
          <mxGeometry width="50" height="50" relative="1" as="geometry">
            <mxPoint x="1270" y="-121" as="sourcePoint" />
            <mxPoint x="1580" y="-91" as="targetPoint" />
            <Array as="points">
              <mxPoint x="1581" y="-121" />
            </Array>
          </mxGeometry>
        </mxCell>
        <mxCell id="PVNuIIhLE3hvlTbGoiD--108" value="&lt;div&gt;&lt;br&gt;&lt;/div&gt;if opsiadmin == 3" style="rhombus;whiteSpace=wrap;html=1;fillColor=none;strokeWidth=2;" vertex="1" parent="1">
          <mxGeometry x="1539" y="489" width="82" height="80" as="geometry" />
        </mxCell>
        <mxCell id="PVNuIIhLE3hvlTbGoiD--109" value="&lt;font style=&quot;font-size: 10px;&quot;&gt;&lt;b&gt;&#39;Pilihan Tidak Valid! Silahkan&amp;nbsp;&lt;/b&gt;&lt;/font&gt;&lt;div&gt;&lt;font style=&quot;font-size: 10px;&quot;&gt;&lt;b&gt;Masukkan Pilihan Yang tersedia Di Menu&#39;&lt;/b&gt;&lt;/font&gt;&lt;/div&gt;" style="shape=parallelogram;perimeter=parallelogramPerimeter;whiteSpace=wrap;html=1;fixedSize=1;fillColor=none;strokeWidth=2;strokeColor=light-dark(#000000,#FFFFFF);" vertex="1" parent="1">
          <mxGeometry x="1787" y="498" width="226" height="60" as="geometry" />
        </mxCell>
        <mxCell id="PVNuIIhLE3hvlTbGoiD--110" value="" style="endArrow=classic;html=1;rounded=0;fontSize=12;startSize=8;endSize=8;curved=1;strokeColor=light-dark(#000000,#FFFFFF);strokeWidth=2;" edge="1" parent="1">
          <mxGeometry width="50" height="50" relative="1" as="geometry">
            <mxPoint x="1996" y="546.63" as="sourcePoint" />
            <mxPoint x="2033" y="546.63" as="targetPoint" />
          </mxGeometry>
        </mxCell>
        <mxCell id="PVNuIIhLE3hvlTbGoiD--111" style="edgeStyle=none;curved=1;rounded=0;orthogonalLoop=1;jettySize=auto;html=1;fontSize=12;startSize=8;endSize=8;strokeWidth=2;" edge="1" parent="1" target="PVNuIIhLE3hvlTbGoiD--109">
          <mxGeometry relative="1" as="geometry">
            <mxPoint x="1729" y="528.94" as="targetPoint" />
            <mxPoint x="1621" y="528.6600000000001" as="sourcePoint" />
          </mxGeometry>
        </mxCell>
        <mxCell id="PVNuIIhLE3hvlTbGoiD--112" style="edgeStyle=none;curved=1;rounded=0;orthogonalLoop=1;jettySize=auto;html=1;fontSize=12;startSize=8;endSize=8;strokeWidth=2;" edge="1" parent="1">
          <mxGeometry relative="1" as="geometry">
            <mxPoint x="1581" y="659" as="targetPoint" />
            <mxPoint x="1581" y="569" as="sourcePoint" />
          </mxGeometry>
        </mxCell>
        <mxCell id="PVNuIIhLE3hvlTbGoiD--113" value="&#39;Akun Berhasil Dibuat.&lt;div&gt;Silahkan Login&lt;span style=&quot;background-color: transparent; color: light-dark(rgb(0, 0, 0), rgb(255, 255, 255));&quot;&gt;&#39;&lt;/span&gt;&lt;/div&gt;" style="shape=parallelogram;perimeter=parallelogramPerimeter;whiteSpace=wrap;html=1;fixedSize=1;fillColor=none;strokeWidth=2;strokeColor=light-dark(#000000,#FFFFFF);" vertex="1" parent="1">
          <mxGeometry x="1468" y="659" width="226" height="60" as="geometry" />
        </mxCell>
        <mxCell id="PVNuIIhLE3hvlTbGoiD--114" value="" style="endArrow=classic;html=1;rounded=0;fontSize=12;startSize=8;endSize=8;curved=1;strokeColor=light-dark(#000000,#FFFFFF);strokeWidth=2;" edge="1" parent="1">
          <mxGeometry width="50" height="50" relative="1" as="geometry">
            <mxPoint x="1677" y="709" as="sourcePoint" />
            <mxPoint x="1714" y="709" as="targetPoint" />
          </mxGeometry>
        </mxCell>
        <mxCell id="PVNuIIhLE3hvlTbGoiD--115" value="" style="endArrow=none;html=1;rounded=0;fontSize=12;startSize=8;endSize=8;curved=0;strokeWidth=2;entryX=0.5;entryY=0;entryDx=0;entryDy=0;" edge="1" parent="1">
          <mxGeometry width="50" height="50" relative="1" as="geometry">
            <mxPoint x="1570" y="-121" as="sourcePoint" />
            <mxPoint x="1900" y="498" as="targetPoint" />
            <Array as="points">
              <mxPoint x="1900" y="-121" />
            </Array>
          </mxGeometry>
        </mxCell>
        <mxCell id="PVNuIIhLE3hvlTbGoiD--116" value="" style="endArrow=classic;html=1;rounded=0;fontSize=12;startSize=8;endSize=8;curved=0;strokeColor=light-dark(#000000,#FFFFFF);strokeWidth=2;entryX=0.5;entryY=1;entryDx=0;entryDy=0;exitX=0;exitY=0.5;exitDx=0;exitDy=0;" edge="1" parent="1" source="PVNuIIhLE3hvlTbGoiD--113" target="PVNuIIhLE3hvlTbGoiD--61">
          <mxGeometry width="50" height="50" relative="1" as="geometry">
            <mxPoint x="520" y="609" as="sourcePoint" />
            <mxPoint x="557" y="609" as="targetPoint" />
            <Array as="points">
              <mxPoint x="480" y="689" />
            </Array>
          </mxGeometry>
        </mxCell>
        <mxCell id="PVNuIIhLE3hvlTbGoiD--118" value="&lt;div&gt;&lt;br&gt;&lt;/div&gt;if opsilogin&lt;div&gt;&amp;nbsp;== 3&lt;/div&gt;" style="rhombus;whiteSpace=wrap;html=1;fillColor=none;strokeWidth=2;" vertex="1" parent="1">
          <mxGeometry x="258" y="720" width="82" height="80" as="geometry" />
        </mxCell>
        <mxCell id="PVNuIIhLE3hvlTbGoiD--120" style="edgeStyle=none;curved=0;rounded=0;orthogonalLoop=1;jettySize=auto;html=1;fontSize=12;startSize=8;endSize=8;strokeWidth=2;" edge="1" parent="1">
          <mxGeometry relative="1" as="geometry">
            <mxPoint x="139" y="660" as="targetPoint" />
            <mxPoint x="258" y="760" as="sourcePoint" />
            <Array as="points">
              <mxPoint x="139" y="760" />
            </Array>
          </mxGeometry>
        </mxCell>
        <mxCell id="oLp36dY5K1KdtzYOKpcm-7" value="&lt;font style=&quot;font-size: 11px;&quot;&gt;&lt;b style=&quot;&quot;&gt;&#39;Pilihan Tidak Valid! Silahkan&amp;nbsp;&lt;/b&gt;&lt;/font&gt;&lt;div&gt;&lt;font style=&quot;font-size: 11px;&quot;&gt;&lt;b style=&quot;&quot;&gt;Masukkan Pilihan Yang tersedia&#39;&lt;/b&gt;&lt;/font&gt;&lt;/div&gt;" style="shape=parallelogram;perimeter=parallelogramPerimeter;whiteSpace=wrap;html=1;fixedSize=1;fillColor=none;strokeWidth=2;strokeColor=light-dark(#000000,#FFFFFF);" vertex="1" parent="1">
          <mxGeometry x="26" y="599" width="226" height="60" as="geometry" />
        </mxCell>
        <mxCell id="oLp36dY5K1KdtzYOKpcm-8" value="" style="endArrow=classic;html=1;rounded=0;fontSize=12;startSize=8;endSize=8;curved=1;strokeColor=light-dark(#000000,#FFFFFF);strokeWidth=2;" edge="1" parent="1">
          <mxGeometry width="50" height="50" relative="1" as="geometry">
            <mxPoint x="237" y="649" as="sourcePoint" />
            <mxPoint x="274" y="649" as="targetPoint" />
          </mxGeometry>
        </mxCell>
        <mxCell id="oLp36dY5K1KdtzYOKpcm-9" value="" style="edgeStyle=none;curved=1;rounded=0;orthogonalLoop=1;jettySize=auto;html=1;fontSize=12;startSize=8;endSize=8;strokeWidth=2;entryX=0.5;entryY=0;entryDx=0;entryDy=0;" edge="1" parent="1">
          <mxGeometry relative="1" as="geometry">
            <mxPoint x="299" y="1010" as="targetPoint" />
            <mxPoint x="299" y="800" as="sourcePoint" />
          </mxGeometry>
        </mxCell>
        <mxCell id="oLp36dY5K1KdtzYOKpcm-10" value="&lt;span style=&quot;color: rgba(0, 0, 0, 0); font-family: monospace; font-size: 0px; text-align: start; background-color: rgb(27, 29, 30);&quot;&gt;FF%3CmxGraphModel%3E%3Croot%3E%3CmxCell%20id%3D%220%22%2F%3E%3CmxCell%20id%3D%221%22%20parent%3D%220%22%2F%3E%3CmxCell%20id%3D%222%22%20value%3D%22False%22%20style%3D%22edgeLabel%3Bhtml%3D1%3Balign%3Dcenter%3BverticalAlign%3Dmiddle%3Bresizable%3D0%3Bpoints%3D%5B%5D%3BfontSize%3D11%3BlabelBackgroundColor%3Dlight-dark(%23FFFFFF%2C%23000000)%3B%22%20connectable%3D%220%22%20vertex%3D%221%22%20parent%3D%221%22%3E%3CmxGeometry%20x%3D%2269.60000000000002%22%20y%3D%22530%22%20as%3D%22geometry%22%2F%3E%3C%2FmxCell%3E%3C%2Froot%3E%3C%2FmxGraphModel%3EFas&lt;/span&gt;" style="edgeLabel;html=1;align=center;verticalAlign=middle;resizable=0;points=[];fontSize=12;" connectable="0" vertex="1" parent="oLp36dY5K1KdtzYOKpcm-9">
          <mxGeometry x="-0.1416" y="-1" relative="1" as="geometry">
            <mxPoint as="offset" />
          </mxGeometry>
        </mxCell>
        <mxCell id="oLp36dY5K1KdtzYOKpcm-11" value="&lt;span&gt;True&lt;/span&gt;" style="edgeLabel;html=1;align=center;verticalAlign=middle;resizable=0;points=[];fontSize=13;labelBackgroundColor=light-dark(#FFFFFF,#000000);" connectable="0" vertex="1" parent="oLp36dY5K1KdtzYOKpcm-9">
          <mxGeometry x="-0.1644" y="-1" relative="1" as="geometry">
            <mxPoint y="-48" as="offset" />
          </mxGeometry>
        </mxCell>
        <mxCell id="PVNuIIhLE3hvlTbGoiD--117" value="&lt;font style=&quot;color: light-dark(rgb(0, 0, 0), rgb(255, 255, 255));&quot;&gt;End&lt;/font&gt;" style="ellipse;whiteSpace=wrap;html=1;labelBackgroundColor=none;fillColor=none;fontColor=#ffffff;strokeColor=light-dark(#000000,#FFFFFF);strokeWidth=2;" vertex="1" parent="1">
          <mxGeometry x="258" y="1011" width="82" height="60" as="geometry" />
        </mxCell>
        <mxCell id="oLp36dY5K1KdtzYOKpcm-12" value="&lt;span&gt;False&lt;/span&gt;" style="edgeLabel;html=1;align=center;verticalAlign=middle;resizable=0;points=[];fontSize=13;labelBackgroundColor=light-dark(#FFFFFF,#000000);" connectable="0" vertex="1" parent="1">
          <mxGeometry x="220" y="758" as="geometry" />
        </mxCell>
        <mxCell id="oLp36dY5K1KdtzYOKpcm-13" style="edgeStyle=none;curved=0;rounded=0;orthogonalLoop=1;jettySize=auto;html=1;fontSize=12;startSize=8;endSize=8;strokeWidth=2;exitX=0.5;exitY=0;exitDx=0;exitDy=0;entryX=0;entryY=0.5;entryDx=0;entryDy=0;" edge="1" parent="1" source="oLp36dY5K1KdtzYOKpcm-7" target="H7Glbrvd2P4JiKMKXMEy-5">
          <mxGeometry relative="1" as="geometry">
            <mxPoint x="139" y="-750" as="targetPoint" />
            <mxPoint x="198.5" y="447" as="sourcePoint" />
            <Array as="points">
              <mxPoint x="139" y="440" />
              <mxPoint x="139" y="-745" />
            </Array>
          </mxGeometry>
        </mxCell>
        <mxCell id="T3ODHLRC4EFcQGlVxery-1" value="False" style="edgeLabel;html=1;align=center;verticalAlign=middle;resizable=0;points=[];fontSize=12;labelBackgroundColor=light-dark(#FFFFFF,#000000);" connectable="0" vertex="1" parent="1">
          <mxGeometry x="1581" y="-1000" as="geometry">
            <mxPoint x="-1" y="4" as="offset" />
          </mxGeometry>
        </mxCell>
        <mxCell id="PVNuIIhLE3hvlTbGoiD--31" value="False" style="edgeLabel;html=1;align=center;verticalAlign=middle;resizable=0;points=[];fontSize=12;" connectable="0" vertex="1" parent="1">
          <mxGeometry x="1660" y="530" as="geometry">
            <mxPoint x="7" y="-3" as="offset" />
          </mxGeometry>
        </mxCell>
        <mxCell id="PVNuIIhLE3hvlTbGoiD--28" value="True" style="edgeLabel;html=1;align=center;verticalAlign=middle;resizable=0;points=[];fontSize=12;" connectable="0" vertex="1" parent="1">
          <mxGeometry x="1581" y="595" as="geometry" />
        </mxCell>
        <mxCell id="T3ODHLRC4EFcQGlVxery-3" value="False" style="edgeLabel;html=1;align=center;verticalAlign=middle;resizable=0;points=[];fontSize=13;" connectable="0" vertex="1" parent="1">
          <mxGeometry x="1350" y="-470" as="geometry" />
        </mxCell>
        <mxCell id="T3ODHLRC4EFcQGlVxery-4" value="False" style="edgeLabel;html=1;align=center;verticalAlign=middle;resizable=0;points=[];fontSize=13;" connectable="0" vertex="1" parent="1">
          <mxGeometry x="1670" y="-471" as="geometry" />
        </mxCell>
        <mxCell id="T3ODHLRC4EFcQGlVxery-5" value="True" style="edgeLabel;html=1;align=center;verticalAlign=middle;resizable=0;points=[];fontSize=12;" connectable="0" vertex="1" parent="1">
          <mxGeometry x="1581" y="-403" as="geometry" />
        </mxCell>
        <mxCell id="T3ODHLRC4EFcQGlVxery-6" style="edgeStyle=none;curved=1;rounded=0;orthogonalLoop=1;jettySize=auto;html=1;fontSize=12;startSize=8;endSize=8;strokeWidth=2;entryX=0.5;entryY=0;entryDx=0;entryDy=0;exitX=0.5;exitY=1;exitDx=0;exitDy=0;" edge="1" parent="1" source="PVNuIIhLE3hvlTbGoiD--50" target="PVNuIIhLE3hvlTbGoiD--118">
          <mxGeometry relative="1" as="geometry">
            <mxPoint x="300" y="497" as="targetPoint" />
            <mxPoint x="299" y="580" as="sourcePoint" />
          </mxGeometry>
        </mxCell>
        <mxCell id="T3ODHLRC4EFcQGlVxery-7" value="&lt;span style=&quot;color: rgba(0, 0, 0, 0); font-family: monospace; font-size: 0px; text-align: start; background-color: rgb(27, 29, 30);&quot;&gt;FF%3CmxGraphModel%3E%3Croot%3E%3CmxCell%20id%3D%220%22%2F%3E%3CmxCell%20id%3D%221%22%20parent%3D%220%22%2F%3E%3CmxCell%20id%3D%222%22%20value%3D%22False%22%20style%3D%22edgeLabel%3Bhtml%3D1%3Balign%3Dcenter%3BverticalAlign%3Dmiddle%3Bresizable%3D0%3Bpoints%3D%5B%5D%3BfontSize%3D11%3BlabelBackgroundColor%3Dlight-dark(%23FFFFFF%2C%23000000)%3B%22%20connectable%3D%220%22%20vertex%3D%221%22%20parent%3D%221%22%3E%3CmxGeometry%20x%3D%2269.60000000000002%22%20y%3D%22530%22%20as%3D%22geometry%22%2F%3E%3C%2FmxCell%3E%3C%2Froot%3E%3C%2FmxGraphModel%3EFas&lt;/span&gt;" style="edgeLabel;html=1;align=center;verticalAlign=middle;resizable=0;points=[];fontSize=12;" connectable="0" vertex="1" parent="T3ODHLRC4EFcQGlVxery-6">
          <mxGeometry x="-0.1416" y="-1" relative="1" as="geometry">
            <mxPoint as="offset" />
          </mxGeometry>
        </mxCell>
        <mxCell id="T3ODHLRC4EFcQGlVxery-8" value="&lt;span&gt;False&lt;/span&gt;" style="edgeLabel;html=1;align=center;verticalAlign=middle;resizable=0;points=[];fontSize=13;labelBackgroundColor=light-dark(#FFFFFF,#000000);" connectable="0" vertex="1" parent="T3ODHLRC4EFcQGlVxery-6">
          <mxGeometry x="-0.1644" y="-1" relative="1" as="geometry">
            <mxPoint x="2" y="-33" as="offset" />
          </mxGeometry>
        </mxCell>
        <mxCell id="aOZmdQQ8ePhyioWTLgCk-1" value="&lt;b&gt;&lt;font style=&quot;color: light-dark(rgb(0, 0, 0), rgb(0, 0, 0));&quot;&gt;C&lt;/font&gt;&lt;/b&gt;" style="shape=offPageConnector;whiteSpace=wrap;html=1;fillColor=light-dark(#FFFFFF,#FFDB15);size=0.2000000000000023;strokeWidth=2;" vertex="1" parent="1">
          <mxGeometry x="455" y="-250" width="50" height="50" as="geometry" />
        </mxCell>
        <mxCell id="aOZmdQQ8ePhyioWTLgCk-2" value="" style="endArrow=none;html=1;rounded=0;fontSize=12;startSize=8;endSize=8;curved=1;strokeWidth=2;exitX=0.5;exitY=0;exitDx=0;exitDy=0;" edge="1" parent="1" source="aOZmdQQ8ePhyioWTLgCk-1">
          <mxGeometry width="50" height="50" relative="1" as="geometry">
            <mxPoint x="520" y="-230" as="sourcePoint" />
            <mxPoint x="480" y="-330" as="targetPoint" />
          </mxGeometry>
        </mxCell>
        <mxCell id="dO5vMOG4G2lNwCTjujNr-1" value="" style="edgeStyle=none;curved=1;rounded=0;orthogonalLoop=1;jettySize=auto;html=1;fontSize=12;startSize=8;endSize=8;strokeWidth=2;" edge="1" parent="1" target="PVNuIIhLE3hvlTbGoiD--64">
          <mxGeometry relative="1" as="geometry">
            <mxPoint x="825.58" y="149" as="targetPoint" />
            <mxPoint x="825.58" y="229" as="sourcePoint" />
          </mxGeometry>
        </mxCell>
        <mxCell id="PVNuIIhLE3hvlTbGoiD--64" value="password" style="shape=parallelogram;perimeter=parallelogramPerimeter;whiteSpace=wrap;html=1;fixedSize=1;fillColor=none;strokeWidth=2;strokeColor=light-dark(#000000,#FFFFFF);" vertex="1" parent="1">
          <mxGeometry x="772" y="229" width="108" height="50" as="geometry" />
        </mxCell>
        <mxCell id="ETL982o3OyNaw2EZ3koq-2" value="&lt;b&gt;C&lt;/b&gt;" style="shape=offPageConnector;whiteSpace=wrap;html=1;fillColor=light-dark(#FFFFFF,#CCCC00);size=0.2000000000000023;strokeWidth=2;" vertex="1" parent="1">
          <mxGeometry x="455" y="769" width="50" height="50" as="geometry" />
        </mxCell>
        <mxCell id="ETL982o3OyNaw2EZ3koq-3" value="" style="endArrow=none;html=1;rounded=0;fontSize=12;startSize=8;endSize=8;curved=1;strokeWidth=2;exitX=0.5;exitY=0;exitDx=0;exitDy=0;" edge="1" parent="1" source="ETL982o3OyNaw2EZ3koq-2">
          <mxGeometry width="50" height="50" relative="1" as="geometry">
            <mxPoint x="520" y="789" as="sourcePoint" />
            <mxPoint x="480" y="689" as="targetPoint" />
          </mxGeometry>
        </mxCell>
        <mxCell id="ETL982o3OyNaw2EZ3koq-1" value="&lt;b&gt;&lt;font style=&quot;color: light-dark(rgb(0, 0, 0), rgb(0, 0, 0));&quot;&gt;D&lt;/font&gt;&lt;/b&gt;" style="shape=offPageConnector;whiteSpace=wrap;html=1;fillColor=light-dark(#1319A2,#6776FF);size=0.2000000000000023;strokeWidth=2;fontColor=#ffffff;strokeColor=#6F0000;" vertex="1" parent="1">
          <mxGeometry x="455" y="769" width="50" height="50" as="geometry" />
        </mxCell>
      </root>
    </mxGraphModel>
  </diagram>
  <diagram name="Halaman 2" id="1-76ot3ex-9P8jT14kc1">
    <mxGraphModel grid="1" page="1" gridSize="10" guides="1" tooltips="1" connect="1" arrows="1" fold="1" pageScale="1" pageWidth="827" pageHeight="1169" background="light-dark(#FFFFFF,#020202)" math="1" shadow="0">
      <root>
        <object label="" id="BuJEbZZGSYUDVpt14c4Y-0">
          <mxCell />
        </object>
        <mxCell id="BuJEbZZGSYUDVpt14c4Y-1" parent="BuJEbZZGSYUDVpt14c4Y-0" />
        <mxCell id="sEnJSFHmKmD8mxA6SRT7-16" style="edgeStyle=none;curved=1;rounded=0;orthogonalLoop=1;jettySize=auto;html=1;fontSize=12;startSize=8;endSize=8;strokeWidth=2;exitX=0.5;exitY=1;exitDx=0;exitDy=0;" edge="1" parent="BuJEbZZGSYUDVpt14c4Y-1" source="sEnJSFHmKmD8mxA6SRT7-4">
          <mxGeometry relative="1" as="geometry">
            <mxPoint x="-1409.17" y="-817.36" as="targetPoint" />
            <mxPoint x="-1409" y="-918" as="sourcePoint" />
          </mxGeometry>
        </mxCell>
        <mxCell id="9nV4qTlfGp4nT7LFN5Lr-1" value="&lt;font style=&quot;font-size: 13px; color: light-dark(rgb(0, 0, 0), rgb(249, 249, 249));&quot;&gt;Menu&amp;nbsp; Customer&lt;/font&gt;&lt;div&gt;&lt;font style=&quot;font-size: 13px; color: light-dark(rgb(0, 0, 0), rgb(249, 249, 249));&quot;&gt;Toko Parfum X&lt;/font&gt;&lt;/div&gt;" style="rounded=1;whiteSpace=wrap;html=1;fillColor=none;strokeColor=light-dark(#000000,#FFFFFF);strokeWidth=2;" vertex="1" parent="BuJEbZZGSYUDVpt14c4Y-1">
          <mxGeometry x="-1470" y="-2169" width="120" height="60" as="geometry" />
        </mxCell>
        <mxCell id="9nV4qTlfGp4nT7LFN5Lr-3" value="opsi" style="shape=parallelogram;perimeter=parallelogramPerimeter;whiteSpace=wrap;html=1;fixedSize=1;fillColor=none;strokeWidth=2;strokeColor=light-dark(#000000,#FFFFFF);" vertex="1" parent="BuJEbZZGSYUDVpt14c4Y-1">
          <mxGeometry x="-1461" y="-2028" width="102" height="50" as="geometry" />
        </mxCell>
        <mxCell id="9nV4qTlfGp4nT7LFN5Lr-4" value="" style="endArrow=classic;html=1;rounded=0;fontSize=12;startSize=8;endSize=8;curved=1;strokeColor=light-dark(#000000,#FFFFFF);strokeWidth=2;" edge="1" parent="BuJEbZZGSYUDVpt14c4Y-1">
          <mxGeometry width="50" height="50" relative="1" as="geometry">
            <mxPoint x="-1482" y="-2018" as="sourcePoint" />
            <mxPoint x="-1445" y="-2018" as="targetPoint" />
          </mxGeometry>
        </mxCell>
        <mxCell id="9nV4qTlfGp4nT7LFN5Lr-6" value="" style="endArrow=classic;html=1;rounded=0;fontSize=12;startSize=8;endSize=8;curved=0;strokeColor=light-dark(#000000,#FFFFFF);strokeWidth=2;" edge="1" parent="BuJEbZZGSYUDVpt14c4Y-1">
          <mxGeometry width="50" height="50" relative="1" as="geometry">
            <mxPoint x="-1410" y="-2109" as="sourcePoint" />
            <mxPoint x="-1410" y="-2028" as="targetPoint" />
          </mxGeometry>
        </mxCell>
        <mxCell id="9nV4qTlfGp4nT7LFN5Lr-7" style="edgeStyle=none;curved=1;rounded=0;orthogonalLoop=1;jettySize=auto;html=1;fontSize=12;startSize=8;endSize=8;strokeWidth=2;entryX=0.5;entryY=0;entryDx=0;entryDy=0;exitX=0.5;exitY=1;exitDx=0;exitDy=0;" edge="1" parent="BuJEbZZGSYUDVpt14c4Y-1" source="9nV4qTlfGp4nT7LFN5Lr-15">
          <mxGeometry relative="1" as="geometry">
            <mxPoint x="-1410" y="-1728" as="sourcePoint" />
            <mxPoint x="-1409" y="-1040" as="targetPoint" />
          </mxGeometry>
        </mxCell>
        <mxCell id="9nV4qTlfGp4nT7LFN5Lr-8" value="&lt;span style=&quot;color: rgba(0, 0, 0, 0); font-family: monospace; font-size: 0px; text-align: start; background-color: rgb(27, 29, 30);&quot;&gt;FF%3CmxGraphModel%3E%3Croot%3E%3CmxCell%20id%3D%220%22%2F%3E%3CmxCell%20id%3D%221%22%20parent%3D%220%22%2F%3E%3CmxCell%20id%3D%222%22%20value%3D%22False%22%20style%3D%22edgeLabel%3Bhtml%3D1%3Balign%3Dcenter%3BverticalAlign%3Dmiddle%3Bresizable%3D0%3Bpoints%3D%5B%5D%3BfontSize%3D11%3BlabelBackgroundColor%3Dlight-dark(%23FFFFFF%2C%23000000)%3B%22%20connectable%3D%220%22%20vertex%3D%221%22%20parent%3D%221%22%3E%3CmxGeometry%20x%3D%2269.60000000000002%22%20y%3D%22530%22%20as%3D%22geometry%22%2F%3E%3C%2FmxCell%3E%3C%2Froot%3E%3C%2FmxGraphModel%3EFas&lt;/span&gt;" style="edgeLabel;html=1;align=center;verticalAlign=middle;resizable=0;points=[];fontSize=12;" connectable="0" vertex="1" parent="9nV4qTlfGp4nT7LFN5Lr-7">
          <mxGeometry x="-0.1416" y="-1" relative="1" as="geometry">
            <mxPoint as="offset" />
          </mxGeometry>
        </mxCell>
        <mxCell id="9nV4qTlfGp4nT7LFN5Lr-9" value="&lt;span&gt;False&lt;/span&gt;" style="edgeLabel;html=1;align=center;verticalAlign=middle;resizable=0;points=[];fontSize=13;labelBackgroundColor=light-dark(#FFFFFF,#000000);" connectable="0" vertex="1" parent="9nV4qTlfGp4nT7LFN5Lr-7">
          <mxGeometry x="-0.1644" y="-1" relative="1" as="geometry">
            <mxPoint y="-271" as="offset" />
          </mxGeometry>
        </mxCell>
        <mxCell id="9nV4qTlfGp4nT7LFN5Lr-10" style="edgeStyle=none;curved=1;rounded=0;orthogonalLoop=1;jettySize=auto;html=1;fontSize=12;startSize=8;endSize=8;strokeWidth=2;exitX=0.995;exitY=0.5;exitDx=0;exitDy=0;exitPerimeter=0;" edge="1" parent="BuJEbZZGSYUDVpt14c4Y-1" source="9nV4qTlfGp4nT7LFN5Lr-15">
          <mxGeometry relative="1" as="geometry">
            <mxPoint x="-1249.66" y="-1838" as="targetPoint" />
            <mxPoint x="-1330.0043966400328" y="-1838.6640032780167" as="sourcePoint" />
          </mxGeometry>
        </mxCell>
        <mxCell id="9nV4qTlfGp4nT7LFN5Lr-11" value="True" style="edgeLabel;html=1;align=center;verticalAlign=middle;resizable=0;points=[];fontSize=13;labelBackgroundColor=light-dark(#FFFFFF,#000000);" connectable="0" vertex="1" parent="9nV4qTlfGp4nT7LFN5Lr-10">
          <mxGeometry x="-0.2147" relative="1" as="geometry">
            <mxPoint x="5" y="-1" as="offset" />
          </mxGeometry>
        </mxCell>
        <mxCell id="9nV4qTlfGp4nT7LFN5Lr-13" value="" style="endArrow=classic;html=1;rounded=0;fontSize=12;startSize=8;endSize=8;curved=0;strokeColor=light-dark(#000000,#FFFFFF);strokeWidth=2;" edge="1" parent="BuJEbZZGSYUDVpt14c4Y-1">
          <mxGeometry width="50" height="50" relative="1" as="geometry">
            <mxPoint x="-1410.23" y="-1978" as="sourcePoint" />
            <mxPoint x="-1410.23" y="-1897" as="targetPoint" />
          </mxGeometry>
        </mxCell>
        <mxCell id="9nV4qTlfGp4nT7LFN5Lr-14" value="&lt;div&gt;&lt;span style=&quot;background-color: transparent; color: light-dark(rgb(0, 0, 0), rgb(255, 255, 255));&quot;&gt;&lt;br&gt;&lt;/span&gt;&lt;/div&gt;&lt;div&gt;&lt;span style=&quot;background-color: transparent; color: light-dark(rgb(0, 0, 0), rgb(255, 255, 255));&quot;&gt;if len(dataparfum)&amp;nbsp;&lt;/span&gt;&lt;/div&gt;&lt;div&gt;&lt;font&gt;== 0&lt;/font&gt;&lt;/div&gt;" style="rhombus;whiteSpace=wrap;html=1;fillColor=none;strokeWidth=2;" vertex="1" parent="BuJEbZZGSYUDVpt14c4Y-1">
          <mxGeometry x="-1249" y="-1898" width="118" height="120" as="geometry" />
        </mxCell>
        <mxCell id="9nV4qTlfGp4nT7LFN5Lr-15" value="&lt;div&gt;&lt;font style=&quot;font-size: 13px;&quot;&gt;if opsi == 1&lt;/font&gt;&lt;/div&gt;" style="rhombus;whiteSpace=wrap;html=1;fillColor=none;strokeWidth=2;" vertex="1" parent="BuJEbZZGSYUDVpt14c4Y-1">
          <mxGeometry x="-1470" y="-1898" width="118" height="120" as="geometry" />
        </mxCell>
        <mxCell id="9nV4qTlfGp4nT7LFN5Lr-17" style="edgeStyle=none;curved=1;rounded=0;orthogonalLoop=1;jettySize=auto;html=1;fontSize=12;startSize=8;endSize=8;strokeWidth=2;exitX=0.995;exitY=0.5;exitDx=0;exitDy=0;exitPerimeter=0;" edge="1" parent="BuJEbZZGSYUDVpt14c4Y-1">
          <mxGeometry relative="1" as="geometry">
            <mxPoint x="-1027.66" y="-1838.4299999999998" as="targetPoint" />
            <mxPoint x="-1131" y="-1838.4299999999998" as="sourcePoint" />
          </mxGeometry>
        </mxCell>
        <mxCell id="9nV4qTlfGp4nT7LFN5Lr-18" value="True" style="edgeLabel;html=1;align=center;verticalAlign=middle;resizable=0;points=[];fontSize=13;labelBackgroundColor=light-dark(#FFFFFF,#000000);" connectable="0" vertex="1" parent="9nV4qTlfGp4nT7LFN5Lr-17">
          <mxGeometry x="-0.2147" relative="1" as="geometry">
            <mxPoint x="5" y="-1" as="offset" />
          </mxGeometry>
        </mxCell>
        <mxCell id="9nV4qTlfGp4nT7LFN5Lr-19" style="edgeStyle=none;curved=1;rounded=0;orthogonalLoop=1;jettySize=auto;html=1;fontSize=12;startSize=8;endSize=8;strokeWidth=2;exitX=0.499;exitY=0.994;exitDx=0;exitDy=0;exitPerimeter=0;" edge="1" parent="BuJEbZZGSYUDVpt14c4Y-1" source="9nV4qTlfGp4nT7LFN5Lr-14">
          <mxGeometry relative="1" as="geometry">
            <mxPoint x="-1190.29" y="-1688.3600000000001" as="targetPoint" />
            <mxPoint x="-1189.6999999999998" y="-1778" as="sourcePoint" />
          </mxGeometry>
        </mxCell>
        <mxCell id="9nV4qTlfGp4nT7LFN5Lr-20" value="False" style="edgeLabel;html=1;align=center;verticalAlign=middle;resizable=0;points=[];fontSize=13;labelBackgroundColor=light-dark(#FFFFFF,#000000);" connectable="0" vertex="1" parent="9nV4qTlfGp4nT7LFN5Lr-19">
          <mxGeometry x="-0.2147" relative="1" as="geometry">
            <mxPoint y="-5" as="offset" />
          </mxGeometry>
        </mxCell>
        <mxCell id="9nV4qTlfGp4nT7LFN5Lr-21" value="&lt;font style=&quot;font-size: 11px;&quot;&gt;&lt;b style=&quot;&quot;&gt;&#39;Daftar Parfum Belum Ada, Harap&lt;/b&gt;&lt;/font&gt;&lt;div&gt;&lt;b style=&quot;font-size: 11px; background-color: transparent; color: light-dark(rgb(0, 0, 0), rgb(255, 255, 255));&quot;&gt;Tunggu Admin Menambahkan Data&#39;&lt;/b&gt;&lt;/div&gt;" style="shape=parallelogram;perimeter=parallelogramPerimeter;whiteSpace=wrap;html=1;fixedSize=1;fillColor=none;strokeWidth=2;strokeColor=light-dark(#000000,#FFFFFF);" vertex="1" parent="BuJEbZZGSYUDVpt14c4Y-1">
          <mxGeometry x="-1037" y="-1868" width="226" height="60" as="geometry" />
        </mxCell>
        <mxCell id="9nV4qTlfGp4nT7LFN5Lr-22" value="" style="endArrow=classic;html=1;rounded=0;fontSize=12;startSize=8;endSize=8;curved=1;strokeColor=light-dark(#000000,#FFFFFF);strokeWidth=2;" edge="1" parent="BuJEbZZGSYUDVpt14c4Y-1">
          <mxGeometry width="50" height="50" relative="1" as="geometry">
            <mxPoint x="-827" y="-1818" as="sourcePoint" />
            <mxPoint x="-790" y="-1818" as="targetPoint" />
          </mxGeometry>
        </mxCell>
        <mxCell id="9nV4qTlfGp4nT7LFN5Lr-23" value="" style="endArrow=classic;html=1;rounded=0;fontSize=12;startSize=8;endSize=8;curved=0;strokeColor=light-dark(#000000,#FFFFFF);strokeWidth=2;entryX=1;entryY=0.5;entryDx=0;entryDy=0;exitX=0.5;exitY=0;exitDx=0;exitDy=0;" edge="1" parent="BuJEbZZGSYUDVpt14c4Y-1" source="9nV4qTlfGp4nT7LFN5Lr-21" target="9nV4qTlfGp4nT7LFN5Lr-1">
          <mxGeometry width="50" height="50" relative="1" as="geometry">
            <mxPoint x="-920" y="-2118" as="sourcePoint" />
            <mxPoint x="-1164" y="-2108" as="targetPoint" />
            <Array as="points">
              <mxPoint x="-924" y="-2139" />
            </Array>
          </mxGeometry>
        </mxCell>
        <mxCell id="9nV4qTlfGp4nT7LFN5Lr-25" value="&lt;b style=&quot;&quot;&gt;&lt;font style=&quot;font-size: 13px;&quot;&gt;&#39;List Parfum&#39;&lt;/font&gt;&lt;/b&gt;" style="shape=parallelogram;perimeter=parallelogramPerimeter;whiteSpace=wrap;html=1;fixedSize=1;fillColor=none;strokeWidth=2;strokeColor=light-dark(#000000,#FFFFFF);" vertex="1" parent="BuJEbZZGSYUDVpt14c4Y-1">
          <mxGeometry x="-1303" y="-1688" width="226" height="60" as="geometry" />
        </mxCell>
        <mxCell id="9nV4qTlfGp4nT7LFN5Lr-26" value="" style="endArrow=classic;html=1;rounded=0;fontSize=12;startSize=8;endSize=8;curved=1;strokeColor=light-dark(#000000,#FFFFFF);strokeWidth=2;" edge="1" parent="BuJEbZZGSYUDVpt14c4Y-1">
          <mxGeometry width="50" height="50" relative="1" as="geometry">
            <mxPoint x="-1093" y="-1638" as="sourcePoint" />
            <mxPoint x="-1056" y="-1638" as="targetPoint" />
          </mxGeometry>
        </mxCell>
        <mxCell id="9nV4qTlfGp4nT7LFN5Lr-27" style="edgeStyle=none;curved=1;rounded=0;orthogonalLoop=1;jettySize=auto;html=1;fontSize=12;startSize=8;endSize=8;strokeWidth=2;exitX=0.499;exitY=0.994;exitDx=0;exitDy=0;exitPerimeter=0;" edge="1" parent="BuJEbZZGSYUDVpt14c4Y-1">
          <mxGeometry relative="1" as="geometry">
            <mxPoint x="-1190.3" y="-1537.3600000000001" as="targetPoint" />
            <mxPoint x="-1190.01" y="-1628" as="sourcePoint" />
          </mxGeometry>
        </mxCell>
        <mxCell id="9nV4qTlfGp4nT7LFN5Lr-31" value="&lt;font style=&quot;font-size: 13px;&quot;&gt;beli&lt;/font&gt;" style="shape=parallelogram;perimeter=parallelogramPerimeter;whiteSpace=wrap;html=1;fixedSize=1;fillColor=none;strokeWidth=2;strokeColor=light-dark(#000000,#FFFFFF);" vertex="1" parent="BuJEbZZGSYUDVpt14c4Y-1">
          <mxGeometry x="-1241" y="-1538" width="102" height="50" as="geometry" />
        </mxCell>
        <mxCell id="9nV4qTlfGp4nT7LFN5Lr-32" value="" style="endArrow=classic;html=1;rounded=0;fontSize=12;startSize=8;endSize=8;curved=1;strokeColor=light-dark(#000000,#FFFFFF);strokeWidth=2;" edge="1" parent="BuJEbZZGSYUDVpt14c4Y-1">
          <mxGeometry width="50" height="50" relative="1" as="geometry">
            <mxPoint x="-1262" y="-1528" as="sourcePoint" />
            <mxPoint x="-1225" y="-1528" as="targetPoint" />
          </mxGeometry>
        </mxCell>
        <mxCell id="9nV4qTlfGp4nT7LFN5Lr-33" style="edgeStyle=none;curved=1;rounded=0;orthogonalLoop=1;jettySize=auto;html=1;fontSize=12;startSize=8;endSize=8;strokeWidth=2;exitX=0.499;exitY=0.994;exitDx=0;exitDy=0;exitPerimeter=0;" edge="1" parent="BuJEbZZGSYUDVpt14c4Y-1">
          <mxGeometry relative="1" as="geometry">
            <mxPoint x="-1190" y="-1397.3600000000001" as="targetPoint" />
            <mxPoint x="-1189.71" y="-1488" as="sourcePoint" />
          </mxGeometry>
        </mxCell>
        <mxCell id="9nV4qTlfGp4nT7LFN5Lr-34" value="&lt;div&gt;if beli in&amp;nbsp;&lt;/div&gt;&lt;div&gt;dataparfum&lt;/div&gt;" style="rhombus;whiteSpace=wrap;html=1;fillColor=none;strokeWidth=2;" vertex="1" parent="BuJEbZZGSYUDVpt14c4Y-1">
          <mxGeometry x="-1249" y="-1398" width="118" height="120" as="geometry" />
        </mxCell>
        <mxCell id="9nV4qTlfGp4nT7LFN5Lr-35" style="edgeStyle=none;curved=1;rounded=0;orthogonalLoop=1;jettySize=auto;html=1;fontSize=12;startSize=8;endSize=8;strokeWidth=2;exitX=0.499;exitY=0.994;exitDx=0;exitDy=0;exitPerimeter=0;" edge="1" parent="BuJEbZZGSYUDVpt14c4Y-1">
          <mxGeometry relative="1" as="geometry">
            <mxPoint x="-1190.2" y="-1187" as="targetPoint" />
            <mxPoint x="-1189.91" y="-1277.6399999999999" as="sourcePoint" />
          </mxGeometry>
        </mxCell>
        <mxCell id="9nV4qTlfGp4nT7LFN5Lr-36" style="edgeStyle=none;curved=1;rounded=0;orthogonalLoop=1;jettySize=auto;html=1;fontSize=12;startSize=8;endSize=8;strokeWidth=2;exitX=1;exitY=0.5;exitDx=0;exitDy=0;" edge="1" parent="BuJEbZZGSYUDVpt14c4Y-1" source="9nV4qTlfGp4nT7LFN5Lr-34">
          <mxGeometry relative="1" as="geometry">
            <mxPoint x="-1030" y="-1337.3600000000001" as="targetPoint" />
            <mxPoint x="-1029.71" y="-1428" as="sourcePoint" />
          </mxGeometry>
        </mxCell>
        <mxCell id="9nV4qTlfGp4nT7LFN5Lr-37" value="True" style="edgeLabel;html=1;align=center;verticalAlign=middle;resizable=0;points=[];fontSize=13;labelBackgroundColor=light-dark(#FFFFFF,#000000);" connectable="0" vertex="1" parent="BuJEbZZGSYUDVpt14c4Y-1">
          <mxGeometry x="-1090" y="-1338" as="geometry" />
        </mxCell>
        <mxCell id="9nV4qTlfGp4nT7LFN5Lr-38" value="False" style="edgeLabel;html=1;align=center;verticalAlign=middle;resizable=0;points=[];fontSize=13;labelBackgroundColor=light-dark(#FFFFFF,#000000);" connectable="0" vertex="1" parent="BuJEbZZGSYUDVpt14c4Y-1">
          <mxGeometry x="-1190" y="-1241" as="geometry" />
        </mxCell>
        <mxCell id="9nV4qTlfGp4nT7LFN5Lr-39" value="&lt;font style=&quot;font-size: 13px;&quot;&gt;jumlah&lt;/font&gt;" style="shape=parallelogram;perimeter=parallelogramPerimeter;whiteSpace=wrap;html=1;fixedSize=1;fillColor=none;strokeWidth=2;strokeColor=light-dark(#000000,#FFFFFF);" vertex="1" parent="BuJEbZZGSYUDVpt14c4Y-1">
          <mxGeometry x="-1039" y="-1363" width="102" height="50" as="geometry" />
        </mxCell>
        <mxCell id="9nV4qTlfGp4nT7LFN5Lr-40" value="" style="endArrow=classic;html=1;rounded=0;fontSize=12;startSize=8;endSize=8;curved=1;strokeColor=light-dark(#000000,#FFFFFF);strokeWidth=2;" edge="1" parent="BuJEbZZGSYUDVpt14c4Y-1">
          <mxGeometry width="50" height="50" relative="1" as="geometry">
            <mxPoint x="-1060" y="-1353" as="sourcePoint" />
            <mxPoint x="-1023" y="-1353" as="targetPoint" />
          </mxGeometry>
        </mxCell>
        <mxCell id="9nV4qTlfGp4nT7LFN5Lr-41" style="edgeStyle=none;curved=1;rounded=0;orthogonalLoop=1;jettySize=auto;html=1;fontSize=12;startSize=8;endSize=8;strokeWidth=2;exitX=1;exitY=0.5;exitDx=0;exitDy=0;" edge="1" parent="BuJEbZZGSYUDVpt14c4Y-1">
          <mxGeometry relative="1" as="geometry">
            <mxPoint x="-846" y="-1336.3600000000001" as="targetPoint" />
            <mxPoint x="-947" y="-1337" as="sourcePoint" />
          </mxGeometry>
        </mxCell>
        <mxCell id="9nV4qTlfGp4nT7LFN5Lr-42" value="&lt;b style=&quot;&quot;&gt;&lt;font style=&quot;font-size: 13px;&quot;&gt;&#39;Struk Belanja&#39;&lt;/font&gt;&lt;/b&gt;" style="shape=parallelogram;perimeter=parallelogramPerimeter;whiteSpace=wrap;html=1;fixedSize=1;fillColor=none;strokeWidth=2;strokeColor=light-dark(#000000,#FFFFFF);" vertex="1" parent="BuJEbZZGSYUDVpt14c4Y-1">
          <mxGeometry x="-856" y="-1366" width="226" height="60" as="geometry" />
        </mxCell>
        <mxCell id="9nV4qTlfGp4nT7LFN5Lr-43" value="" style="endArrow=classic;html=1;rounded=0;fontSize=12;startSize=8;endSize=8;curved=1;strokeColor=light-dark(#000000,#FFFFFF);strokeWidth=2;" edge="1" parent="BuJEbZZGSYUDVpt14c4Y-1">
          <mxGeometry width="50" height="50" relative="1" as="geometry">
            <mxPoint x="-646" y="-1316" as="sourcePoint" />
            <mxPoint x="-609" y="-1316" as="targetPoint" />
          </mxGeometry>
        </mxCell>
        <mxCell id="9nV4qTlfGp4nT7LFN5Lr-44" value="" style="endArrow=none;html=1;rounded=0;fontSize=12;startSize=8;endSize=8;curved=0;strokeWidth=2;exitX=0.5;exitY=0;exitDx=0;exitDy=0;" edge="1" parent="BuJEbZZGSYUDVpt14c4Y-1" source="9nV4qTlfGp4nT7LFN5Lr-45">
          <mxGeometry width="50" height="50" relative="1" as="geometry">
            <mxPoint x="-768" y="-1658" as="sourcePoint" />
            <mxPoint x="-924" y="-2139" as="targetPoint" />
            <Array as="points">
              <mxPoint x="-740" y="-2139" />
            </Array>
          </mxGeometry>
        </mxCell>
        <mxCell id="9nV4qTlfGp4nT7LFN5Lr-45" value="&lt;b style=&quot;&quot;&gt;&lt;font style=&quot;font-size: 13px;&quot;&gt;&#39;Struk Belanja&#39;&lt;/font&gt;&lt;/b&gt;" style="shape=parallelogram;perimeter=parallelogramPerimeter;whiteSpace=wrap;html=1;fixedSize=1;fillColor=none;strokeWidth=2;strokeColor=light-dark(#000000,#FFFFFF);" vertex="1" parent="BuJEbZZGSYUDVpt14c4Y-1">
          <mxGeometry x="-853" y="-1528" width="226" height="60" as="geometry" />
        </mxCell>
        <mxCell id="9nV4qTlfGp4nT7LFN5Lr-46" value="" style="endArrow=classic;html=1;rounded=0;fontSize=12;startSize=8;endSize=8;curved=1;strokeColor=light-dark(#000000,#FFFFFF);strokeWidth=2;" edge="1" parent="BuJEbZZGSYUDVpt14c4Y-1">
          <mxGeometry width="50" height="50" relative="1" as="geometry">
            <mxPoint x="-643" y="-1478" as="sourcePoint" />
            <mxPoint x="-606" y="-1478" as="targetPoint" />
          </mxGeometry>
        </mxCell>
        <mxCell id="9nV4qTlfGp4nT7LFN5Lr-47" style="edgeStyle=none;curved=1;rounded=0;orthogonalLoop=1;jettySize=auto;html=1;fontSize=12;startSize=8;endSize=8;strokeWidth=2;exitX=0.513;exitY=-0.033;exitDx=0;exitDy=0;exitPerimeter=0;" edge="1" parent="BuJEbZZGSYUDVpt14c4Y-1">
          <mxGeometry relative="1" as="geometry">
            <mxPoint x="-740" y="-1467" as="targetPoint" />
            <mxPoint x="-740.0620000000001" y="-1366.98" as="sourcePoint" />
          </mxGeometry>
        </mxCell>
        <mxCell id="sEnJSFHmKmD8mxA6SRT7-0" value="&lt;b style=&quot;&quot;&gt;&lt;font style=&quot;font-size: 13px;&quot;&gt;&#39;Parfum Tidak Ditemukan&#39;&lt;/font&gt;&lt;/b&gt;" style="shape=parallelogram;perimeter=parallelogramPerimeter;whiteSpace=wrap;html=1;fixedSize=1;fillColor=none;strokeWidth=2;strokeColor=light-dark(#000000,#FFFFFF);" vertex="1" parent="BuJEbZZGSYUDVpt14c4Y-1">
          <mxGeometry x="-1313.5" y="-1187" width="226" height="60" as="geometry" />
        </mxCell>
        <mxCell id="sEnJSFHmKmD8mxA6SRT7-1" value="" style="endArrow=classic;html=1;rounded=0;fontSize=12;startSize=8;endSize=8;curved=1;strokeColor=light-dark(#000000,#FFFFFF);strokeWidth=2;" edge="1" parent="BuJEbZZGSYUDVpt14c4Y-1">
          <mxGeometry width="50" height="50" relative="1" as="geometry">
            <mxPoint x="-1103.5" y="-1137" as="sourcePoint" />
            <mxPoint x="-1066.5" y="-1137" as="targetPoint" />
          </mxGeometry>
        </mxCell>
        <mxCell id="sEnJSFHmKmD8mxA6SRT7-2" value="&lt;span&gt;False&lt;/span&gt;" style="edgeLabel;html=1;align=center;verticalAlign=middle;resizable=0;points=[];fontSize=13;labelBackgroundColor=light-dark(#FFFFFF,#000000);" connectable="0" vertex="1" parent="BuJEbZZGSYUDVpt14c4Y-1">
          <mxGeometry x="-1409.1653110460752" y="-880.9984209906415" as="geometry" />
        </mxCell>
        <mxCell id="sEnJSFHmKmD8mxA6SRT7-4" value="&lt;div&gt;&lt;font style=&quot;font-size: 13px;&quot;&gt;if opsi == 2&lt;/font&gt;&lt;/div&gt;" style="rhombus;whiteSpace=wrap;html=1;fillColor=none;strokeWidth=2;" vertex="1" parent="BuJEbZZGSYUDVpt14c4Y-1">
          <mxGeometry x="-1468" y="-1040" width="118" height="120" as="geometry" />
        </mxCell>
        <mxCell id="sEnJSFHmKmD8mxA6SRT7-5" value="&lt;b&gt;&lt;font style=&quot;color: light-dark(rgb(0, 0, 0), rgb(0, 0, 0));&quot;&gt;A&lt;/font&gt;&lt;/b&gt;" style="shape=offPageConnector;whiteSpace=wrap;html=1;fillColor=light-dark(#E51400,#FF0000);size=0.2000000000000023;strokeWidth=2;fontColor=#ffffff;strokeColor=#B20000;" vertex="1" parent="BuJEbZZGSYUDVpt14c4Y-1">
          <mxGeometry x="-1436" y="-2300" width="50" height="50" as="geometry" />
        </mxCell>
        <mxCell id="sEnJSFHmKmD8mxA6SRT7-6" value="" style="endArrow=classic;html=1;rounded=0;fontSize=12;startSize=8;endSize=8;curved=0;strokeColor=light-dark(#000000,#FFFFFF);strokeWidth=2;" edge="1" parent="BuJEbZZGSYUDVpt14c4Y-1">
          <mxGeometry width="50" height="50" relative="1" as="geometry">
            <mxPoint x="-1411.12" y="-2250" as="sourcePoint" />
            <mxPoint x="-1411.12" y="-2169" as="targetPoint" />
          </mxGeometry>
        </mxCell>
        <mxCell id="sEnJSFHmKmD8mxA6SRT7-7" style="edgeStyle=none;curved=1;rounded=0;orthogonalLoop=1;jettySize=auto;html=1;fontSize=12;startSize=8;endSize=8;strokeWidth=2;exitX=0.995;exitY=0.5;exitDx=0;exitDy=0;exitPerimeter=0;" edge="1" parent="BuJEbZZGSYUDVpt14c4Y-1">
          <mxGeometry relative="1" as="geometry">
            <mxPoint x="-1246.66" y="-980.12" as="targetPoint" />
            <mxPoint x="-1350" y="-980.12" as="sourcePoint" />
          </mxGeometry>
        </mxCell>
        <mxCell id="sEnJSFHmKmD8mxA6SRT7-8" value="True" style="edgeLabel;html=1;align=center;verticalAlign=middle;resizable=0;points=[];fontSize=13;labelBackgroundColor=light-dark(#FFFFFF,#000000);" connectable="0" vertex="1" parent="sEnJSFHmKmD8mxA6SRT7-7">
          <mxGeometry x="-0.2147" relative="1" as="geometry">
            <mxPoint x="5" y="-1" as="offset" />
          </mxGeometry>
        </mxCell>
        <mxCell id="sEnJSFHmKmD8mxA6SRT7-10" value="&lt;b style=&quot;&quot;&gt;&lt;font style=&quot;font-size: 11px;&quot;&gt;&#39;Terimakasih Sudah Berkunjung&lt;/font&gt;&lt;/b&gt;&lt;div&gt;&lt;b style=&quot;&quot;&gt;&lt;font style=&quot;font-size: 11px;&quot;&gt;Ke Toko Parfum&#39;&lt;/font&gt;&lt;/b&gt;&lt;/div&gt;" style="shape=parallelogram;perimeter=parallelogramPerimeter;whiteSpace=wrap;html=1;fixedSize=1;fillColor=none;strokeWidth=2;strokeColor=light-dark(#000000,#FFFFFF);" vertex="1" parent="BuJEbZZGSYUDVpt14c4Y-1">
          <mxGeometry x="-1256" y="-1010" width="226" height="60" as="geometry" />
        </mxCell>
        <mxCell id="sEnJSFHmKmD8mxA6SRT7-11" value="" style="endArrow=classic;html=1;rounded=0;fontSize=12;startSize=8;endSize=8;curved=1;strokeColor=light-dark(#000000,#FFFFFF);strokeWidth=2;" edge="1" parent="BuJEbZZGSYUDVpt14c4Y-1">
          <mxGeometry width="50" height="50" relative="1" as="geometry">
            <mxPoint x="-1046" y="-960" as="sourcePoint" />
            <mxPoint x="-1009" y="-960" as="targetPoint" />
          </mxGeometry>
        </mxCell>
        <mxCell id="sEnJSFHmKmD8mxA6SRT7-12" style="edgeStyle=none;curved=1;rounded=0;orthogonalLoop=1;jettySize=auto;html=1;fontSize=12;startSize=8;endSize=8;strokeWidth=2;exitX=0.995;exitY=0.5;exitDx=0;exitDy=0;exitPerimeter=0;" edge="1" parent="BuJEbZZGSYUDVpt14c4Y-1">
          <mxGeometry relative="1" as="geometry">
            <mxPoint x="-937.0000000000001" y="-980.17" as="targetPoint" />
            <mxPoint x="-1040.34" y="-980.17" as="sourcePoint" />
          </mxGeometry>
        </mxCell>
        <mxCell id="sEnJSFHmKmD8mxA6SRT7-14" value="&lt;b style=&quot;&quot;&gt;&lt;font style=&quot;font-size: 13px;&quot;&gt;&#39;Pilihan Tidak Valid, Silahkan&lt;/font&gt;&lt;/b&gt;&lt;div&gt;&lt;b style=&quot;&quot;&gt;&lt;font style=&quot;font-size: 13px;&quot;&gt;Pilih Opsi Yang Tersedia&#39;&lt;/font&gt;&lt;/b&gt;&lt;/div&gt;" style="shape=parallelogram;perimeter=parallelogramPerimeter;whiteSpace=wrap;html=1;fixedSize=1;fillColor=none;strokeWidth=2;strokeColor=light-dark(#000000,#FFFFFF);" vertex="1" parent="BuJEbZZGSYUDVpt14c4Y-1">
          <mxGeometry x="-1523" y="-818" width="226" height="60" as="geometry" />
        </mxCell>
        <mxCell id="sEnJSFHmKmD8mxA6SRT7-15" value="" style="endArrow=classic;html=1;rounded=0;fontSize=12;startSize=8;endSize=8;curved=1;strokeColor=light-dark(#000000,#FFFFFF);strokeWidth=2;" edge="1" parent="BuJEbZZGSYUDVpt14c4Y-1">
          <mxGeometry width="50" height="50" relative="1" as="geometry">
            <mxPoint x="-1313" y="-768" as="sourcePoint" />
            <mxPoint x="-1276" y="-768" as="targetPoint" />
          </mxGeometry>
        </mxCell>
        <mxCell id="sEnJSFHmKmD8mxA6SRT7-17" value="" style="endArrow=none;html=1;rounded=0;fontSize=12;startSize=8;endSize=8;curved=0;strokeWidth=2;exitX=1;exitY=0.5;exitDx=0;exitDy=0;" edge="1" parent="BuJEbZZGSYUDVpt14c4Y-1" source="sEnJSFHmKmD8mxA6SRT7-0">
          <mxGeometry width="50" height="50" relative="1" as="geometry">
            <mxPoint x="-556" y="-1168" as="sourcePoint" />
            <mxPoint x="-740" y="-2139" as="targetPoint" />
            <Array as="points">
              <mxPoint x="-560" y="-1158" />
              <mxPoint x="-556" y="-2139" />
            </Array>
          </mxGeometry>
        </mxCell>
        <mxCell id="sEnJSFHmKmD8mxA6SRT7-18" style="edgeStyle=none;curved=0;rounded=0;orthogonalLoop=1;jettySize=auto;html=1;fontSize=12;startSize=8;endSize=8;strokeWidth=2;exitX=0.049;exitY=0.47;exitDx=0;exitDy=0;entryX=0;entryY=0.5;entryDx=0;entryDy=0;exitPerimeter=0;" edge="1" parent="BuJEbZZGSYUDVpt14c4Y-1" source="sEnJSFHmKmD8mxA6SRT7-14" target="9nV4qTlfGp4nT7LFN5Lr-1">
          <mxGeometry relative="1" as="geometry">
            <mxPoint x="-1492.4" y="-2138" as="targetPoint" />
            <mxPoint x="-1533" y="-789.7" as="sourcePoint" />
            <Array as="points">
              <mxPoint x="-1610" y="-789.7" />
              <mxPoint x="-1610" y="-2138" />
            </Array>
          </mxGeometry>
        </mxCell>
        <mxCell id="sEnJSFHmKmD8mxA6SRT7-19" value="&lt;b&gt;&lt;font style=&quot;color: light-dark(rgb(0, 0, 0), rgb(0, 0, 0));&quot;&gt;C&lt;/font&gt;&lt;/b&gt;" style="shape=offPageConnector;whiteSpace=wrap;html=1;fillColor=light-dark(#FFFFFF,#CCCC00);size=0.2000000000000023;strokeWidth=2;" vertex="1" parent="BuJEbZZGSYUDVpt14c4Y-1">
          <mxGeometry x="-937" y="-1002" width="50" height="50" as="geometry" />
        </mxCell>
        <mxCell id="44_drn5eN6Z9_odiL7sk-0" value="&lt;b&gt;&lt;font style=&quot;color: light-dark(rgb(0, 0, 0), rgb(0, 0, 0));&quot;&gt;C&lt;/font&gt;&lt;/b&gt;" style="shape=offPageConnector;whiteSpace=wrap;html=1;fillColor=light-dark(#FFFFFF,#FFDB15);size=0.2000000000000023;strokeWidth=2;" vertex="1" parent="BuJEbZZGSYUDVpt14c4Y-1">
          <mxGeometry x="-937" y="-1002" width="50" height="50" as="geometry" />
        </mxCell>
      </root>
    </mxGraphModel>
  </diagram>
  <diagram name="Halaman 3" id="CzqmzMTSouBvESFJLyty">
    <mxGraphModel grid="1" page="1" gridSize="10" guides="1" tooltips="1" connect="1" arrows="1" fold="1" pageScale="1" pageWidth="827" pageHeight="1169" background="light-dark(#FFFFFF,#020202)" math="1" shadow="0">
      <root>
        <object label="" id="1RI823N9lkYlSuivJZN4-0">
          <mxCell />
        </object>
        <mxCell id="1RI823N9lkYlSuivJZN4-1" parent="1RI823N9lkYlSuivJZN4-0" />
        <mxCell id="1RI823N9lkYlSuivJZN4-3" value="&lt;font style=&quot;font-size: 13px; color: light-dark(rgb(0, 0, 0), rgb(249, 249, 249));&quot;&gt;&lt;b&gt;Menu&amp;nbsp; Admin&lt;/b&gt;&lt;/font&gt;&lt;div&gt;&lt;font style=&quot;font-size: 13px; color: light-dark(rgb(0, 0, 0), rgb(249, 249, 249));&quot;&gt;&lt;b&gt;Toko Parfum X&lt;/b&gt;&lt;/font&gt;&lt;/div&gt;" style="rounded=1;whiteSpace=wrap;html=1;fillColor=none;strokeColor=light-dark(#000000,#FFFFFF);strokeWidth=2;" vertex="1" parent="1RI823N9lkYlSuivJZN4-1">
          <mxGeometry x="-1470" y="-2169" width="120" height="60" as="geometry" />
        </mxCell>
        <mxCell id="1RI823N9lkYlSuivJZN4-4" value="&lt;b&gt;opsi&lt;/b&gt;" style="shape=parallelogram;perimeter=parallelogramPerimeter;whiteSpace=wrap;html=1;fixedSize=1;fillColor=none;strokeWidth=2;strokeColor=light-dark(#000000,#FFFFFF);" vertex="1" parent="1RI823N9lkYlSuivJZN4-1">
          <mxGeometry x="-1461" y="-2028" width="102" height="50" as="geometry" />
        </mxCell>
        <mxCell id="1RI823N9lkYlSuivJZN4-5" value="" style="endArrow=classic;html=1;rounded=0;fontSize=12;startSize=8;endSize=8;curved=1;strokeColor=light-dark(#000000,#FFFFFF);strokeWidth=2;" edge="1" parent="1RI823N9lkYlSuivJZN4-1">
          <mxGeometry width="50" height="50" relative="1" as="geometry">
            <mxPoint x="-1482" y="-2018" as="sourcePoint" />
            <mxPoint x="-1445" y="-2018" as="targetPoint" />
          </mxGeometry>
        </mxCell>
        <mxCell id="1RI823N9lkYlSuivJZN4-6" value="" style="endArrow=classic;html=1;rounded=0;fontSize=12;startSize=8;endSize=8;curved=0;strokeColor=light-dark(#000000,#FFFFFF);strokeWidth=2;" edge="1" parent="1RI823N9lkYlSuivJZN4-1">
          <mxGeometry width="50" height="50" relative="1" as="geometry">
            <mxPoint x="-1410" y="-2109" as="sourcePoint" />
            <mxPoint x="-1410" y="-2028" as="targetPoint" />
          </mxGeometry>
        </mxCell>
        <mxCell id="1RI823N9lkYlSuivJZN4-10" style="edgeStyle=none;curved=1;rounded=0;orthogonalLoop=1;jettySize=auto;html=1;fontSize=12;startSize=8;endSize=8;strokeWidth=2;exitX=0.995;exitY=0.5;exitDx=0;exitDy=0;exitPerimeter=0;" edge="1" parent="1RI823N9lkYlSuivJZN4-1" source="1RI823N9lkYlSuivJZN4-14" target="1RI823N9lkYlSuivJZN4-19">
          <mxGeometry relative="1" as="geometry">
            <mxPoint x="-1249.66" y="-1838" as="targetPoint" />
            <mxPoint x="-1330.0043966400328" y="-1838.6640032780167" as="sourcePoint" />
          </mxGeometry>
        </mxCell>
        <mxCell id="1RI823N9lkYlSuivJZN4-11" value="&lt;b&gt;True&lt;/b&gt;" style="edgeLabel;html=1;align=center;verticalAlign=middle;resizable=0;points=[];fontSize=13;labelBackgroundColor=light-dark(#FFFFFF,#000000);" connectable="0" vertex="1" parent="1RI823N9lkYlSuivJZN4-10">
          <mxGeometry x="-0.2147" relative="1" as="geometry">
            <mxPoint x="5" y="-1" as="offset" />
          </mxGeometry>
        </mxCell>
        <mxCell id="1RI823N9lkYlSuivJZN4-12" value="" style="endArrow=classic;html=1;rounded=0;fontSize=12;startSize=8;endSize=8;curved=0;strokeColor=light-dark(#000000,#FFFFFF);strokeWidth=2;" edge="1" parent="1RI823N9lkYlSuivJZN4-1">
          <mxGeometry width="50" height="50" relative="1" as="geometry">
            <mxPoint x="-1410.23" y="-1978" as="sourcePoint" />
            <mxPoint x="-1410.23" y="-1897" as="targetPoint" />
          </mxGeometry>
        </mxCell>
        <mxCell id="1RI823N9lkYlSuivJZN4-13" value="&lt;div&gt;&lt;span style=&quot;background-color: transparent; color: light-dark(rgb(0, 0, 0), rgb(255, 255, 255));&quot;&gt;&lt;b&gt;&lt;font style=&quot;font-size: 11px;&quot;&gt;&lt;br&gt;&lt;/font&gt;&lt;/b&gt;&lt;/span&gt;&lt;/div&gt;&lt;div&gt;&lt;span style=&quot;background-color: transparent; color: light-dark(rgb(0, 0, 0), rgb(255, 255, 255));&quot;&gt;&lt;b&gt;&lt;font style=&quot;font-size: 11px;&quot;&gt;if len(dataparfum)&amp;nbsp;&lt;/font&gt;&lt;/b&gt;&lt;/span&gt;&lt;/div&gt;&lt;div&gt;&lt;font style=&quot;font-size: 11px;&quot;&gt;&lt;b&gt;== 0&lt;/b&gt;&lt;/font&gt;&lt;/div&gt;" style="rhombus;whiteSpace=wrap;html=1;fillColor=none;strokeWidth=2;" vertex="1" parent="1RI823N9lkYlSuivJZN4-1">
          <mxGeometry x="-1245" y="-1700" width="118" height="120" as="geometry" />
        </mxCell>
        <mxCell id="1RI823N9lkYlSuivJZN4-14" value="&lt;div&gt;&lt;font style=&quot;font-size: 13px;&quot;&gt;&lt;b&gt;if opsi == 1&lt;/b&gt;&lt;/font&gt;&lt;/div&gt;" style="rhombus;whiteSpace=wrap;html=1;fillColor=none;strokeWidth=2;" vertex="1" parent="1RI823N9lkYlSuivJZN4-1">
          <mxGeometry x="-1470" y="-1898" width="118" height="120" as="geometry" />
        </mxCell>
        <mxCell id="1RI823N9lkYlSuivJZN4-19" value="&lt;span style=&quot;font-size: 11px;&quot;&gt;&lt;b&gt;Nama Parfum, Aroma Parfum,&amp;nbsp;&lt;/b&gt;&lt;/span&gt;&lt;div&gt;&lt;span style=&quot;font-size: 11px;&quot;&gt;&lt;b&gt;Harga Parfum&lt;/b&gt;&lt;/span&gt;&lt;/div&gt;" style="shape=parallelogram;perimeter=parallelogramPerimeter;whiteSpace=wrap;html=1;fixedSize=1;fillColor=none;strokeWidth=2;strokeColor=light-dark(#000000,#FFFFFF);" vertex="1" parent="1RI823N9lkYlSuivJZN4-1">
          <mxGeometry x="-1250" y="-1868" width="226" height="60" as="geometry" />
        </mxCell>
        <mxCell id="1RI823N9lkYlSuivJZN4-20" value="" style="endArrow=classic;html=1;rounded=0;fontSize=12;startSize=8;endSize=8;curved=1;strokeColor=light-dark(#000000,#FFFFFF);strokeWidth=2;" edge="1" parent="1RI823N9lkYlSuivJZN4-1">
          <mxGeometry width="50" height="50" relative="1" as="geometry">
            <mxPoint x="-1270" y="-1860" as="sourcePoint" />
            <mxPoint x="-1233" y="-1860" as="targetPoint" />
          </mxGeometry>
        </mxCell>
        <mxCell id="1RI823N9lkYlSuivJZN4-21" value="" style="endArrow=classic;html=1;rounded=0;fontSize=12;startSize=8;endSize=8;curved=0;strokeColor=light-dark(#000000,#FFFFFF);strokeWidth=2;entryX=1;entryY=0.5;entryDx=0;entryDy=0;exitX=0.5;exitY=0;exitDx=0;exitDy=0;" edge="1" parent="1RI823N9lkYlSuivJZN4-1" source="f6-VE510nWK6nywFye47-0" target="1RI823N9lkYlSuivJZN4-3">
          <mxGeometry width="50" height="50" relative="1" as="geometry">
            <mxPoint x="-1110" y="-2070" as="sourcePoint" />
            <mxPoint x="-1164" y="-2108" as="targetPoint" />
            <Array as="points">
              <mxPoint x="-1137" y="-2140" />
            </Array>
          </mxGeometry>
        </mxCell>
        <mxCell id="1RI823N9lkYlSuivJZN4-45" value="&lt;div&gt;&lt;font style=&quot;font-size: 13px;&quot;&gt;&lt;b&gt;if opsi == 2&lt;/b&gt;&lt;/font&gt;&lt;/div&gt;" style="rhombus;whiteSpace=wrap;html=1;fillColor=none;strokeWidth=2;" vertex="1" parent="1RI823N9lkYlSuivJZN4-1">
          <mxGeometry x="-1470" y="-1700" width="118" height="120" as="geometry" />
        </mxCell>
        <mxCell id="1RI823N9lkYlSuivJZN4-46" value="&lt;b&gt;&lt;font style=&quot;color: light-dark(rgb(0, 0, 0), rgb(230, 208, 222));&quot;&gt;B&lt;/font&gt;&lt;/b&gt;" style="shape=offPageConnector;whiteSpace=wrap;html=1;fillColor=#60a917;size=0.2000000000000023;strokeWidth=2;fontColor=#ffffff;strokeColor=#2D7600;" vertex="1" parent="1RI823N9lkYlSuivJZN4-1">
          <mxGeometry x="-1436" y="-2300" width="50" height="50" as="geometry" />
        </mxCell>
        <mxCell id="1RI823N9lkYlSuivJZN4-47" value="" style="endArrow=classic;html=1;rounded=0;fontSize=12;startSize=8;endSize=8;curved=0;strokeColor=light-dark(#000000,#FFFFFF);strokeWidth=2;" edge="1" parent="1RI823N9lkYlSuivJZN4-1">
          <mxGeometry width="50" height="50" relative="1" as="geometry">
            <mxPoint x="-1411.12" y="-2250" as="sourcePoint" />
            <mxPoint x="-1411.12" y="-2169" as="targetPoint" />
          </mxGeometry>
        </mxCell>
        <mxCell id="1RI823N9lkYlSuivJZN4-56" style="edgeStyle=none;curved=0;rounded=0;orthogonalLoop=1;jettySize=auto;html=1;fontSize=12;startSize=8;endSize=8;strokeWidth=2;exitX=0.049;exitY=0.47;exitDx=0;exitDy=0;entryX=0;entryY=0.5;entryDx=0;entryDy=0;exitPerimeter=0;" edge="1" parent="1RI823N9lkYlSuivJZN4-1" source="1RI823N9lkYlSuivJZN4-53" target="1RI823N9lkYlSuivJZN4-3">
          <mxGeometry relative="1" as="geometry">
            <mxPoint x="-1492.4" y="-2138" as="targetPoint" />
            <mxPoint x="-1533" y="-789.7" as="sourcePoint" />
            <Array as="points">
              <mxPoint x="-1610" y="-322" />
              <mxPoint x="-1610" y="-2138" />
            </Array>
          </mxGeometry>
        </mxCell>
        <mxCell id="f6-VE510nWK6nywFye47-0" value="&lt;span style=&quot;font-size: 13px;&quot;&gt;&lt;b&gt;&#39;Data Berhasil Ditambahkan&#39;&lt;/b&gt;&lt;/span&gt;" style="shape=parallelogram;perimeter=parallelogramPerimeter;whiteSpace=wrap;html=1;fixedSize=1;fillColor=none;strokeWidth=2;strokeColor=light-dark(#000000,#FFFFFF);" vertex="1" parent="1RI823N9lkYlSuivJZN4-1">
          <mxGeometry x="-1250" y="-2028" width="226" height="60" as="geometry" />
        </mxCell>
        <mxCell id="f6-VE510nWK6nywFye47-1" value="" style="endArrow=classic;html=1;rounded=0;fontSize=12;startSize=8;endSize=8;curved=1;strokeColor=light-dark(#000000,#FFFFFF);strokeWidth=2;" edge="1" parent="1RI823N9lkYlSuivJZN4-1">
          <mxGeometry width="50" height="50" relative="1" as="geometry">
            <mxPoint x="-1041" y="-1978" as="sourcePoint" />
            <mxPoint x="-1004" y="-1978" as="targetPoint" />
          </mxGeometry>
        </mxCell>
        <mxCell id="f6-VE510nWK6nywFye47-3" value="" style="endArrow=classic;html=1;rounded=0;fontSize=12;startSize=8;endSize=8;curved=0;strokeColor=light-dark(#000000,#FFFFFF);strokeWidth=2;exitX=0.5;exitY=0;exitDx=0;exitDy=0;entryX=0.5;entryY=1;entryDx=0;entryDy=0;" edge="1" parent="1RI823N9lkYlSuivJZN4-1" source="1RI823N9lkYlSuivJZN4-19" target="f6-VE510nWK6nywFye47-0">
          <mxGeometry width="50" height="50" relative="1" as="geometry">
            <mxPoint x="-1143.22" y="-1960" as="sourcePoint" />
            <mxPoint x="-1090" y="-1940" as="targetPoint" />
          </mxGeometry>
        </mxCell>
        <mxCell id="f6-VE510nWK6nywFye47-4" value="" style="endArrow=classic;html=1;rounded=0;fontSize=12;startSize=8;endSize=8;curved=0;strokeColor=light-dark(#000000,#FFFFFF);strokeWidth=2;entryX=0.5;entryY=0;entryDx=0;entryDy=0;" edge="1" parent="1RI823N9lkYlSuivJZN4-1" target="1RI823N9lkYlSuivJZN4-45">
          <mxGeometry width="50" height="50" relative="1" as="geometry">
            <mxPoint x="-1411.01" y="-1778" as="sourcePoint" />
            <mxPoint x="-1410" y="-1710" as="targetPoint" />
          </mxGeometry>
        </mxCell>
        <mxCell id="f6-VE510nWK6nywFye47-6" value="&lt;span&gt;&lt;span&gt;False&lt;/span&gt;&lt;/span&gt;" style="edgeLabel;html=1;align=center;verticalAlign=middle;resizable=0;points=[];fontSize=13;labelBackgroundColor=light-dark(#FFFFFF,#000000);fontStyle=1" connectable="0" vertex="1" parent="1RI823N9lkYlSuivJZN4-1">
          <mxGeometry x="-1405" y="-1740" as="geometry">
            <mxPoint x="-6" y="-4" as="offset" />
          </mxGeometry>
        </mxCell>
        <mxCell id="f6-VE510nWK6nywFye47-11" style="edgeStyle=none;curved=1;rounded=0;orthogonalLoop=1;jettySize=auto;html=1;fontSize=12;startSize=8;endSize=8;strokeWidth=2;exitX=0.995;exitY=0.5;exitDx=0;exitDy=0;exitPerimeter=0;entryX=0;entryY=0.5;entryDx=0;entryDy=0;" edge="1" parent="1RI823N9lkYlSuivJZN4-1" target="1RI823N9lkYlSuivJZN4-13">
          <mxGeometry relative="1" as="geometry">
            <mxPoint x="-1248.66" y="-1640.06" as="targetPoint" />
            <mxPoint x="-1352" y="-1640.06" as="sourcePoint" />
          </mxGeometry>
        </mxCell>
        <mxCell id="f6-VE510nWK6nywFye47-12" value="&lt;b&gt;True&lt;/b&gt;" style="edgeLabel;html=1;align=center;verticalAlign=middle;resizable=0;points=[];fontSize=13;labelBackgroundColor=light-dark(#FFFFFF,#000000);" connectable="0" vertex="1" parent="f6-VE510nWK6nywFye47-11">
          <mxGeometry x="-0.2147" relative="1" as="geometry">
            <mxPoint x="5" y="-1" as="offset" />
          </mxGeometry>
        </mxCell>
        <mxCell id="f6-VE510nWK6nywFye47-13" style="edgeStyle=none;curved=1;rounded=0;orthogonalLoop=1;jettySize=auto;html=1;entryX=0;entryY=0.5;entryDx=0;entryDy=0;fontSize=12;startSize=8;endSize=8;" edge="1" parent="1RI823N9lkYlSuivJZN4-1" source="1RI823N9lkYlSuivJZN4-13" target="1RI823N9lkYlSuivJZN4-13">
          <mxGeometry relative="1" as="geometry" />
        </mxCell>
        <mxCell id="f6-VE510nWK6nywFye47-14" style="edgeStyle=none;curved=1;rounded=0;orthogonalLoop=1;jettySize=auto;html=1;fontSize=12;startSize=8;endSize=8;strokeWidth=2;exitX=0.995;exitY=0.5;exitDx=0;exitDy=0;exitPerimeter=0;entryX=0;entryY=0.5;entryDx=0;entryDy=0;" edge="1" parent="1RI823N9lkYlSuivJZN4-1">
          <mxGeometry relative="1" as="geometry">
            <mxPoint x="-1020" y="-1640.03" as="targetPoint" />
            <mxPoint x="-1127" y="-1640.09" as="sourcePoint" />
          </mxGeometry>
        </mxCell>
        <mxCell id="f6-VE510nWK6nywFye47-15" value="&lt;b&gt;True&lt;/b&gt;" style="edgeLabel;html=1;align=center;verticalAlign=middle;resizable=0;points=[];fontSize=13;labelBackgroundColor=light-dark(#FFFFFF,#000000);" connectable="0" vertex="1" parent="f6-VE510nWK6nywFye47-14">
          <mxGeometry x="-0.2147" relative="1" as="geometry">
            <mxPoint x="5" y="-1" as="offset" />
          </mxGeometry>
        </mxCell>
        <mxCell id="f6-VE510nWK6nywFye47-16" value="" style="endArrow=classic;html=1;rounded=0;fontSize=12;startSize=8;endSize=8;curved=0;strokeColor=light-dark(#000000,#FFFFFF);strokeWidth=2;" edge="1" parent="1RI823N9lkYlSuivJZN4-1">
          <mxGeometry width="50" height="50" relative="1" as="geometry">
            <mxPoint x="-1186.2" y="-1580" as="sourcePoint" />
            <mxPoint x="-1186" y="-1480" as="targetPoint" />
          </mxGeometry>
        </mxCell>
        <mxCell id="f6-VE510nWK6nywFye47-17" value="&lt;span&gt;&lt;b&gt;False&lt;/b&gt;&lt;/span&gt;" style="edgeLabel;html=1;align=center;verticalAlign=middle;resizable=0;points=[];fontSize=13;labelBackgroundColor=light-dark(#FFFFFF,#000000);" connectable="0" vertex="1" parent="1RI823N9lkYlSuivJZN4-1">
          <mxGeometry x="-1180" y="-1534" as="geometry">
            <mxPoint x="-6" y="-4" as="offset" />
          </mxGeometry>
        </mxCell>
        <mxCell id="f6-VE510nWK6nywFye47-18" value="&lt;span style=&quot;font-size: 13px;&quot;&gt;&lt;b&gt;&#39;Daftar Belum Ada, Silahkan&lt;/b&gt;&lt;/span&gt;&lt;div&gt;&lt;span style=&quot;font-size: 13px;&quot;&gt;&lt;b&gt;Tambah Data Dulu&#39;&lt;/b&gt;&lt;/span&gt;&lt;/div&gt;" style="shape=parallelogram;perimeter=parallelogramPerimeter;whiteSpace=wrap;html=1;fixedSize=1;fillColor=none;strokeWidth=2;strokeColor=light-dark(#000000,#FFFFFF);" vertex="1" parent="1RI823N9lkYlSuivJZN4-1">
          <mxGeometry x="-1030" y="-1670" width="226" height="60" as="geometry" />
        </mxCell>
        <mxCell id="f6-VE510nWK6nywFye47-19" value="" style="endArrow=classic;html=1;rounded=0;fontSize=12;startSize=8;endSize=8;curved=1;strokeColor=light-dark(#000000,#FFFFFF);strokeWidth=2;" edge="1" parent="1RI823N9lkYlSuivJZN4-1">
          <mxGeometry width="50" height="50" relative="1" as="geometry">
            <mxPoint x="-821" y="-1620" as="sourcePoint" />
            <mxPoint x="-784" y="-1620" as="targetPoint" />
          </mxGeometry>
        </mxCell>
        <mxCell id="f6-VE510nWK6nywFye47-20" value="" style="endArrow=none;html=1;rounded=0;fontSize=12;startSize=8;endSize=8;curved=0;strokeWidth=2;exitX=0.5;exitY=0;exitDx=0;exitDy=0;" edge="1" parent="1RI823N9lkYlSuivJZN4-1" source="f6-VE510nWK6nywFye47-18">
          <mxGeometry width="50" height="50" relative="1" as="geometry">
            <mxPoint x="-940" y="-1850" as="sourcePoint" />
            <mxPoint x="-1140" y="-2140" as="targetPoint" />
            <Array as="points">
              <mxPoint x="-917" y="-2140" />
            </Array>
          </mxGeometry>
        </mxCell>
        <mxCell id="f6-VE510nWK6nywFye47-21" value="&lt;span style=&quot;font-size: 13px;&quot;&gt;&lt;b&gt;&#39;Daftar Parfum&lt;/b&gt;&lt;/span&gt;&lt;b style=&quot;font-size: 13px; background-color: transparent; color: light-dark(rgb(0, 0, 0), rgb(255, 255, 255));&quot;&gt;&#39;&lt;/b&gt;" style="shape=parallelogram;perimeter=parallelogramPerimeter;whiteSpace=wrap;html=1;fixedSize=1;fillColor=none;strokeWidth=2;strokeColor=light-dark(#000000,#FFFFFF);" vertex="1" parent="1RI823N9lkYlSuivJZN4-1">
          <mxGeometry x="-1299" y="-1480" width="226" height="60" as="geometry" />
        </mxCell>
        <mxCell id="f6-VE510nWK6nywFye47-22" value="" style="endArrow=classic;html=1;rounded=0;fontSize=12;startSize=8;endSize=8;curved=1;strokeColor=light-dark(#000000,#FFFFFF);strokeWidth=2;" edge="1" parent="1RI823N9lkYlSuivJZN4-1">
          <mxGeometry width="50" height="50" relative="1" as="geometry">
            <mxPoint x="-1090" y="-1430" as="sourcePoint" />
            <mxPoint x="-1053" y="-1430" as="targetPoint" />
          </mxGeometry>
        </mxCell>
        <mxCell id="f6-VE510nWK6nywFye47-23" value="" style="endArrow=none;html=1;rounded=0;fontSize=12;startSize=8;endSize=8;curved=0;strokeWidth=2;exitX=1;exitY=0.5;exitDx=0;exitDy=0;" edge="1" parent="1RI823N9lkYlSuivJZN4-1" source="f6-VE510nWK6nywFye47-21">
          <mxGeometry width="50" height="50" relative="1" as="geometry">
            <mxPoint x="-1080" y="-1450" as="sourcePoint" />
            <mxPoint x="-920" y="-2140" as="targetPoint" />
            <Array as="points">
              <mxPoint x="-700" y="-1450" />
              <mxPoint x="-700" y="-2140" />
            </Array>
          </mxGeometry>
        </mxCell>
        <mxCell id="f6-VE510nWK6nywFye47-25" value="" style="endArrow=classic;html=1;rounded=0;fontSize=12;startSize=8;endSize=8;curved=0;strokeColor=light-dark(#000000,#FFFFFF);strokeWidth=2;entryX=0.5;entryY=0;entryDx=0;entryDy=0;" edge="1" parent="1RI823N9lkYlSuivJZN4-1" target="f6-VE510nWK6nywFye47-26">
          <mxGeometry width="50" height="50" relative="1" as="geometry">
            <mxPoint x="-1411.04" y="-1580" as="sourcePoint" />
            <mxPoint x="-1411" y="-1370" as="targetPoint" />
          </mxGeometry>
        </mxCell>
        <mxCell id="f6-VE510nWK6nywFye47-26" value="&lt;div&gt;&lt;font style=&quot;font-size: 13px;&quot;&gt;&lt;b&gt;if opsi == 3&lt;/b&gt;&lt;/font&gt;&lt;/div&gt;" style="rhombus;whiteSpace=wrap;html=1;fillColor=none;strokeWidth=2;" vertex="1" parent="1RI823N9lkYlSuivJZN4-1">
          <mxGeometry x="-1470" y="-1360" width="118" height="120" as="geometry" />
        </mxCell>
        <mxCell id="f6-VE510nWK6nywFye47-27" style="edgeStyle=none;curved=1;rounded=0;orthogonalLoop=1;jettySize=auto;html=1;fontSize=12;startSize=8;endSize=8;strokeWidth=2;exitX=0.995;exitY=0.5;exitDx=0;exitDy=0;exitPerimeter=0;entryX=0;entryY=0.5;entryDx=0;entryDy=0;" edge="1" parent="1RI823N9lkYlSuivJZN4-1">
          <mxGeometry relative="1" as="geometry">
            <mxPoint x="-1245" y="-1300" as="targetPoint" />
            <mxPoint x="-1352" y="-1300.06" as="sourcePoint" />
          </mxGeometry>
        </mxCell>
        <mxCell id="f6-VE510nWK6nywFye47-28" value="&lt;b&gt;True&lt;/b&gt;" style="edgeLabel;html=1;align=center;verticalAlign=middle;resizable=0;points=[];fontSize=13;labelBackgroundColor=light-dark(#FFFFFF,#000000);" connectable="0" vertex="1" parent="f6-VE510nWK6nywFye47-27">
          <mxGeometry x="-0.2147" relative="1" as="geometry">
            <mxPoint x="5" y="-1" as="offset" />
          </mxGeometry>
        </mxCell>
        <mxCell id="f6-VE510nWK6nywFye47-31" style="edgeStyle=none;curved=1;rounded=0;orthogonalLoop=1;jettySize=auto;html=1;fontSize=12;startSize=8;endSize=8;strokeWidth=2;exitX=0.995;exitY=0.5;exitDx=0;exitDy=0;exitPerimeter=0;entryX=0;entryY=0.5;entryDx=0;entryDy=0;" edge="1" parent="1RI823N9lkYlSuivJZN4-1">
          <mxGeometry relative="1" as="geometry">
            <mxPoint x="-1055" y="-1300.22" as="targetPoint" />
            <mxPoint x="-1162" y="-1300.28" as="sourcePoint" />
          </mxGeometry>
        </mxCell>
        <mxCell id="f6-VE510nWK6nywFye47-33" value="&lt;div&gt;&lt;font style=&quot;font-size: 13px;&quot;&gt;&lt;b&gt;if nama in&lt;/b&gt;&lt;/font&gt;&lt;/div&gt;&lt;div&gt;&lt;font style=&quot;font-size: 13px;&quot;&gt;&lt;b&gt;dataparfum&lt;/b&gt;&lt;/font&gt;&lt;/div&gt;" style="rhombus;whiteSpace=wrap;html=1;fillColor=none;strokeWidth=2;" vertex="1" parent="1RI823N9lkYlSuivJZN4-1">
          <mxGeometry x="-1055" y="-1360" width="118" height="120" as="geometry" />
        </mxCell>
        <mxCell id="f6-VE510nWK6nywFye47-35" style="edgeStyle=none;curved=1;rounded=0;orthogonalLoop=1;jettySize=auto;html=1;fontSize=12;startSize=8;endSize=8;strokeWidth=2;exitX=0.995;exitY=0.5;exitDx=0;exitDy=0;exitPerimeter=0;entryX=0;entryY=0.5;entryDx=0;entryDy=0;" edge="1" parent="1RI823N9lkYlSuivJZN4-1">
          <mxGeometry relative="1" as="geometry">
            <mxPoint x="-830" y="-1299.94" as="targetPoint" />
            <mxPoint x="-937" y="-1300" as="sourcePoint" />
          </mxGeometry>
        </mxCell>
        <mxCell id="f6-VE510nWK6nywFye47-36" value="&lt;b&gt;True&lt;/b&gt;" style="edgeLabel;html=1;align=center;verticalAlign=middle;resizable=0;points=[];fontSize=13;labelBackgroundColor=light-dark(#FFFFFF,#000000);" connectable="0" vertex="1" parent="f6-VE510nWK6nywFye47-35">
          <mxGeometry x="-0.2147" relative="1" as="geometry">
            <mxPoint x="5" y="-1" as="offset" />
          </mxGeometry>
        </mxCell>
        <mxCell id="f6-VE510nWK6nywFye47-37" value="&lt;b&gt;nama&lt;/b&gt;" style="shape=parallelogram;perimeter=parallelogramPerimeter;whiteSpace=wrap;html=1;fixedSize=1;fillColor=none;strokeWidth=2;strokeColor=light-dark(#000000,#FFFFFF);" vertex="1" parent="1RI823N9lkYlSuivJZN4-1">
          <mxGeometry x="-1255" y="-1325" width="102" height="50" as="geometry" />
        </mxCell>
        <mxCell id="f6-VE510nWK6nywFye47-38" value="" style="endArrow=classic;html=1;rounded=0;fontSize=12;startSize=8;endSize=8;curved=1;strokeColor=light-dark(#000000,#FFFFFF);strokeWidth=2;" edge="1" parent="1RI823N9lkYlSuivJZN4-1">
          <mxGeometry width="50" height="50" relative="1" as="geometry">
            <mxPoint x="-1276" y="-1315" as="sourcePoint" />
            <mxPoint x="-1239" y="-1315" as="targetPoint" />
          </mxGeometry>
        </mxCell>
        <mxCell id="f6-VE510nWK6nywFye47-39" style="edgeStyle=none;curved=1;rounded=0;orthogonalLoop=1;jettySize=auto;html=1;fontSize=12;startSize=8;endSize=8;strokeWidth=2;exitX=0.995;exitY=0.5;exitDx=0;exitDy=0;exitPerimeter=0;entryX=0.499;entryY=0;entryDx=0;entryDy=0;entryPerimeter=0;" edge="1" parent="1RI823N9lkYlSuivJZN4-1" target="f6-VE510nWK6nywFye47-42">
          <mxGeometry relative="1" as="geometry">
            <mxPoint x="-996.26" y="-1130" as="targetPoint" />
            <mxPoint x="-996.26" y="-1240" as="sourcePoint" />
          </mxGeometry>
        </mxCell>
        <mxCell id="f6-VE510nWK6nywFye47-41" value="&lt;b&gt;False&lt;/b&gt;" style="edgeLabel;html=1;align=center;verticalAlign=middle;resizable=0;points=[];fontSize=13;labelBackgroundColor=light-dark(#FFFFFF,#000000);" connectable="0" vertex="1" parent="1RI823N9lkYlSuivJZN4-1">
          <mxGeometry x="-996" y="-1195" as="geometry" />
        </mxCell>
        <mxCell id="f6-VE510nWK6nywFye47-42" value="&lt;span style=&quot;font-size: 13px;&quot;&gt;&lt;b&gt;&#39;Data Tidak Ditemukan&#39;&lt;/b&gt;&lt;/span&gt;" style="shape=parallelogram;perimeter=parallelogramPerimeter;whiteSpace=wrap;html=1;fixedSize=1;fillColor=none;strokeWidth=2;strokeColor=light-dark(#000000,#FFFFFF);" vertex="1" parent="1RI823N9lkYlSuivJZN4-1">
          <mxGeometry x="-1109" y="-1140" width="226" height="60" as="geometry" />
        </mxCell>
        <mxCell id="f6-VE510nWK6nywFye47-43" value="" style="endArrow=classic;html=1;rounded=0;fontSize=12;startSize=8;endSize=8;curved=1;strokeColor=light-dark(#000000,#FFFFFF);strokeWidth=2;" edge="1" parent="1RI823N9lkYlSuivJZN4-1">
          <mxGeometry width="50" height="50" relative="1" as="geometry">
            <mxPoint x="-899" y="-1090" as="sourcePoint" />
            <mxPoint x="-862" y="-1090" as="targetPoint" />
          </mxGeometry>
        </mxCell>
        <mxCell id="f6-VE510nWK6nywFye47-45" value="&lt;span style=&quot;font-size: 11px;&quot;&gt;&lt;b&gt;Nama Baru, Aroma Baru,&amp;nbsp;&lt;/b&gt;&lt;/span&gt;&lt;div&gt;&lt;span style=&quot;font-size: 11px;&quot;&gt;&lt;b&gt;Harga Baru&lt;/b&gt;&lt;/span&gt;&lt;/div&gt;" style="shape=parallelogram;perimeter=parallelogramPerimeter;whiteSpace=wrap;html=1;fixedSize=1;fillColor=none;strokeWidth=2;strokeColor=light-dark(#000000,#FFFFFF);" vertex="1" parent="1RI823N9lkYlSuivJZN4-1">
          <mxGeometry x="-840" y="-1330" width="226" height="60" as="geometry" />
        </mxCell>
        <mxCell id="f6-VE510nWK6nywFye47-46" value="" style="endArrow=classic;html=1;rounded=0;fontSize=12;startSize=8;endSize=8;curved=1;strokeColor=light-dark(#000000,#FFFFFF);strokeWidth=2;" edge="1" parent="1RI823N9lkYlSuivJZN4-1">
          <mxGeometry width="50" height="50" relative="1" as="geometry">
            <mxPoint x="-860" y="-1322" as="sourcePoint" />
            <mxPoint x="-823" y="-1322" as="targetPoint" />
          </mxGeometry>
        </mxCell>
        <mxCell id="f6-VE510nWK6nywFye47-48" value="&lt;span style=&quot;font-size: 13px;&quot;&gt;&lt;b&gt;&#39;Data Berhasil Di Update&#39;&lt;/b&gt;&lt;/span&gt;" style="shape=parallelogram;perimeter=parallelogramPerimeter;whiteSpace=wrap;html=1;fixedSize=1;fillColor=none;strokeWidth=2;strokeColor=light-dark(#000000,#FFFFFF);" vertex="1" parent="1RI823N9lkYlSuivJZN4-1">
          <mxGeometry x="-839.5" y="-1140" width="226" height="60" as="geometry" />
        </mxCell>
        <mxCell id="f6-VE510nWK6nywFye47-49" value="" style="endArrow=classic;html=1;rounded=0;fontSize=12;startSize=8;endSize=8;curved=1;strokeColor=light-dark(#000000,#FFFFFF);strokeWidth=2;" edge="1" parent="1RI823N9lkYlSuivJZN4-1">
          <mxGeometry width="50" height="50" relative="1" as="geometry">
            <mxPoint x="-629.5" y="-1090" as="sourcePoint" />
            <mxPoint x="-592.5" y="-1090" as="targetPoint" />
          </mxGeometry>
        </mxCell>
        <mxCell id="f6-VE510nWK6nywFye47-51" style="edgeStyle=none;curved=1;rounded=0;orthogonalLoop=1;jettySize=auto;html=1;fontSize=12;startSize=8;endSize=8;strokeWidth=2;exitX=0.995;exitY=0.5;exitDx=0;exitDy=0;exitPerimeter=0;entryX=0.5;entryY=0;entryDx=0;entryDy=0;" edge="1" parent="1RI823N9lkYlSuivJZN4-1" target="f6-VE510nWK6nywFye47-48">
          <mxGeometry relative="1" as="geometry">
            <mxPoint x="-727.12" y="-1170" as="targetPoint" />
            <mxPoint x="-727.38" y="-1270" as="sourcePoint" />
          </mxGeometry>
        </mxCell>
        <mxCell id="f6-VE510nWK6nywFye47-53" value="&lt;span&gt;&lt;span&gt;False&lt;/span&gt;&lt;/span&gt;" style="edgeLabel;html=1;align=center;verticalAlign=middle;resizable=0;points=[];fontSize=13;labelBackgroundColor=light-dark(#FFFFFF,#000000);fontStyle=1" connectable="0" vertex="1" parent="1RI823N9lkYlSuivJZN4-1">
          <mxGeometry x="-1405" y="-1530" as="geometry">
            <mxPoint x="-6" y="-4" as="offset" />
          </mxGeometry>
        </mxCell>
        <mxCell id="f6-VE510nWK6nywFye47-54" value="" style="endArrow=none;html=1;rounded=0;fontSize=12;startSize=8;endSize=8;curved=0;strokeWidth=2;exitX=0.481;exitY=1.016;exitDx=0;exitDy=0;exitPerimeter=0;" edge="1" parent="1RI823N9lkYlSuivJZN4-1" source="f6-VE510nWK6nywFye47-42">
          <mxGeometry width="50" height="50" relative="1" as="geometry">
            <mxPoint x="-1000" y="-1050" as="sourcePoint" />
            <mxPoint x="-707" y="-2140" as="targetPoint" />
            <Array as="points">
              <mxPoint x="-1000" y="-1030" />
              <mxPoint x="-490" y="-1030" />
              <mxPoint x="-487" y="-2140" />
            </Array>
          </mxGeometry>
        </mxCell>
        <mxCell id="f6-VE510nWK6nywFye47-55" value="" style="endArrow=none;html=1;rounded=0;fontSize=12;startSize=8;endSize=8;curved=0;strokeWidth=2;entryX=0.5;entryY=1;entryDx=0;entryDy=0;" edge="1" parent="1RI823N9lkYlSuivJZN4-1" target="f6-VE510nWK6nywFye47-48">
          <mxGeometry width="50" height="50" relative="1" as="geometry">
            <mxPoint x="-727" y="-1030" as="sourcePoint" />
            <mxPoint x="-760" y="-1100" as="targetPoint" />
          </mxGeometry>
        </mxCell>
        <mxCell id="M_6bx6nVmpniDAuHOs42-13" value="&lt;div&gt;&lt;font style=&quot;font-size: 13px;&quot;&gt;&lt;b&gt;if opsi == 4&lt;/b&gt;&lt;/font&gt;&lt;/div&gt;" style="rhombus;whiteSpace=wrap;html=1;fillColor=none;strokeWidth=2;" vertex="1" parent="1RI823N9lkYlSuivJZN4-1">
          <mxGeometry x="-1471" y="-978" width="118" height="120" as="geometry" />
        </mxCell>
        <mxCell id="M_6bx6nVmpniDAuHOs42-14" style="edgeStyle=none;curved=1;rounded=0;orthogonalLoop=1;jettySize=auto;html=1;fontSize=12;startSize=8;endSize=8;strokeWidth=2;exitX=0.995;exitY=0.5;exitDx=0;exitDy=0;exitPerimeter=0;entryX=0;entryY=0.5;entryDx=0;entryDy=0;" edge="1" parent="1RI823N9lkYlSuivJZN4-1">
          <mxGeometry relative="1" as="geometry">
            <mxPoint x="-1246" y="-918" as="targetPoint" />
            <mxPoint x="-1353" y="-918.06" as="sourcePoint" />
          </mxGeometry>
        </mxCell>
        <mxCell id="M_6bx6nVmpniDAuHOs42-15" value="&lt;b&gt;True&lt;/b&gt;" style="edgeLabel;html=1;align=center;verticalAlign=middle;resizable=0;points=[];fontSize=13;labelBackgroundColor=light-dark(#FFFFFF,#000000);" connectable="0" vertex="1" parent="M_6bx6nVmpniDAuHOs42-14">
          <mxGeometry x="-0.2147" relative="1" as="geometry">
            <mxPoint x="5" y="-1" as="offset" />
          </mxGeometry>
        </mxCell>
        <mxCell id="M_6bx6nVmpniDAuHOs42-16" style="edgeStyle=none;curved=1;rounded=0;orthogonalLoop=1;jettySize=auto;html=1;fontSize=12;startSize=8;endSize=8;strokeWidth=2;exitX=0.995;exitY=0.5;exitDx=0;exitDy=0;exitPerimeter=0;entryX=0;entryY=0.5;entryDx=0;entryDy=0;" edge="1" parent="1RI823N9lkYlSuivJZN4-1">
          <mxGeometry relative="1" as="geometry">
            <mxPoint x="-1056" y="-918.22" as="targetPoint" />
            <mxPoint x="-1163" y="-918.28" as="sourcePoint" />
          </mxGeometry>
        </mxCell>
        <mxCell id="M_6bx6nVmpniDAuHOs42-17" value="&lt;div&gt;&lt;font style=&quot;font-size: 13px;&quot;&gt;&lt;b&gt;if nama in&lt;/b&gt;&lt;/font&gt;&lt;/div&gt;&lt;div&gt;&lt;font style=&quot;font-size: 13px;&quot;&gt;&lt;b&gt;dataparfum&lt;/b&gt;&lt;/font&gt;&lt;/div&gt;" style="rhombus;whiteSpace=wrap;html=1;fillColor=none;strokeWidth=2;" vertex="1" parent="1RI823N9lkYlSuivJZN4-1">
          <mxGeometry x="-1056" y="-978" width="118" height="120" as="geometry" />
        </mxCell>
        <mxCell id="M_6bx6nVmpniDAuHOs42-18" style="edgeStyle=none;curved=1;rounded=0;orthogonalLoop=1;jettySize=auto;html=1;fontSize=12;startSize=8;endSize=8;strokeWidth=2;exitX=0.995;exitY=0.5;exitDx=0;exitDy=0;exitPerimeter=0;entryX=0;entryY=0.5;entryDx=0;entryDy=0;" edge="1" parent="1RI823N9lkYlSuivJZN4-1">
          <mxGeometry relative="1" as="geometry">
            <mxPoint x="-831" y="-917.94" as="targetPoint" />
            <mxPoint x="-938" y="-918" as="sourcePoint" />
          </mxGeometry>
        </mxCell>
        <mxCell id="M_6bx6nVmpniDAuHOs42-19" value="&lt;b&gt;True&lt;/b&gt;" style="edgeLabel;html=1;align=center;verticalAlign=middle;resizable=0;points=[];fontSize=13;labelBackgroundColor=light-dark(#FFFFFF,#000000);" connectable="0" vertex="1" parent="M_6bx6nVmpniDAuHOs42-18">
          <mxGeometry x="-0.2147" relative="1" as="geometry">
            <mxPoint x="5" y="-1" as="offset" />
          </mxGeometry>
        </mxCell>
        <mxCell id="M_6bx6nVmpniDAuHOs42-20" value="&lt;b&gt;nama&lt;/b&gt;" style="shape=parallelogram;perimeter=parallelogramPerimeter;whiteSpace=wrap;html=1;fixedSize=1;fillColor=none;strokeWidth=2;strokeColor=light-dark(#000000,#FFFFFF);" vertex="1" parent="1RI823N9lkYlSuivJZN4-1">
          <mxGeometry x="-1256" y="-943" width="102" height="50" as="geometry" />
        </mxCell>
        <mxCell id="M_6bx6nVmpniDAuHOs42-21" value="" style="endArrow=classic;html=1;rounded=0;fontSize=12;startSize=8;endSize=8;curved=1;strokeColor=light-dark(#000000,#FFFFFF);strokeWidth=2;" edge="1" parent="1RI823N9lkYlSuivJZN4-1">
          <mxGeometry width="50" height="50" relative="1" as="geometry">
            <mxPoint x="-1277" y="-933" as="sourcePoint" />
            <mxPoint x="-1240" y="-933" as="targetPoint" />
          </mxGeometry>
        </mxCell>
        <mxCell id="M_6bx6nVmpniDAuHOs42-22" style="edgeStyle=none;curved=1;rounded=0;orthogonalLoop=1;jettySize=auto;html=1;fontSize=12;startSize=8;endSize=8;strokeWidth=2;exitX=0.995;exitY=0.5;exitDx=0;exitDy=0;exitPerimeter=0;entryX=0.499;entryY=0;entryDx=0;entryDy=0;entryPerimeter=0;" edge="1" parent="1RI823N9lkYlSuivJZN4-1" target="M_6bx6nVmpniDAuHOs42-23">
          <mxGeometry relative="1" as="geometry">
            <mxPoint x="-997.26" y="-748" as="targetPoint" />
            <mxPoint x="-997.26" y="-858" as="sourcePoint" />
          </mxGeometry>
        </mxCell>
        <mxCell id="M_6bx6nVmpniDAuHOs42-23" value="&lt;span style=&quot;font-size: 13px;&quot;&gt;&lt;b&gt;&#39;Data Tidak Ditemukan&#39;&lt;/b&gt;&lt;/span&gt;" style="shape=parallelogram;perimeter=parallelogramPerimeter;whiteSpace=wrap;html=1;fixedSize=1;fillColor=none;strokeWidth=2;strokeColor=light-dark(#000000,#FFFFFF);" vertex="1" parent="1RI823N9lkYlSuivJZN4-1">
          <mxGeometry x="-1110" y="-758" width="226" height="60" as="geometry" />
        </mxCell>
        <mxCell id="M_6bx6nVmpniDAuHOs42-24" value="" style="endArrow=classic;html=1;rounded=0;fontSize=12;startSize=8;endSize=8;curved=1;strokeColor=light-dark(#000000,#FFFFFF);strokeWidth=2;" edge="1" parent="1RI823N9lkYlSuivJZN4-1">
          <mxGeometry width="50" height="50" relative="1" as="geometry">
            <mxPoint x="-900" y="-708" as="sourcePoint" />
            <mxPoint x="-863" y="-708" as="targetPoint" />
          </mxGeometry>
        </mxCell>
        <mxCell id="M_6bx6nVmpniDAuHOs42-25" value="&lt;span style=&quot;font-size: 11px;&quot;&gt;&lt;b&gt;Nama Parfum Yang Ingin Di Hapus&lt;/b&gt;&lt;/span&gt;" style="shape=parallelogram;perimeter=parallelogramPerimeter;whiteSpace=wrap;html=1;fixedSize=1;fillColor=none;strokeWidth=2;strokeColor=light-dark(#000000,#FFFFFF);" vertex="1" parent="1RI823N9lkYlSuivJZN4-1">
          <mxGeometry x="-841" y="-948" width="226" height="60" as="geometry" />
        </mxCell>
        <mxCell id="M_6bx6nVmpniDAuHOs42-26" value="" style="endArrow=classic;html=1;rounded=0;fontSize=12;startSize=8;endSize=8;curved=1;strokeColor=light-dark(#000000,#FFFFFF);strokeWidth=2;" edge="1" parent="1RI823N9lkYlSuivJZN4-1">
          <mxGeometry width="50" height="50" relative="1" as="geometry">
            <mxPoint x="-861" y="-940" as="sourcePoint" />
            <mxPoint x="-824" y="-940" as="targetPoint" />
          </mxGeometry>
        </mxCell>
        <mxCell id="M_6bx6nVmpniDAuHOs42-27" value="&lt;span style=&quot;font-size: 13px;&quot;&gt;&lt;b&gt;&#39;Data Berhasil Dihapus&#39;&lt;/b&gt;&lt;/span&gt;" style="shape=parallelogram;perimeter=parallelogramPerimeter;whiteSpace=wrap;html=1;fixedSize=1;fillColor=none;strokeWidth=2;strokeColor=light-dark(#000000,#FFFFFF);" vertex="1" parent="1RI823N9lkYlSuivJZN4-1">
          <mxGeometry x="-840.5" y="-758" width="226" height="60" as="geometry" />
        </mxCell>
        <mxCell id="M_6bx6nVmpniDAuHOs42-28" value="" style="endArrow=classic;html=1;rounded=0;fontSize=12;startSize=8;endSize=8;curved=1;strokeColor=light-dark(#000000,#FFFFFF);strokeWidth=2;" edge="1" parent="1RI823N9lkYlSuivJZN4-1">
          <mxGeometry width="50" height="50" relative="1" as="geometry">
            <mxPoint x="-630.5" y="-708" as="sourcePoint" />
            <mxPoint x="-593.5" y="-708" as="targetPoint" />
          </mxGeometry>
        </mxCell>
        <mxCell id="M_6bx6nVmpniDAuHOs42-29" style="edgeStyle=none;curved=1;rounded=0;orthogonalLoop=1;jettySize=auto;html=1;fontSize=12;startSize=8;endSize=8;strokeWidth=2;exitX=0.995;exitY=0.5;exitDx=0;exitDy=0;exitPerimeter=0;entryX=0.5;entryY=0;entryDx=0;entryDy=0;" edge="1" parent="1RI823N9lkYlSuivJZN4-1" target="M_6bx6nVmpniDAuHOs42-27">
          <mxGeometry relative="1" as="geometry">
            <mxPoint x="-728.12" y="-788" as="targetPoint" />
            <mxPoint x="-728.38" y="-888" as="sourcePoint" />
          </mxGeometry>
        </mxCell>
        <mxCell id="M_6bx6nVmpniDAuHOs42-30" value="" style="endArrow=none;html=1;rounded=0;fontSize=12;startSize=8;endSize=8;curved=0;strokeWidth=2;exitX=0.481;exitY=1.016;exitDx=0;exitDy=0;exitPerimeter=0;" edge="1" parent="1RI823N9lkYlSuivJZN4-1" source="M_6bx6nVmpniDAuHOs42-23">
          <mxGeometry width="50" height="50" relative="1" as="geometry">
            <mxPoint x="-1001" y="-668" as="sourcePoint" />
            <mxPoint x="-488" y="-1808" as="targetPoint" />
            <Array as="points">
              <mxPoint x="-1001" y="-648" />
              <mxPoint x="-491" y="-648" />
              <mxPoint x="-488" y="-1758" />
            </Array>
          </mxGeometry>
        </mxCell>
        <mxCell id="M_6bx6nVmpniDAuHOs42-31" value="" style="endArrow=none;html=1;rounded=0;fontSize=12;startSize=8;endSize=8;curved=0;strokeWidth=2;entryX=0.5;entryY=1;entryDx=0;entryDy=0;" edge="1" parent="1RI823N9lkYlSuivJZN4-1" target="M_6bx6nVmpniDAuHOs42-27">
          <mxGeometry width="50" height="50" relative="1" as="geometry">
            <mxPoint x="-728" y="-648" as="sourcePoint" />
            <mxPoint x="-761" y="-718" as="targetPoint" />
          </mxGeometry>
        </mxCell>
        <mxCell id="sfD0z7zIN7TVOv4BCKVF-0" value="" style="endArrow=classic;html=1;rounded=0;fontSize=12;startSize=8;endSize=8;curved=0;strokeColor=light-dark(#000000,#FFFFFF);strokeWidth=2;entryX=0.5;entryY=0;entryDx=0;entryDy=0;" edge="1" parent="1RI823N9lkYlSuivJZN4-1" target="M_6bx6nVmpniDAuHOs42-13">
          <mxGeometry width="50" height="50" relative="1" as="geometry">
            <mxPoint x="-1411.04" y="-1240" as="sourcePoint" />
            <mxPoint x="-1411" y="-1020" as="targetPoint" />
          </mxGeometry>
        </mxCell>
        <mxCell id="sfD0z7zIN7TVOv4BCKVF-1" value="&lt;span&gt;&lt;span&gt;False&lt;/span&gt;&lt;/span&gt;" style="edgeLabel;html=1;align=center;verticalAlign=middle;resizable=0;points=[];fontSize=13;labelBackgroundColor=light-dark(#FFFFFF,#000000);fontStyle=1" connectable="0" vertex="1" parent="1RI823N9lkYlSuivJZN4-1">
          <mxGeometry x="-1405" y="-1190" as="geometry">
            <mxPoint x="-6" y="-4" as="offset" />
          </mxGeometry>
        </mxCell>
        <mxCell id="sfD0z7zIN7TVOv4BCKVF-2" value="&lt;div&gt;&lt;font style=&quot;font-size: 13px;&quot;&gt;&lt;b&gt;if opsi == 5&lt;/b&gt;&lt;/font&gt;&lt;/div&gt;" style="rhombus;whiteSpace=wrap;html=1;fillColor=none;strokeWidth=2;" vertex="1" parent="1RI823N9lkYlSuivJZN4-1">
          <mxGeometry x="-1472" y="-596" width="118" height="120" as="geometry" />
        </mxCell>
        <mxCell id="sfD0z7zIN7TVOv4BCKVF-3" value="" style="endArrow=classic;html=1;rounded=0;fontSize=12;startSize=8;endSize=8;curved=0;strokeColor=light-dark(#000000,#FFFFFF);strokeWidth=2;entryX=0.5;entryY=0;entryDx=0;entryDy=0;" edge="1" parent="1RI823N9lkYlSuivJZN4-1" target="sfD0z7zIN7TVOv4BCKVF-2">
          <mxGeometry width="50" height="50" relative="1" as="geometry">
            <mxPoint x="-1412.04" y="-858" as="sourcePoint" />
            <mxPoint x="-1412" y="-638" as="targetPoint" />
          </mxGeometry>
        </mxCell>
        <mxCell id="sfD0z7zIN7TVOv4BCKVF-4" value="&lt;span&gt;&lt;span&gt;False&lt;/span&gt;&lt;/span&gt;" style="edgeLabel;html=1;align=center;verticalAlign=middle;resizable=0;points=[];fontSize=13;labelBackgroundColor=light-dark(#FFFFFF,#000000);fontStyle=1" connectable="0" vertex="1" parent="1RI823N9lkYlSuivJZN4-1">
          <mxGeometry x="-1406" y="-808" as="geometry">
            <mxPoint x="-6" y="-4" as="offset" />
          </mxGeometry>
        </mxCell>
        <mxCell id="en_hXytXsQu071a-tJlO-0" value="&lt;span style=&quot;font-size: 11px;&quot;&gt;&lt;b&gt;&#39;Keluar Dari Menu Admin&#39;&lt;/b&gt;&lt;/span&gt;" style="shape=parallelogram;perimeter=parallelogramPerimeter;whiteSpace=wrap;html=1;fixedSize=1;fillColor=none;strokeWidth=2;strokeColor=light-dark(#000000,#FFFFFF);" vertex="1" parent="1RI823N9lkYlSuivJZN4-1">
          <mxGeometry x="-1256" y="-566" width="226" height="60" as="geometry" />
        </mxCell>
        <mxCell id="en_hXytXsQu071a-tJlO-1" value="" style="endArrow=classic;html=1;rounded=0;fontSize=12;startSize=8;endSize=8;curved=1;strokeColor=light-dark(#000000,#FFFFFF);strokeWidth=2;" edge="1" parent="1RI823N9lkYlSuivJZN4-1">
          <mxGeometry width="50" height="50" relative="1" as="geometry">
            <mxPoint x="-1046" y="-516" as="sourcePoint" />
            <mxPoint x="-1009" y="-516" as="targetPoint" />
          </mxGeometry>
        </mxCell>
        <mxCell id="en_hXytXsQu071a-tJlO-2" style="edgeStyle=none;curved=1;rounded=0;orthogonalLoop=1;jettySize=auto;html=1;fontSize=12;startSize=8;endSize=8;strokeWidth=2;exitX=0.995;exitY=0.5;exitDx=0;exitDy=0;exitPerimeter=0;" edge="1" parent="1RI823N9lkYlSuivJZN4-1">
          <mxGeometry relative="1" as="geometry">
            <mxPoint x="-937.0000000000001" y="-536.17" as="targetPoint" />
            <mxPoint x="-1040.34" y="-536.17" as="sourcePoint" />
          </mxGeometry>
        </mxCell>
        <mxCell id="en_hXytXsQu071a-tJlO-3" value="&lt;b&gt;C&lt;/b&gt;" style="shape=offPageConnector;whiteSpace=wrap;html=1;fillColor=light-dark(#FFFFFF,#CCCC00);size=0.2000000000000023;strokeWidth=2;" vertex="1" parent="1RI823N9lkYlSuivJZN4-1">
          <mxGeometry x="-937" y="-558" width="50" height="50" as="geometry" />
        </mxCell>
        <mxCell id="en_hXytXsQu071a-tJlO-4" style="edgeStyle=none;curved=1;rounded=0;orthogonalLoop=1;jettySize=auto;html=1;fontSize=12;startSize=8;endSize=8;strokeWidth=2;exitX=0.995;exitY=0.5;exitDx=0;exitDy=0;exitPerimeter=0;entryX=0;entryY=0.5;entryDx=0;entryDy=0;" edge="1" parent="1RI823N9lkYlSuivJZN4-1">
          <mxGeometry relative="1" as="geometry">
            <mxPoint x="-1247" y="-536" as="targetPoint" />
            <mxPoint x="-1354" y="-536.06" as="sourcePoint" />
          </mxGeometry>
        </mxCell>
        <mxCell id="en_hXytXsQu071a-tJlO-5" value="&lt;b&gt;True&lt;/b&gt;" style="edgeLabel;html=1;align=center;verticalAlign=middle;resizable=0;points=[];fontSize=13;labelBackgroundColor=light-dark(#FFFFFF,#000000);" connectable="0" vertex="1" parent="en_hXytXsQu071a-tJlO-4">
          <mxGeometry x="-0.2147" relative="1" as="geometry">
            <mxPoint x="5" y="-1" as="offset" />
          </mxGeometry>
        </mxCell>
        <mxCell id="en_hXytXsQu071a-tJlO-10" value="" style="endArrow=classic;html=1;rounded=0;fontSize=12;startSize=8;endSize=8;curved=0;strokeColor=light-dark(#000000,#FFFFFF);strokeWidth=2;" edge="1" parent="1RI823N9lkYlSuivJZN4-1">
          <mxGeometry width="50" height="50" relative="1" as="geometry">
            <mxPoint x="-1413.14" y="-476" as="sourcePoint" />
            <mxPoint x="-1413" y="-350" as="targetPoint" />
          </mxGeometry>
        </mxCell>
        <mxCell id="en_hXytXsQu071a-tJlO-7" value="&lt;span&gt;&lt;span&gt;False&lt;/span&gt;&lt;/span&gt;" style="edgeLabel;html=1;align=center;verticalAlign=middle;resizable=0;points=[];fontSize=13;labelBackgroundColor=light-dark(#FFFFFF,#000000);fontStyle=1" connectable="0" vertex="1" parent="1RI823N9lkYlSuivJZN4-1">
          <mxGeometry x="-1406.99" y="-442" as="geometry">
            <mxPoint x="-6" y="-4" as="offset" />
          </mxGeometry>
        </mxCell>
        <mxCell id="1RI823N9lkYlSuivJZN4-53" value="&lt;b style=&quot;&quot;&gt;&lt;font style=&quot;font-size: 13px;&quot;&gt;&#39;Pilihan Tidak Valid, Silahkan&lt;/font&gt;&lt;/b&gt;&lt;div&gt;&lt;b style=&quot;&quot;&gt;&lt;font style=&quot;font-size: 13px;&quot;&gt;Pilih Opsi Yang Tersedia&#39;&lt;/font&gt;&lt;/b&gt;&lt;/div&gt;" style="shape=parallelogram;perimeter=parallelogramPerimeter;whiteSpace=wrap;html=1;fixedSize=1;fillColor=none;strokeWidth=2;strokeColor=light-dark(#000000,#FFFFFF);" vertex="1" parent="1RI823N9lkYlSuivJZN4-1">
          <mxGeometry x="-1525.5" y="-350" width="226" height="60" as="geometry" />
        </mxCell>
        <mxCell id="1RI823N9lkYlSuivJZN4-54" value="" style="endArrow=classic;html=1;rounded=0;fontSize=12;startSize=8;endSize=8;curved=1;strokeColor=light-dark(#000000,#FFFFFF);strokeWidth=2;" edge="1" parent="1RI823N9lkYlSuivJZN4-1">
          <mxGeometry width="50" height="50" relative="1" as="geometry">
            <mxPoint x="-1315.5" y="-300" as="sourcePoint" />
            <mxPoint x="-1278.5" y="-300" as="targetPoint" />
          </mxGeometry>
        </mxCell>
        <mxCell id="1iXt8KfGvROvXoShLD2f-0" value="&lt;b&gt;&lt;font style=&quot;color: light-dark(rgb(0, 0, 0), rgb(0, 0, 0));&quot;&gt;B&lt;/font&gt;&lt;/b&gt;" style="shape=offPageConnector;whiteSpace=wrap;html=1;fillColor=#fa6800;size=0.2000000000000023;strokeWidth=2;fontColor=#000000;strokeColor=#C73500;" vertex="1" parent="1RI823N9lkYlSuivJZN4-1">
          <mxGeometry x="-1436" y="-2300" width="50" height="50" as="geometry" />
        </mxCell>
        <mxCell id="1iXt8KfGvROvXoShLD2f-2" value="&lt;b&gt;&lt;font style=&quot;color: light-dark(rgb(0, 0, 0), rgb(0, 0, 0));&quot;&gt;D&lt;/font&gt;&lt;/b&gt;" style="shape=offPageConnector;whiteSpace=wrap;html=1;fillColor=light-dark(#1319A2,#6776FF);size=0.2000000000000023;strokeWidth=2;fontColor=#ffffff;strokeColor=#6F0000;" vertex="1" parent="1RI823N9lkYlSuivJZN4-1">
          <mxGeometry x="-937" y="-558" width="50" height="50" as="geometry" />
        </mxCell>
      </root>
    </mxGraphModel>
  </diagram>
</mxfile>
